STARTFONT 2.1
FONT -FontForge-Good Times Rg-Book-R-Normal--88-840-75-75-P-653-ISO10646-1
SIZE 84 75 75
FONTBOUNDINGBOX 175 104 -24 -18
COMMENT "Generated by fontforge, http://fontforge.sourceforge.net"
COMMENT "(c) 1998-2012 Typodermic Fonts Inc. See attached license agreement. If agreement is missing visit typodermicfonts.com for more info. Languages by Chikako Larabie"
STARTPROPERTIES 39
FOUNDRY "FontForge"
FAMILY_NAME "Good Times Rg"
WEIGHT_NAME "Book"
SLANT "R"
SETWIDTH_NAME "Normal"
ADD_STYLE_NAME ""
PIXEL_SIZE 88
POINT_SIZE 840
RESOLUTION_X 75
RESOLUTION_Y 75
SPACING "P"
AVERAGE_WIDTH 653
CHARSET_REGISTRY "ISO10646"
CHARSET_ENCODING "1"
FONTNAME_REGISTRY ""
CHARSET_COLLECTIONS "ISO8859-2 ISO8859-9 ISO8859-4 ISO10646-1"
FONT_NAME "GoodTimesRg-Regular"
FACE_NAME "GoodTimesRg-Regular"
COPYRIGHT "(c) 1998-2012 Typodermic Fonts Inc. See attached license agreement. If agreement is missing visit typodermicfonts.com for more info. Languages by Chikako Larabie"
FONT_VERSION "4.001"
FONT_ASCENT 70
FONT_DESCENT 18
UNDERLINE_POSITION -13
UNDERLINE_THICKNESS 2
X_HEIGHT 63
CAP_HEIGHT 63
RAW_ASCENT 799
RAW_DESCENT 201
NORM_SPACE 26
RELATIVE_WEIGHT 40
RELATIVE_SETWIDTH 50
SUPERSCRIPT_X 0
SUPERSCRIPT_Y 26
SUPERSCRIPT_SIZE 26
SUBSCRIPT_X 0
SUBSCRIPT_Y 0
SUBSCRIPT_SIZE 26
AVG_LOWERCASE_WIDTH 749
AVG_UPPERCASE_WIDTH 746
ENDPROPERTIES
CHARS 372
STARTCHAR space
ENCODING 32
SWIDTH 294 0
DWIDTH 26 0
BBX 1 1 0 0
BITMAP
00
ENDCHAR
STARTCHAR exclam
ENCODING 33
SWIDTH 298 0
DWIDTH 26 0
BBX 12 64 7 0
BITMAP
7FE0
7FE0
7FE0
7FE0
7FE0
7FE0
7FE0
7FE0
7FE0
7FE0
7FE0
7FE0
7FE0
7FE0
7FE0
7FE0
7FE0
7FE0
7FE0
7FE0
7FE0
7FE0
7FE0
7FE0
7FE0
7FE0
7FE0
7FE0
7FE0
7FE0
7FE0
7FE0
7FE0
7FE0
7FE0
7FE0
7FE0
7FE0
7FE0
7FE0
7FE0
7FE0
7FE0
7FE0
0000
0000
0000
0000
0000
0000
0000
0000
0F80
3FC0
7FE0
7FF0
FFF0
FFF0
FFF0
FFF0
7FF0
7FE0
3FC0
0F80
ENDCHAR
STARTCHAR quotedbl
ENCODING 34
SWIDTH 452 0
DWIDTH 40 0
BBX 28 23 6 41
BITMAP
FFE0FFF0
FFE07FF0
FFE07FF0
FFE07FF0
FFE07FE0
FFE07FE0
7FE07FE0
7FE07FE0
7FE07FE0
7FE07FE0
7FC07FE0
7FC07FE0
7FC03FE0
7FC03FE0
7FC03FE0
7FC03FC0
7FC03FC0
3FC03FC0
3FC03FC0
3FC03FC0
3FC03FC0
3F803FC0
3F803FC0
ENDCHAR
STARTCHAR numbersign
ENCODING 35
SWIDTH 697 0
DWIDTH 61 0
BBX 54 64 4 0
BITMAP
000003FC001FE0
000007F8003FC0
000007F8003FC0
000007F8003FC0
000007F8003FC0
00000FF0007F80
00000FF0007F80
00000FF0007F80
00001FE000FF00
00001FE000FF00
00001FE000FF00
00001FE000FF00
00003FC001FE00
00003FC001FE00
00003FC001FE00
00007F8003FC00
00007F8003FC00
01FFFFFFFFFFFC
01FFFFFFFFFFFC
01FFFFFFFFFFFC
01FFFFFFFFFFFC
01FFFFFFFFFFFC
01FFFFFFFFFFFC
01FFFFFFFFFFFC
0003FC000FE000
0003FC001FE000
0003FC001FE000
0003FC001FE000
0007F8003FC000
0007F8003FC000
0007F8003FC000
000FF0007F8000
000FF0007F8000
000FF0007F8000
001FE000FF0000
001FE000FF0000
001FE000FF0000
001FC000FF0000
003FC001FE0000
FFFFFFFFFFFE00
FFFFFFFFFFFE00
FFFFFFFFFFFE00
FFFFFFFFFFFE00
FFFFFFFFFFFE00
FFFFFFFFFFFE00
FFFFFFFFFFFE00
00FF0007F80000
01FE000FF00000
01FE000FF00000
01FE000FF00000
01FC000FE00000
03FC001FE00000
03FC001FE00000
03FC001FE00000
07F8003FC00000
07F8003FC00000
07F8003FC00000
07F0007F800000
0FF0007F800000
0FF0007F800000
0FF0007F800000
1FE000FF000000
1FE000FF000000
1FE000FF000000
ENDCHAR
STARTCHAR dollar
ENCODING 36
SWIDTH 744 0
DWIDTH 65 0
BBX 55 64 5 0
BITMAP
0000003E000000
0000003E000000
0000003E000000
0000003E000000
0000003E000000
0000003E000000
001FFFFFFFFFF8
00FFFFFFFFFFF8
03FFFFFFFFFFF8
07FFFFFFFFFFF8
0FFFFFFFFFFFF8
1FFFFFFFFFFFF8
3FFFFFFFFFFFF8
3FFFFFFFFFFFF8
7FFFFFFFFFFFF8
7FF8003E000000
FFE0003E000000
FFC0003E000000
FFC0003E000000
FFC0003E000000
FF80003E000000
FF80003E000000
FF80003E000000
FFC0003E000000
7FC0003E000000
7FC0003E000000
7FE0003E000000
3FF8003E000000
3FFFFFFFFFF800
1FFFFFFFFFFF00
0FFFFFFFFFFFC0
07FFFFFFFFFFE0
03FFFFFFFFFFF0
00FFFFFFFFFFF8
001FFFFFFFFFF8
0000003E001FFC
0000003E0007FC
0000003E0007FE
0000003E0003FE
0000003E0003FE
0000003E0001FE
0000003E0001FE
0000003E0001FE
0000003E0001FE
0000003E0003FE
0000003E0003FE
0000003E0007FE
0000003E000FFE
0000003E001FFC
7FFFFFFFFFFFFC
7FFFFFFFFFFFFC
7FFFFFFFFFFFF8
7FFFFFFFFFFFF0
7FFFFFFFFFFFF0
7FFFFFFFFFFFC0
7FFFFFFFFFFF80
7FFFFFFFFFFE00
7FFFFFFFFFF000
0000003E000000
0000003E000000
0000003E000000
0000003E000000
0000003E000000
0000003E000000
ENDCHAR
STARTCHAR percent
ENCODING 37
SWIDTH 965 0
DWIDTH 85 0
BBX 77 74 4 -6
BITMAP
0000000000000003FC00
0000000000000007F800
000FF8000000000FF000
007FFF000000000FE000
01FFFF800000001FC000
03FFFFE00000003FC000
07FFFFF00000007F8000
0FFFFFF8000000FF0000
1FF00FFC000000FE0000
3FC003FC000001FC0000
3F8000FE000003FC0000
7F00007F000007F80000
7E00003F000007F00000
FC00003F00000FE00000
FC00001F00001FE00000
FC00001F80003FC00000
F800001F80007F800000
F800001F80007F000000
F800001F8000FE000000
F800001F8001FE000000
F800001F8003FC000000
FC00001F8003F8000000
FC00001F0007F0000000
FC00003F000FF0000000
7E00003F001FE0000000
7F00007E003FC0000000
3F8000FE003F80000000
3FC003FC007F00000000
1FF00FF800FF00000000
0FFFFFF801FE00000000
07FFFFF001FC00000000
03FFFFE003F800000000
01FFFF8007F800000000
007FFE000FF000000000
000FF0001FE000000000
000000001FC000000000
000000003F8000FF8000
000000007F8007FFF000
00000000FF001FFFFC00
00000001FE003FFFFE00
00000001FC007FFFFF00
00000003FC00FFFFFF80
00000007F801FF80FFC0
0000000FF003FC001FE0
0000000FE003F8000FE0
0000001FC007F00007F0
0000003FC007E00003F0
0000007F8007E00001F8
000000FF000FC00001F8
000000FE000FC00001F8
000001FE000FC00001F8
000003FC000FC00000F8
000007F8000FC00000F8
000007F0000FC00000F8
00000FE0000FC00001F8
00001FE0000FC00001F8
00003FC00007C00001F8
00007F800007E00003F0
00007F000007E00003F0
0000FE000003F00007F0
0001FE000003F8000FE0
0003FC000001FC001FE0
0003F8000001FF80FFC0
0007F0000000FFFFFF80
000FF00000007FFFFF00
001FE00000003FFFFE00
003FC00000000FFFF800
003F8000000003FFF000
007F00000000007F8000
00FF0000000000000000
01FE0000000000000000
03FC0000000000000000
03F80000000000000000
07F80000000000000000
ENDCHAR
STARTCHAR ampersand
ENCODING 38
SWIDTH 759 0
DWIDTH 67 0
BBX 60 64 4 0
BITMAP
0000FFFFC0000000
000FFFFFC0000000
003FFFFFC0000000
00FFFFFFC0000000
01FFFFFFC0000000
03FFFFFFC0000000
07FFFFFFC0000000
0FFFFFFFC0000000
1FFFFFFFC0000000
1FFFFFFFC0000000
1FFFFFFFC0000000
3FFFE00000000000
3FFF000000000000
3FFE000000000000
3FFC000000000000
3FF8000000000000
3FF8000000000000
3FF8000000000000
3FF8000000000000
3FF8000000000000
3FF8000000000000
3FF8000000000000
3FF8000000000000
1FFC000000000000
1FFE000000000000
0FFF000000000000
07FFC00000000000
03FFFFFFFFFFFF00
01FFFFFFFFFFFF00
00FFFFFFFFFFFF00
003FFFFFFFFFFF00
00FFFFFFFFFFFF00
03FFFFFFFFFFFF00
07FFFFFFFFFFFF00
0FFFFFFFFFFFFF00
1FFFFFFFFFFFFF00
3FFFC00003FF8000
3FFE000003FF8000
7FFC000003FF8000
7FF8000003FF8000
7FF0000003FF8000
7FF0000003FF8000
FFF0000003FF8000
FFF0000003FF8000
FFF0000003FF8000
FFF0000003FF8000
FFF0000003FF8000
FFF0000003FF8000
7FF8000003FF8000
7FF8000003FF8000
7FFC000003FF8000
7FFF000003FF8000
3FFFE00003FF8000
3FFFFFFFFFFFFFF0
1FFFFFFFFFFFFFF0
1FFFFFFFFFFFFFF0
0FFFFFFFFFFFFFF0
07FFFFFFFFFFFFF0
03FFFFFFFFFFFFF0
01FFFFFFFFFFFFF0
00FFFFFFFFFFFFF0
003FFFFFFFFFFFF0
000FFFFFFFFFFFF0
0000FFFFFFFFFFF0
ENDCHAR
STARTCHAR quotesingle
ENCODING 39
SWIDTH 255 0
DWIDTH 22 0
BBX 11 23 6 41
BITMAP
FFE0
FFE0
FFE0
FFE0
FFC0
FFC0
FFC0
FFC0
FFC0
FFC0
7FC0
7FC0
7FC0
7FC0
7FC0
7F80
7F80
7F80
7F80
7F80
7F80
3F80
3F80
ENDCHAR
STARTCHAR parenleft
ENCODING 40
SWIDTH 356 0
DWIDTH 31 0
BBX 18 81 8 -8
BITMAP
007FC0
007F80
007F80
00FF00
00FF00
01FE00
01FE00
01FE00
03FC00
03FC00
03F800
07F800
07F800
07F000
0FF000
0FF000
0FE000
1FE000
1FE000
1FE000
1FC000
3FC000
3FC000
3F8000
3F8000
3F8000
7F8000
7F8000
7F0000
7F0000
7F0000
7F0000
7F0000
7F0000
FF0000
FF0000
FF0000
FE0000
FE0000
FE0000
FE0000
FE0000
FE0000
FE0000
FF0000
FF0000
FF0000
7F0000
7F0000
7F0000
7F0000
7F0000
7F0000
7F8000
7F8000
3F8000
3F8000
3F8000
3FC000
3FC000
1FC000
1FC000
1FE000
1FE000
0FE000
0FF000
0FF000
07F000
07F800
07F800
03F800
03FC00
03FC00
01FC00
01FE00
01FE00
00FF00
00FF00
007F80
007F80
003FC0
ENDCHAR
STARTCHAR parenright
ENCODING 41
SWIDTH 355 0
DWIDTH 31 0
BBX 17 81 6 -8
BITMAP
FF0000
FF0000
7F8000
7F8000
3F8000
3FC000
3FC000
1FE000
1FE000
0FE000
0FF000
0FF000
07F000
07F800
07F800
03F800
03FC00
03FC00
03FC00
01FC00
01FE00
01FE00
00FE00
00FE00
00FF00
00FF00
00FF00
007F00
007F00
007F00
007F00
007F80
007F80
007F80
003F80
003F80
003F80
003F80
003F80
003F80
003F80
003F80
003F80
003F80
003F80
003F80
003F80
007F80
007F80
007F80
007F00
007F00
007F00
007F00
00FF00
00FF00
00FF00
00FE00
00FE00
01FE00
01FE00
01FC00
01FC00
03FC00
03FC00
03F800
07F800
07F800
07F000
0FF000
0FF000
0FE000
1FE000
1FE000
3FC000
3FC000
3F8000
7F8000
7F8000
FF0000
FF0000
ENDCHAR
STARTCHAR asterisk
ENCODING 42
SWIDTH 469 0
DWIDTH 41 0
BBX 30 29 6 35
BITMAP
000F8000
000F8000
000F8000
000F8000
000F8000
000F8000
000F8000
000F8000
600F8030
7C0F81F8
FFCF8FF8
FFFFFFF8
FFFFFFFC
3FFFFFF0
07FFFF00
00FFF800
003FE000
007FF000
007FF000
00FDF800
01FDFC00
01F8FE00
03F07E00
07F03F00
07E03F80
0FC01FC0
07800F80
03800E00
01000400
ENDCHAR
STARTCHAR plus
ENCODING 43
SWIDTH 690 0
DWIDTH 61 0
BBX 49 50 6 8
BITMAP
000007F0000000
000007F0000000
000007F0000000
000007F0000000
000007F0000000
000007F0000000
000007F0000000
000007F0000000
000007F0000000
000007F0000000
000007F0000000
000007F0000000
000007F0000000
000007F0000000
000007F0000000
000007F0000000
000007F0000000
000007F0000000
000007F0000000
000007F0000000
000007F0000000
000007F0000000
FFFFFFFFFFFF80
FFFFFFFFFFFF80
FFFFFFFFFFFF80
FFFFFFFFFFFF80
FFFFFFFFFFFF80
FFFFFFFFFFFF80
FFFFFFFFFFFF80
000007F0000000
000007F0000000
000007F0000000
000007F0000000
000007F0000000
000007F0000000
000007F0000000
000007F0000000
000007F0000000
000007F0000000
000007F0000000
000007F0000000
000007F0000000
000007F0000000
000007F0000000
000007F0000000
000007F0000000
000007F0000000
000007F0000000
000007F0000000
000007F0000000
ENDCHAR
STARTCHAR comma
ENCODING 44
SWIDTH 259 0
DWIDTH 23 0
BBX 11 23 6 -10
BITMAP
FFE0
FFE0
FFE0
FFE0
FFC0
FFC0
FFC0
FFC0
FFC0
FF80
FF80
FF80
FF80
FF80
FF00
FF00
FF00
FF00
FF00
FF00
FE00
FE00
FE00
ENDCHAR
STARTCHAR hyphen
ENCODING 45
SWIDTH 296 0
DWIDTH 26 0
BBX 21 7 3 29
BITMAP
FFFFF8
FFFFF8
FFFFF8
FFFFF8
FFFFF8
FFFFF8
FFFFF8
ENDCHAR
STARTCHAR period
ENCODING 46
SWIDTH 262 0
DWIDTH 23 0
BBX 12 12 6 0
BITMAP
1F00
7FC0
7FC0
FFE0
FFE0
FFE0
FFF0
FFE0
FFE0
7FC0
7FC0
1F00
ENDCHAR
STARTCHAR slash
ENCODING 47
SWIDTH 444 0
DWIDTH 39 0
BBX 37 64 1 0
BITMAP
00000003F8
00000007F8
00000007F0
0000000FF0
0000000FE0
0000001FE0
0000001FC0
0000003FC0
0000003F80
0000007F80
0000007F00
000000FF00
000000FE00
000000FE00
000001FC00
000001FC00
000003FC00
000003F800
000007F800
000007F000
00000FF000
00000FE000
00001FE000
00001FC000
00003FC000
00003F8000
00007F8000
00007F0000
0000FF0000
0000FF0000
0000FE0000
0001FE0000
0001FC0000
0003FC0000
0003F80000
0007F80000
0007F00000
000FF00000
000FE00000
001FE00000
001FC00000
003FC00000
003FC00000
007F800000
007F800000
00FF000000
00FF000000
00FE000000
01FE000000
01FC000000
03FC000000
03F8000000
07F8000000
07F0000000
0FF0000000
0FE0000000
1FE0000000
1FE0000000
3FC0000000
3FC0000000
7F80000000
7F80000000
FF00000000
FF00000000
ENDCHAR
STARTCHAR zero
ENCODING 48
SWIDTH 838 0
DWIDTH 74 0
BBX 66 64 4 0
BITMAP
0000001FFE00000000
000003FFFFE0000000
00001FFFFFFC000000
00007FFFFFFF800000
0001FFFFFFFFE00000
0007FFFFFFFFF00000
000FFFFFFFFFFC0000
001FFFFFFFFFFE0000
003FFFFFFFFFFF0000
007FFFFFFFFFFF8000
00FFFFFFFFFFFFC000
01FFFFF807FFFFE000
03FFFF00007FFFF000
07FFFC00000FFFF800
0FFFF0000003FFF800
0FFFC0000001FFFC00
1FFF80000000FFFC00
1FFF000000007FFE00
3FFE000000003FFE00
3FFC000000001FFF00
3FFC000000000FFF00
7FF8000000000FFF80
7FF80000000007FF80
7FF00000000007FF80
FFF00000000003FF80
FFF00000000003FFC0
FFE00000000003FFC0
FFE00000000003FFC0
FFE00000000003FFC0
FFE00000000001FFC0
FFE00000000001FFC0
FFE00000000001FFC0
FFE00000000001FFC0
FFE00000000001FFC0
FFE00000000001FFC0
FFE00000000003FFC0
FFE00000000003FFC0
FFF00000000003FF80
FFF00000000003FF80
7FF00000000003FF80
7FF00000000007FF80
7FF80000000007FF80
3FF8000000000FFF00
3FFC000000000FFF00
3FFE000000001FFE00
1FFE000000003FFE00
1FFF000000007FFC00
0FFF80000000FFFC00
0FFFE0000001FFF800
07FFF0000003FFF800
03FFFC00000FFFF000
01FFFF00007FFFE000
01FFFFF807FFFFC000
00FFFFFFFFFFFF8000
007FFFFFFFFFFF0000
003FFFFFFFFFFE0000
001FFFFFFFFFFC0000
0007FFFFFFFFF80000
0003FFFFFFFFF00000
0000FFFFFFFFC00000
00003FFFFFFF000000
00000FFFFFFC000000
000001FFFFE0000000
0000001FFE00000000
ENDCHAR
STARTCHAR one
ENCODING 49
SWIDTH 385 0
DWIDTH 34 0
BBX 26 64 2 0
BITMAP
FFF00000
FFFE0000
FFFF8000
FFFFE000
FFFFF000
FFFFF800
FFFFFC00
FFFFFE00
FFFFFE00
FFFFFF00
FFFFFF00
007FFF80
000FFF80
0007FF80
0003FFC0
0003FFC0
0001FFC0
0001FFC0
0001FFC0
0001FFC0
0001FFC0
0001FFC0
0001FFC0
0001FFC0
0001FFC0
0001FFC0
0001FFC0
0001FFC0
0001FFC0
0001FFC0
0001FFC0
0001FFC0
0001FFC0
0001FFC0
0001FFC0
0001FFC0
0001FFC0
0001FFC0
0001FFC0
0001FFC0
0001FFC0
0001FFC0
0001FFC0
0001FFC0
0001FFC0
0001FFC0
0001FFC0
0001FFC0
0001FFC0
0001FFC0
0001FFC0
0001FFC0
0001FFC0
0001FFC0
0001FFC0
0001FFC0
0001FFC0
0001FFC0
0001FFC0
0001FFC0
0001FFC0
0001FFC0
0001FFC0
0001FFC0
ENDCHAR
STARTCHAR two
ENCODING 50
SWIDTH 825 0
DWIDTH 73 0
BBX 62 64 6 0
BITMAP
FFFFFFFFFFFF0000
FFFFFFFFFFFFE000
FFFFFFFFFFFFF800
FFFFFFFFFFFFFE00
FFFFFFFFFFFFFF00
FFFFFFFFFFFFFF80
FFFFFFFFFFFFFFC0
FFFFFFFFFFFFFFE0
FFFFFFFFFFFFFFF0
FFFFFFFFFFFFFFF0
FFFFFFFFFFFFFFF8
000000000007FFF8
000000000001FFF8
0000000000007FFC
0000000000007FFC
0000000000003FFC
0000000000003FFC
0000000000003FFC
0000000000003FFC
0000000000003FFC
0000000000003FFC
0000000000003FFC
0000000000003FFC
0000000000007FF8
0000000000007FF8
000000000000FFF8
000000000003FFF0
0007FFFFFFFFFFF0
003FFFFFFFFFFFE0
01FFFFFFFFFFFFC0
03FFFFFFFFFFFF80
07FFFFFFFFFFFF00
0FFFFFFFFFFFFE00
1FFFFFFFFFFFF800
3FFFFFFFFFFFE000
3FFFFFFFFFFF0000
7FFE000000000000
7FF8000000000000
FFF0000000000000
FFE0000000000000
FFE0000000000000
FFC0000000000000
FFC0000000000000
FFC0000000000000
FFC0000000000000
FFC0000000000000
FFC0000000000000
FFC0000000000000
FFC0000000000000
FFC0000000000000
FFC0000000000000
FFC0000000000000
FFC0000000000000
FFFFFFFFFFFFFFF8
FFFFFFFFFFFFFFF8
FFFFFFFFFFFFFFF8
FFFFFFFFFFFFFFF8
FFFFFFFFFFFFFFF8
FFFFFFFFFFFFFFF8
FFFFFFFFFFFFFFF8
FFFFFFFFFFFFFFF8
FFFFFFFFFFFFFFF8
FFFFFFFFFFFFFFF8
FFFFFFFFFFFFFFF8
ENDCHAR
STARTCHAR three
ENCODING 51
SWIDTH 827 0
DWIDTH 73 0
BBX 64 64 4 0
BITMAP
FFFFFFFFFFFF8000
FFFFFFFFFFFFF000
FFFFFFFFFFFFFE00
FFFFFFFFFFFFFF80
FFFFFFFFFFFFFFC0
FFFFFFFFFFFFFFE0
FFFFFFFFFFFFFFF0
FFFFFFFFFFFFFFF8
FFFFFFFFFFFFFFF8
FFFFFFFFFFFFFFFC
FFFFFFFFFFFFFFFC
00000000000FFFFE
000000000000FFFE
0000000000003FFE
0000000000001FFE
0000000000001FFE
0000000000000FFE
0000000000000FFE
0000000000000FFE
0000000000000FFE
0000000000000FFE
0000000000000FFE
0000000000001FFC
0000000000001FFC
0000000000003FFC
0000000000007FF8
000000000001FFF0
0001FFFFFFFFFFE0
0001FFFFFFFFFFC0
0001FFFFFFFFFF00
0001FFFFFFFFFE00
0001FFFFFFFFFF80
0001FFFFFFFFFFE0
0001FFFFFFFFFFF0
0001FFFFFFFFFFF8
0001FFFFFFFFFFFC
000000000001FFFC
0000000000003FFE
0000000000001FFE
0000000000000FFF
0000000000000FFF
00000000000007FF
00000000000007FF
00000000000007FF
00000000000007FF
00000000000007FF
00000000000007FF
0000000000000FFF
0000000000000FFF
0000000000001FFF
0000000000003FFF
000000000000FFFE
000000000007FFFE
FFFFFFFFFFFFFFFE
FFFFFFFFFFFFFFFC
FFFFFFFFFFFFFFFC
FFFFFFFFFFFFFFF8
FFFFFFFFFFFFFFF0
FFFFFFFFFFFFFFE0
FFFFFFFFFFFFFFC0
FFFFFFFFFFFFFF80
FFFFFFFFFFFFFE00
FFFFFFFFFFFFF800
FFFFFFFFFFFF8000
ENDCHAR
STARTCHAR four
ENCODING 52
SWIDTH 845 0
DWIDTH 74 0
BBX 68 64 4 0
BITMAP
FFE000000000FFE000
FFE000000000FFE000
FFE000000000FFE000
FFE000000000FFE000
FFE000000000FFE000
FFE000000000FFE000
FFE000000000FFE000
FFE000000000FFE000
FFE000000000FFE000
FFE000000000FFE000
FFE000000000FFE000
FFE000000000FFE000
FFE000000000FFE000
FFE000000000FFE000
FFE000000000FFE000
FFE000000000FFE000
FFE000000000FFE000
FFE000000000FFE000
FFE000000000FFE000
FFE000000000FFE000
FFE000000000FFE000
FFE000000000FFE000
FFE000000000FFE000
FFE000000000FFE000
FFE000000000FFE000
FFE000000000FFE000
FFE000000000FFE000
FFE000000000FFE000
FFF000000000FFE000
FFF000000000FFE000
FFF000000000FFE000
7FF000000000FFE000
7FF800000000FFE000
7FF800000000FFE000
7FFE00000000FFE000
7FFF80000000FFE000
3FFFFFFFFFFFFFFFF0
3FFFFFFFFFFFFFFFF0
1FFFFFFFFFFFFFFFF0
1FFFFFFFFFFFFFFFF0
0FFFFFFFFFFFFFFFF0
07FFFFFFFFFFFFFFF0
03FFFFFFFFFFFFFFF0
01FFFFFFFFFFFFFFF0
007FFFFFFFFFFFFFF0
001FFFFFFFFFFFFFF0
0003FFFFFFFFFFFFF0
000000000000FFE000
000000000000FFE000
000000000000FFE000
000000000000FFE000
000000000000FFE000
000000000000FFE000
000000000000FFE000
000000000000FFE000
000000000000FFE000
000000000000FFE000
000000000000FFE000
000000000000FFE000
000000000000FFE000
000000000000FFE000
000000000000FFE000
000000000000FFE000
000000000000FFE000
ENDCHAR
STARTCHAR five
ENCODING 53
SWIDTH 885 0
DWIDTH 78 0
BBX 67 64 6 0
BITMAP
FFFFFFFFFFFFFFFF00
FFFFFFFFFFFFFFFF00
FFFFFFFFFFFFFFFF00
FFFFFFFFFFFFFFFF00
FFFFFFFFFFFFFFFF00
FFFFFFFFFFFFFFFF00
FFFFFFFFFFFFFFFF00
FFFFFFFFFFFFFFFF00
FFFFFFFFFFFFFFFF00
FFFFFFFFFFFFFFFF00
FFFFFFFFFFFFFFFF00
FFE000000000000000
FFE000000000000000
FFE000000000000000
FFE000000000000000
FFE000000000000000
FFE000000000000000
FFE000000000000000
FFE000000000000000
FFE000000000000000
FFE000000000000000
FFE000000000000000
FFE000000000000000
FFE000000000000000
FFE000000000000000
FFE000000000000000
FFE000000000000000
FFFFFFFFFFFFF80000
FFFFFFFFFFFFFF8000
FFFFFFFFFFFFFFE000
FFFFFFFFFFFFFFF800
FFFFFFFFFFFFFFFC00
FFFFFFFFFFFFFFFE00
FFFFFFFFFFFFFFFF00
FFFFFFFFFFFFFFFF80
FFFFFFFFFFFFFFFF80
0000000000001FFFC0
00000000000003FFC0
00000000000001FFC0
00000000000000FFE0
00000000000000FFE0
00000000000000FFE0
000000000000007FE0
000000000000007FE0
000000000000007FE0
000000000000007FE0
000000000000007FE0
00000000000000FFE0
00000000000000FFE0
00000000000001FFE0
00000000000003FFE0
00000000000007FFC0
0000000000003FFFC0
FFFFFFFFFFFFFFFFC0
FFFFFFFFFFFFFFFF80
FFFFFFFFFFFFFFFF80
FFFFFFFFFFFFFFFF00
FFFFFFFFFFFFFFFE00
FFFFFFFFFFFFFFFE00
FFFFFFFFFFFFFFFC00
FFFFFFFFFFFFFFF000
FFFFFFFFFFFFFFE000
FFFFFFFFFFFFFF8000
FFFFFFFFFFFFF80000
ENDCHAR
STARTCHAR six
ENCODING 54
SWIDTH 872 0
DWIDTH 77 0
BBX 68 64 4 0
BITMAP
000003FFFFFFFFFF80
00003FFFFFFFFFFF80
0001FFFFFFFFFFFF80
0007FFFFFFFFFFFF80
001FFFFFFFFFFFFF80
003FFFFFFFFFFFFF80
007FFFFFFFFFFFFF80
01FFFFFFFFFFFFFF80
01FFFFFFFFFFFFFF80
03FFFFFFFFFFFFFF80
07FFFFFFFFFFFFFF80
0FFFFF000000000000
0FFFF8000000000000
1FFFC0000000000000
1FFF80000000000000
3FFF00000000000000
3FFE00000000000000
3FFC00000000000000
7FF800000000000000
7FF800000000000000
7FF000000000000000
7FF000000000000000
FFF000000000000000
FFF000000000000000
FFE000000000000000
FFE000000000000000
FFFFFFFFFFFFFC0000
FFFFFFFFFFFFFFC000
FFFFFFFFFFFFFFF000
FFFFFFFFFFFFFFFC00
FFFFFFFFFFFFFFFE00
FFFFFFFFFFFFFFFF00
FFFFFFFFFFFFFFFF80
FFFFFFFFFFFFFFFFC0
FFFFFFFFFFFFFFFFC0
FFFFFFFFFFFFFFFFE0
FFE0000000000FFFE0
FFE00000000003FFE0
FFE00000000001FFE0
FFF00000000000FFF0
FFF000000000007FF0
7FF000000000007FF0
7FF000000000007FF0
7FF800000000007FF0
7FF800000000007FF0
3FFC00000000007FF0
3FFC00000000007FF0
3FFE00000000007FF0
1FFF0000000000FFF0
1FFF8000000000FFF0
0FFFE000000001FFE0
0FFFF800000003FFE0
07FFFF8000001FFFE0
07FFFFFFFFFFFFFFC0
03FFFFFFFFFFFFFFC0
01FFFFFFFFFFFFFF80
00FFFFFFFFFFFFFF80
007FFFFFFFFFFFFF00
003FFFFFFFFFFFFE00
000FFFFFFFFFFFFC00
0007FFFFFFFFFFF800
0001FFFFFFFFFFE000
00003FFFFFFFFF8000
000003FFFFFFFC0000
ENDCHAR
STARTCHAR seven
ENCODING 55
SWIDTH 756 0
DWIDTH 67 0
BBX 61 64 4 0
BITMAP
FFFFFFFFFFFFFF80
FFFFFFFFFFFFFFE0
FFFFFFFFFFFFFFF0
FFFFFFFFFFFFFFF0
FFFFFFFFFFFFFFF8
FFFFFFFFFFFFFFF8
FFFFFFFFFFFFFFF8
FFFFFFFFFFFFFFF0
FFFFFFFFFFFFFFF0
FFFFFFFFFFFFFFE0
FFFFFFFFFFFFFFE0
00000000000FFFC0
00000000001FFF80
00000000003FFF00
00000000007FFE00
00000000007FFE00
0000000000FFFC00
0000000001FFF800
0000000003FFF000
0000000007FFE000
000000000FFFC000
000000000FFFC000
000000001FFF8000
000000003FFF0000
000000007FFE0000
00000000FFFC0000
00000001FFFC0000
00000001FFF80000
00000003FFF00000
00000007FFE00000
0000000FFFC00000
0000001FFF800000
0000003FFF800000
0000003FFF000000
0000007FFE000000
000000FFFC000000
000001FFF8000000
000003FFF8000000
000007FFF0000000
000007FFE0000000
00000FFFC0000000
00001FFF80000000
00003FFF00000000
00007FFF00000000
00007FFE00000000
0000FFFC00000000
0001FFF800000000
0003FFF000000000
0007FFF000000000
000FFFE000000000
000FFFC000000000
001FFF8000000000
003FFF0000000000
007FFF0000000000
00FFFE0000000000
01FFFC0000000000
01FFF80000000000
03FFF00000000000
07FFE00000000000
0FFFE00000000000
1FFFC00000000000
3FFF800000000000
3FFF000000000000
FFFE000000000000
ENDCHAR
STARTCHAR eight
ENCODING 56
SWIDTH 898 0
DWIDTH 79 0
BBX 71 64 4 0
BITMAP
0000FFFFFFFFFE0000
0007FFFFFFFFFFE000
003FFFFFFFFFFFF800
00FFFFFFFFFFFFFE00
01FFFFFFFFFFFFFF00
03FFFFFFFFFFFFFF80
07FFFFFFFFFFFFFFC0
0FFFFFFFFFFFFFFFE0
0FFFFFFFFFFFFFFFE0
1FFFFFFFFFFFFFFFF0
1FFFFFFFFFFFFFFFF0
3FFFF80000003FFFF8
3FFF8000000003FFF8
3FFE0000000000FFF8
3FFC00000000007FF8
3FFC00000000007FF8
3FF800000000003FF8
3FF800000000003FF8
3FF800000000003FF8
3FF800000000003FF8
3FF800000000003FF8
3FF800000000003FF8
3FF800000000003FF8
1FFC00000000007FF0
1FFE0000000000FFF0
0FFF0000000001FFE0
07FFC000000007FFC0
03FFFFFFFFFFFFFF80
01FFFFFFFFFFFFFF00
007FFFFFFFFFFFFC00
003FFFFFFFFFFFF800
00FFFFFFFFFFFFFE00
03FFFFFFFFFFFFFF80
07FFFFFFFFFFFFFFC0
0FFFFFFFFFFFFFFFE0
1FFFFFFFFFFFFFFFF0
1FFFC000000007FFF0
3FFE0000000000FFF8
3FFC00000000007FF8
7FF800000000003FFC
7FF800000000003FFC
7FF000000000001FFC
7FF000000000001FFC
FFF000000000001FFC
FFF000000000001FFE
FFF000000000001FFE
7FF000000000001FFC
7FF000000000001FFC
7FF800000000003FFC
7FFC00000000007FFC
7FFE0000000000FFFC
7FFF8000000003FFF8
3FFFF00000001FFFF8
3FFFFFFFFFFFFFFFF8
1FFFFFFFFFFFFFFFF0
1FFFFFFFFFFFFFFFF0
0FFFFFFFFFFFFFFFE0
07FFFFFFFFFFFFFFC0
03FFFFFFFFFFFFFF80
01FFFFFFFFFFFFFF00
00FFFFFFFFFFFFFE00
003FFFFFFFFFFFF800
000FFFFFFFFFFFE000
0000FFFFFFFFFE0000
ENDCHAR
STARTCHAR nine
ENCODING 57
SWIDTH 861 0
DWIDTH 76 0
BBX 68 64 4 0
BITMAP
0003FFFFFFF8000000
001FFFFFFFFFC00000
007FFFFFFFFFF00000
01FFFFFFFFFFFC0000
03FFFFFFFFFFFF0000
07FFFFFFFFFFFF8000
0FFFFFFFFFFFFFE000
1FFFFFFFFFFFFFF000
1FFFFFFFFFFFFFF800
3FFFFFFFFFFFFFF800
3FFFFFFFFFFFFFFC00
7FFF8000001FFFFE00
7FFE00000001FFFE00
7FFC000000007FFF00
FFF8000000003FFF80
FFF0000000000FFF80
FFF0000000000FFF80
FFE00000000007FFC0
FFE00000000003FFC0
FFE00000000003FFC0
FFE00000000001FFE0
FFE00000000001FFE0
FFE00000000000FFE0
FFE00000000000FFE0
FFE00000000000FFE0
FFF00000000000FFF0
FFF00000000000FFF0
7FF800000000007FF0
7FFC00000000007FF0
7FFF80000000007FF0
3FFFFFFFFFFFFFFFF0
3FFFFFFFFFFFFFFFF0
1FFFFFFFFFFFFFFFF0
0FFFFFFFFFFFFFFFF0
07FFFFFFFFFFFFFFF0
03FFFFFFFFFFFFFFF0
01FFFFFFFFFFFFFFF0
007FFFFFFFFFFFFFF0
0007FFFFFFFFFFFFF0
00000000000000FFF0
00000000000000FFF0
00000000000000FFE0
00000000000001FFE0
00000000000001FFE0
00000000000001FFE0
00000000000003FFC0
00000000000003FFC0
00000000000007FFC0
0000000000000FFF80
0000000000001FFF80
0000000000007FFF80
000000000001FFFF00
00000000001FFFFE00
01FFFFFFFFFFFFFE00
01FFFFFFFFFFFFFC00
01FFFFFFFFFFFFF800
01FFFFFFFFFFFFF000
01FFFFFFFFFFFFE000
01FFFFFFFFFFFFC000
01FFFFFFFFFFFF8000
01FFFFFFFFFFFE0000
01FFFFFFFFFFF80000
01FFFFFFFFFFC00000
01FFFFFFFFFC000000
ENDCHAR
STARTCHAR colon
ENCODING 58
SWIDTH 262 0
DWIDTH 23 0
BBX 12 41 6 0
BITMAP
1F00
7F80
7FC0
FFE0
FFE0
FFE0
FFF0
FFE0
FFE0
7FC0
7FC0
1F00
0000
0000
0000
0000
0000
0000
0000
0000
0000
0000
0000
0000
0000
0000
0000
0000
0000
1F00
7FC0
7FC0
FFE0
FFE0
FFE0
FFF0
FFE0
FFE0
7FC0
7FC0
1F00
ENDCHAR
STARTCHAR semicolon
ENCODING 59
SWIDTH 262 0
DWIDTH 23 0
BBX 12 51 6 -10
BITMAP
1F00
7FC0
7FE0
FFE0
FFE0
FFE0
FFF0
FFE0
FFE0
7FE0
3FC0
1F00
0000
0000
0000
0000
0000
0000
0000
0000
0000
0000
0000
0000
0000
0000
0000
0000
FFE0
FFE0
FFE0
FFE0
FFC0
FFC0
FFC0
FFC0
FFC0
FF80
FF80
FF80
FF80
FF80
FF00
FF00
FF00
FF00
FF00
FF00
FE00
FE00
FE00
ENDCHAR
STARTCHAR less
ENCODING 60
SWIDTH 690 0
DWIDTH 61 0
BBX 49 47 6 9
BITMAP
00000000000180
00000000000780
00000000001F80
0000000000FF80
0000000003FF80
000000001FFF80
000000007FFF80
00000001FFFF80
0000000FFFFE00
0000003FFFF800
000000FFFFC000
000007FFFF0000
00001FFFF80000
0000FFFFE00000
0003FFFF000000
000FFFF8000000
007FFFE0000000
01FFFF00000000
0FFFFC00000000
3FFFE000000000
7FFF8000000000
FFFC0000000000
FFE00000000000
FF800000000000
FFF00000000000
FFFC0000000000
7FFF8000000000
3FFFE000000000
07FFFC00000000
01FFFF00000000
007FFFE0000000
000FFFFC000000
0003FFFF000000
00007FFFE00000
00001FFFF80000
000007FFFF0000
000000FFFFC000
0000003FFFF800
0000000FFFFE00
00000001FFFF80
000000007FFF80
000000000FFF80
0000000003FF80
0000000000FF80
00000000001F80
00000000000780
00000000000180
ENDCHAR
STARTCHAR equal
ENCODING 61
SWIDTH 690 0
DWIDTH 61 0
BBX 49 31 6 17
BITMAP
FFFFFFFFFFFF80
FFFFFFFFFFFF80
FFFFFFFFFFFF80
FFFFFFFFFFFF80
FFFFFFFFFFFF80
FFFFFFFFFFFF80
FFFFFFFFFFFF80
00000000000000
00000000000000
00000000000000
00000000000000
00000000000000
00000000000000
00000000000000
00000000000000
00000000000000
00000000000000
00000000000000
00000000000000
00000000000000
00000000000000
00000000000000
00000000000000
00000000000000
FFFFFFFFFFFF80
FFFFFFFFFFFF80
FFFFFFFFFFFF80
FFFFFFFFFFFF80
FFFFFFFFFFFF80
FFFFFFFFFFFF80
FFFFFFFFFFFF80
ENDCHAR
STARTCHAR greater
ENCODING 62
SWIDTH 690 0
DWIDTH 61 0
BBX 49 47 6 9
BITMAP
80000000000000
F0000000000000
FC000000000000
FF800000000000
FFE00000000000
FFF80000000000
FFFF0000000000
FFFFC000000000
7FFFF000000000
0FFFFE00000000
03FFFF80000000
007FFFF0000000
000FFFFC000000
0003FFFF000000
00007FFFE00000
00001FFFF80000
000003FFFF0000
000000FFFFC000
0000001FFFF000
00000003FFFE00
00000000FFFF00
000000001FFF80
0000000007FF80
0000000000FF80
0000000007FF80
000000003FFF80
00000000FFFF00
00000007FFFC00
0000001FFFF000
000000FFFFC000
000003FFFE0000
00001FFFF80000
00007FFFE00000
0003FFFF000000
000FFFFC000000
007FFFE0000000
01FFFF80000000
0FFFFE00000000
3FFFF000000000
FFFFC000000000
FFFE0000000000
FFF80000000000
FFE00000000000
FF000000000000
FC000000000000
F0000000000000
80000000000000
ENDCHAR
STARTCHAR question
ENCODING 63
SWIDTH 776 0
DWIDTH 68 0
BBX 62 64 4 0
BITMAP
FFFFFFFFFFFE0000
FFFFFFFFFFFFE000
FFFFFFFFFFFFF800
FFFFFFFFFFFFFE00
FFFFFFFFFFFFFF00
FFFFFFFFFFFFFF80
FFFFFFFFFFFFFFC0
FFFFFFFFFFFFFFE0
FFFFFFFFFFFFFFE0
FFFFFFFFFFFFFFF0
FFFFFFFFFFFFFFF0
000000000007FFF8
000000000001FFF8
000000000000FFF8
0000000000007FF8
0000000000003FFC
0000000000003FFC
0000000000003FFC
0000000000003FFC
0000000000003FFC
0000000000003FF8
0000000000003FF8
0000000000007FF8
0000000000007FF8
000000000001FFF0
000000000007FFF0
0001FFFFFFFFFFE0
000FFFFFFFFFFFE0
001FFFFFFFFFFFC0
007FFFFFFFFFFF80
00FFFFFFFFFFFF00
00FFFFFFFFFFFE00
01FFFFFFFFFFF800
01FFFFFFFFFFE000
03FFFFFFFFFF0000
03FFC00000000000
03FF800000000000
03FF800000000000
03FF000000000000
03FF000000000000
03FF000000000000
03FF000000000000
0000000000000000
0000000000000000
0000000000000000
0000000000000000
0000000000000000
0000000000000000
0000000000000000
0000000000000000
0000000000000000
0000000000000000
007C000000000000
01FE000000000000
03FF000000000000
03FF800000000000
07FF800000000000
07FF800000000000
07FF800000000000
07FF800000000000
03FF800000000000
03FF000000000000
01FE000000000000
007C000000000000
ENDCHAR
STARTCHAR at
ENCODING 64
SWIDTH 833 0
DWIDTH 73 0
BBX 64 64 4 0
BITMAP
0000003FFFFFFFFF
000003FFFFFFFFFF
00001FFFFFFFFFFF
00007FFFFFFFFFFF
0001FFFFFFFFFFFF
0003FFFFFFFFFFFF
000FFFFFFFFFFFFF
001FFFFFFFFFFFFF
003FFFC0000001FF
007FFE00000001FF
00FFF000000001FF
01FFC000000001FF
03FF8000000001FF
03FF0000000001FF
07FE0000000001FF
0FFC0000000001FF
0FF80000000001FF
1FF00000000001FF
1FE0001FFFFF01FF
3FE0007FFFFF01FF
3FC001FFFFFF01FF
7FC003FFFFFF01FF
7FC007FFFFFF01FF
7F800FFFFFFF01FF
7F800FFC00FF01FF
FF801FF000FF01FF
FF801FE000FF01FF
FF001FC000FF01FF
FF003FC000FF01FF
FF003FC000FF01FF
FF003F8000FF01FF
FF003F8000FF01FF
FF003F8000FF01FF
FF003F8000FF01FF
FF003FC000FF01FF
FF003FC000FF01FF
FF003FE000FF01FF
FF801FE000FF01FF
FF801FF000FF01FF
FF801FFC00FF01FF
FF800FFFFFFFFFFF
7FC00FFFFFFFFFFF
7FC007FFFFFFFFFF
7FC003FFFFFFFFFF
3FE001FFFFFFFFFF
3FF0007FFFFFFFFF
1FF0001FFFFFFFFF
1FF8000000000000
0FFC000000000000
0FFE000000000000
07FF000000000000
07FF800000000000
03FFC00000000000
01FFF00000000000
00FFFE0000000000
007FFFC000000000
003FFFFFFFFFFFFF
001FFFFFFFFFFFFF
0007FFFFFFFFFFFF
0003FFFFFFFFFFFF
0000FFFFFFFFFFFF
00003FFFFFFFFFFF
000007FFFFFFFFFF
0000003FFFFFFFFF
ENDCHAR
STARTCHAR A
ENCODING 65
SWIDTH 989 0
DWIDTH 87 0
BBX 85 65 1 0
BITMAP
0000000000F80000000000
0000000001FC0000000000
0000000003FE0000000000
0000000007FF0000000000
000000000FFF0000000000
000000000FFF8000000000
000000001FFFC000000000
000000001FFFC000000000
000000003FFFE000000000
000000007FFFE000000000
000000007FFFF000000000
00000000FFFFF800000000
00000000FFFFF800000000
00000001FFFFFC00000000
00000003FFFFFC00000000
00000003FFFFFE00000000
00000007FFFFFF00000000
00000007FF9FFF00000000
0000000FFF9FFF80000000
0000001FFF0FFF80000000
0000001FFE07FFC0000000
0000003FFE07FFE0000000
0000003FFC03FFE0000000
0000007FFC03FFF0000000
000000FFF801FFF0000000
000000FFF000FFF8000000
000001FFF000FFFC000000
000001FFE0007FFC000000
000003FFE0007FFE000000
000007FFC0003FFE000000
000007FF80001FFF000000
00000FFF80001FFF800000
00000FFF00000FFF800000
00001FFF00000FFFC00000
00003FFE000007FFC00000
00003FFE000003FFE00000
00007FFC000003FFF00000
00007FF8000001FFF00000
0000FFF8000001FFF80000
0001FFF0000000FFF80000
0001FFF00FFFFFFFFC0000
0003FFE00FFFFFFFFE0000
0003FFC01FFFFFFFFE0000
0007FFC01FFFFFFFFF0000
000FFF803FFFFFFFFF0000
000FFF807FFFFFFFFF8000
001FFF007FFFFFFFFFC000
001FFE00FFFFFFFFFFC000
003FFE01FFFFFFFFFFE000
003FFC0000000003FFE000
007FFC0000000001FFF000
00FFF80000000001FFF800
00FFF00000000000FFF800
01FFF00000000000FFFC00
01FFE000000000007FFC00
03FFE000000000003FFE00
07FFC000000000003FFF00
07FF8000000000001FFF00
0FFF8000000000001FFF80
0FFF0000000000000FFF80
1FFF00000000000007FFC0
3FFE00000000000007FFE0
3FFC00000000000003FFE0
7FFC00000000000003FFF0
FFF800000000000001FFF8
ENDCHAR
STARTCHAR B
ENCODING 66
SWIDTH 891 0
DWIDTH 78 0
BBX 69 64 5 0
BITMAP
FFFFFFFFFFFFF80000
FFFFFFFFFFFFFF8000
FFFFFFFFFFFFFFF000
FFFFFFFFFFFFFFF800
FFFFFFFFFFFFFFFE00
FFFFFFFFFFFFFFFF00
FFFFFFFFFFFFFFFF80
FFFFFFFFFFFFFFFF80
FFFFFFFFFFFFFFFFC0
FFFFFFFFFFFFFFFFE0
FFFFFFFFFFFFFFFFE0
FFF0000000007FFFE0
FFF00000000007FFF0
FFF00000000003FFF0
FFF00000000001FFF0
FFF00000000000FFF0
FFF00000000000FFF0
FFF000000000007FF0
FFF000000000007FF0
FFF000000000007FF0
FFF000000000007FF0
FFF00000000000FFE0
FFF00000000000FFE0
FFF00000000000FFE0
FFF00000000001FFC0
FFF00000000003FFC0
FFF0000000000FFF80
FFF00FFFFFFFFFFF00
FFF00FFFFFFFFFFE00
FFF00FFFFFFFFFF800
FFF00FFFFFFFFFF000
FFF00FFFFFFFFFFC00
FFF00FFFFFFFFFFE00
FFF00FFFFFFFFFFF80
FFF00FFFFFFFFFFFC0
FFF00FFFFFFFFFFFC0
FFF0000000000FFFE0
FFF00000000003FFF0
FFF00000000000FFF0
FFF000000000007FF0
FFF000000000007FF8
FFF000000000007FF8
FFF000000000003FF8
FFF000000000003FF8
FFF000000000003FF8
FFF000000000003FF8
FFF000000000003FF8
FFF000000000007FF8
FFF000000000007FF8
FFF00000000000FFF8
FFF00000000001FFF0
FFF00000000007FFF0
FFF000000000FFFFF0
FFFFFFFFFFFFFFFFE0
FFFFFFFFFFFFFFFFE0
FFFFFFFFFFFFFFFFC0
FFFFFFFFFFFFFFFFC0
FFFFFFFFFFFFFFFF80
FFFFFFFFFFFFFFFF00
FFFFFFFFFFFFFFFE00
FFFFFFFFFFFFFFF800
FFFFFFFFFFFFFFF000
FFFFFFFFFFFFFFC000
FFFFFFFFFFFFFC0000
ENDCHAR
STARTCHAR C
ENCODING 67
SWIDTH 829 0
DWIDTH 73 0
BBX 65 64 4 0
BITMAP
0000007FFFFFFFFF80
000007FFFFFFFFFF80
00003FFFFFFFFFFF80
0000FFFFFFFFFFFF80
0003FFFFFFFFFFFF80
000FFFFFFFFFFFFF80
001FFFFFFFFFFFFF80
003FFFFFFFFFFFFF80
007FFFFFFFFFFFFF80
00FFFFFFFFFFFFFF80
01FFFFFFFFFFFFFF80
03FFFFE00000000000
07FFFE000000000000
07FFF8000000000000
0FFFF0000000000000
1FFFC0000000000000
1FFF80000000000000
3FFF00000000000000
3FFE00000000000000
3FFC00000000000000
7FFC00000000000000
7FF800000000000000
7FF800000000000000
FFF000000000000000
FFF000000000000000
FFF000000000000000
FFE000000000000000
FFE000000000000000
FFE000000000000000
FFE000000000000000
FFE000000000000000
FFE000000000000000
FFE000000000000000
FFE000000000000000
FFE000000000000000
FFE000000000000000
FFE000000000000000
FFF000000000000000
FFF000000000000000
7FF000000000000000
7FF000000000000000
7FF800000000000000
7FF800000000000000
3FFC00000000000000
3FFE00000000000000
1FFE00000000000000
1FFF00000000000000
1FFF80000000000000
0FFFC0000000000000
07FFF0000000000000
07FFF8000000000000
03FFFE000000000000
01FFFFE00000000000
01FFFFFFFFFFFFFF80
00FFFFFFFFFFFFFF80
007FFFFFFFFFFFFF80
003FFFFFFFFFFFFF80
000FFFFFFFFFFFFF80
0007FFFFFFFFFFFF80
0001FFFFFFFFFFFF80
0000FFFFFFFFFFFF80
00003FFFFFFFFFFF80
000007FFFFFFFFFF80
0000007FFFFFFFFF80
ENDCHAR
STARTCHAR D
ENCODING 68
SWIDTH 879 0
DWIDTH 77 0
BBX 68 64 6 0
BITMAP
FFFFFFFFFFE0000000
FFFFFFFFFFFE000000
FFFFFFFFFFFFC00000
FFFFFFFFFFFFF00000
FFFFFFFFFFFFFC0000
FFFFFFFFFFFFFE0000
FFFFFFFFFFFFFF0000
FFFFFFFFFFFFFFC000
FFFFFFFFFFFFFFE000
FFFFFFFFFFFFFFF000
FFFFFFFFFFFFFFF800
FFE0000000FFFFF800
FFE00000000FFFFC00
FFE000000003FFFE00
FFE000000000FFFE00
FFE0000000007FFF00
FFE0000000003FFF00
FFE0000000001FFF80
FFE0000000000FFF80
FFE00000000007FFC0
FFE00000000003FFC0
FFE00000000003FFC0
FFE00000000001FFE0
FFE00000000001FFE0
FFE00000000001FFE0
FFE00000000000FFE0
FFE00000000000FFE0
FFE00000000000FFF0
FFE00000000000FFF0
FFE00000000000FFF0
FFE000000000007FF0
FFE000000000007FF0
FFE000000000007FF0
FFE00000000000FFF0
FFE00000000000FFF0
FFE00000000000FFF0
FFE00000000000FFE0
FFE00000000000FFE0
FFE00000000000FFE0
FFE00000000001FFE0
FFE00000000001FFE0
FFE00000000003FFC0
FFE00000000003FFC0
FFE00000000007FFC0
FFE00000000007FF80
FFE0000000000FFF80
FFE0000000001FFF00
FFE0000000003FFF00
FFE0000000007FFE00
FFE000000000FFFE00
FFE000000003FFFC00
FFE00000000FFFF800
FFE0000000FFFFF800
FFFFFFFFFFFFFFF000
FFFFFFFFFFFFFFE000
FFFFFFFFFFFFFFC000
FFFFFFFFFFFFFF8000
FFFFFFFFFFFFFF0000
FFFFFFFFFFFFFC0000
FFFFFFFFFFFFF80000
FFFFFFFFFFFFE00000
FFFFFFFFFFFF800000
FFFFFFFFFFFC000000
FFFFFFFFFFC0000000
ENDCHAR
STARTCHAR E
ENCODING 69
SWIDTH 759 0
DWIDTH 67 0
BBX 57 64 6 0
BITMAP
FFFFFFFFFFFFFF80
FFFFFFFFFFFFFF80
FFFFFFFFFFFFFF80
FFFFFFFFFFFFFF80
FFFFFFFFFFFFFF80
FFFFFFFFFFFFFF80
FFFFFFFFFFFFFF80
FFFFFFFFFFFFFF80
FFFFFFFFFFFFFF80
FFFFFFFFFFFFFF80
FFFFFFFFFFFFFF80
FFE0000000000000
FFE0000000000000
FFE0000000000000
FFE0000000000000
FFE0000000000000
FFE0000000000000
FFE0000000000000
FFE0000000000000
FFE0000000000000
FFE0000000000000
FFE0000000000000
FFE0000000000000
FFE0000000000000
FFE0000000000000
FFE0000000000000
FFE0000000000000
FFE01FFFFFFFFC00
FFE01FFFFFFFFC00
FFE01FFFFFFFFC00
FFE01FFFFFFFFC00
FFE01FFFFFFFFC00
FFE01FFFFFFFFC00
FFE01FFFFFFFFC00
FFE01FFFFFFFFC00
FFE01FFFFFFFFC00
FFE0000000000000
FFE0000000000000
FFE0000000000000
FFE0000000000000
FFE0000000000000
FFE0000000000000
FFE0000000000000
FFE0000000000000
FFE0000000000000
FFE0000000000000
FFE0000000000000
FFE0000000000000
FFE0000000000000
FFE0000000000000
FFE0000000000000
FFE0000000000000
FFE0000000000000
FFFFFFFFFFFFFF80
FFFFFFFFFFFFFF80
FFFFFFFFFFFFFF80
FFFFFFFFFFFFFF80
FFFFFFFFFFFFFF80
FFFFFFFFFFFFFF80
FFFFFFFFFFFFFF80
FFFFFFFFFFFFFF80
FFFFFFFFFFFFFF80
FFFFFFFFFFFFFF80
FFFFFFFFFFFFFF80
ENDCHAR
STARTCHAR F
ENCODING 70
SWIDTH 705 0
DWIDTH 62 0
BBX 54 64 6 0
BITMAP
FFFFFFFFFFFFFC
FFFFFFFFFFFFFC
FFFFFFFFFFFFFC
FFFFFFFFFFFFFC
FFFFFFFFFFFFFC
FFFFFFFFFFFFFC
FFFFFFFFFFFFFC
FFFFFFFFFFFFFC
FFFFFFFFFFFFFC
FFFFFFFFFFFFFC
FFFFFFFFFFFFFC
FFE00000000000
FFE00000000000
FFE00000000000
FFE00000000000
FFE00000000000
FFE00000000000
FFE00000000000
FFE00000000000
FFE00000000000
FFE00000000000
FFE00000000000
FFE00000000000
FFE00000000000
FFE00000000000
FFE00000000000
FFE00000000000
FFE00000000000
FFE01FFFFFFFE0
FFE01FFFFFFFE0
FFE01FFFFFFFE0
FFE01FFFFFFFE0
FFE01FFFFFFFE0
FFE01FFFFFFFE0
FFE01FFFFFFFE0
FFE01FFFFFFFE0
FFE01FFFFFFFE0
FFE01FFFFFFFE0
FFE00000000000
FFE00000000000
FFE00000000000
FFE00000000000
FFE00000000000
FFE00000000000
FFE00000000000
FFE00000000000
FFE00000000000
FFE00000000000
FFE00000000000
FFE00000000000
FFE00000000000
FFE00000000000
FFE00000000000
FFE00000000000
FFE00000000000
FFE00000000000
FFE00000000000
FFE00000000000
FFE00000000000
FFE00000000000
FFE00000000000
FFE00000000000
FFE00000000000
FFE00000000000
ENDCHAR
STARTCHAR G
ENCODING 71
SWIDTH 888 0
DWIDTH 78 0
BBX 69 64 4 0
BITMAP
0000007FFFFFFFFF80
000007FFFFFFFFFF80
00003FFFFFFFFFFF80
0000FFFFFFFFFFFF80
0003FFFFFFFFFFFF80
000FFFFFFFFFFFFF80
001FFFFFFFFFFFFF80
003FFFFFFFFFFFFF80
007FFFFFFFFFFFFF80
00FFFFFFFFFFFFFF80
01FFFFFFFFFFFFFF80
03FFFFE00000000000
07FFFE000000000000
07FFF8000000000000
0FFFF0000000000000
1FFFC0000000000000
1FFF80000000000000
3FFF00000000000000
3FFE00000000000000
3FFC00000000000000
7FFC00000000000000
7FF800000000000000
7FF800000000000000
FFF000000000000000
FFF000000000000000
FFF000000000000000
FFE000000000000000
FFE00007FFFFFFFFF8
FFE00007FFFFFFFFF8
FFE00007FFFFFFFFF8
FFE00007FFFFFFFFF8
FFE00007FFFFFFFFF8
FFE00007FFFFFFFFF8
FFE00007FFFFFFFFF8
FFE00007FFFFFFFFF8
FFE00007FFFFFFFFF8
FFE000000000003FF8
FFF000000000003FF8
FFF000000000003FF8
7FF000000000003FF8
7FF000000000003FF8
7FF800000000003FF8
7FF800000000003FF8
3FFC00000000003FF8
3FFE00000000003FF8
1FFE00000000003FF8
1FFF00000000003FF8
1FFF80000000003FF8
0FFFC0000000003FF8
07FFF0000000003FF8
07FFF8000000003FF8
03FFFE000000003FF8
01FFFFE00000003FF8
01FFFFFFFFFFFFFFF8
00FFFFFFFFFFFFFFF8
007FFFFFFFFFFFFFF8
003FFFFFFFFFFFFFF8
000FFFFFFFFFFFFFF8
0007FFFFFFFFFFFFF8
0001FFFFFFFFFFFFF8
0000FFFFFFFFFFFFF8
00003FFFFFFFFFFFF8
000007FFFFFFFFFFF8
0000007FFFFFFFFFF8
ENDCHAR
STARTCHAR H
ENCODING 72
SWIDTH 838 0
DWIDTH 74 0
BBX 62 64 6 0
BITMAP
FFE0000000001FFC
FFE0000000001FFC
FFE0000000001FFC
FFE0000000001FFC
FFE0000000001FFC
FFE0000000001FFC
FFE0000000001FFC
FFE0000000001FFC
FFE0000000001FFC
FFE0000000001FFC
FFE0000000001FFC
FFE0000000001FFC
FFE0000000001FFC
FFE0000000001FFC
FFE0000000001FFC
FFE0000000001FFC
FFE0000000001FFC
FFE0000000001FFC
FFE0000000001FFC
FFE0000000001FFC
FFE0000000001FFC
FFE0000000001FFC
FFE0000000001FFC
FFE0000000001FFC
FFE0000000001FFC
FFE0000000001FFC
FFE01FFFFFFFFFFC
FFE01FFFFFFFFFFC
FFE01FFFFFFFFFFC
FFE01FFFFFFFFFFC
FFE01FFFFFFFFFFC
FFE01FFFFFFFFFFC
FFE01FFFFFFFFFFC
FFE01FFFFFFFFFFC
FFE01FFFFFFFFFFC
FFE01FFFFFFFFFFC
FFE0000000001FFC
FFE0000000001FFC
FFE0000000001FFC
FFE0000000001FFC
FFE0000000001FFC
FFE0000000001FFC
FFE0000000001FFC
FFE0000000001FFC
FFE0000000001FFC
FFE0000000001FFC
FFE0000000001FFC
FFE0000000001FFC
FFE0000000001FFC
FFE0000000001FFC
FFE0000000001FFC
FFE0000000001FFC
FFE0000000001FFC
FFE0000000001FFC
FFE0000000001FFC
FFE0000000001FFC
FFE0000000001FFC
FFE0000000001FFC
FFE0000000001FFC
FFE0000000001FFC
FFE0000000001FFC
FFE0000000001FFC
FFE0000000001FFC
FFE0000000001FFC
ENDCHAR
STARTCHAR I
ENCODING 73
SWIDTH 267 0
DWIDTH 24 0
BBX 11 64 6 0
BITMAP
FFE0
FFE0
FFE0
FFE0
FFE0
FFE0
FFE0
FFE0
FFE0
FFE0
FFE0
FFE0
FFE0
FFE0
FFE0
FFE0
FFE0
FFE0
FFE0
FFE0
FFE0
FFE0
FFE0
FFE0
FFE0
FFE0
FFE0
FFE0
FFE0
FFE0
FFE0
FFE0
FFE0
FFE0
FFE0
FFE0
FFE0
FFE0
FFE0
FFE0
FFE0
FFE0
FFE0
FFE0
FFE0
FFE0
FFE0
FFE0
FFE0
FFE0
FFE0
FFE0
FFE0
FFE0
FFE0
FFE0
FFE0
FFE0
FFE0
FFE0
FFE0
FFE0
FFE0
FFE0
ENDCHAR
STARTCHAR J
ENCODING 74
SWIDTH 708 0
DWIDTH 62 0
BBX 56 64 2 0
BITMAP
000000000007FF
000000000007FF
000000000007FF
000000000007FF
000000000007FF
000000000007FF
000000000007FF
000000000007FF
000000000007FF
000000000007FF
000000000007FF
000000000007FF
000000000007FF
000000000007FF
000000000007FF
000000000007FF
000000000007FF
000000000007FF
000000000007FF
000000000007FF
000000000007FF
000000000007FF
000000000007FF
000000000007FF
000000000007FF
000000000007FF
000000000007FF
000000000007FF
000000000007FF
000000000007FF
000000000007FF
000000000007FF
000000000007FF
000000000007FF
000000000007FF
000000000007FF
00000000000FFF
00000000000FFF
00000000000FFF
00000000000FFF
00000000000FFE
00000000000FFE
00000000001FFE
00000000001FFE
00000000001FFE
00000000003FFC
00000000007FFC
00000000007FFC
0000000000FFFC
0000000003FFF8
0000000007FFF8
000000003FFFF0
00000007FFFFF0
FFFFFFFFFFFFE0
FFFFFFFFFFFFC0
FFFFFFFFFFFF80
FFFFFFFFFFFF00
FFFFFFFFFFFE00
FFFFFFFFFFFC00
FFFFFFFFFFF000
FFFFFFFFFFE000
FFFFFFFFFF0000
FFFFFFFFF80000
FFFFFFFF000000
ENDCHAR
STARTCHAR K
ENCODING 75
SWIDTH 875 0
DWIDTH 77 0
BBX 69 64 6 0
BITMAP
FFE0000000003FFFF0
FFE0000000007FFFC0
FFE000000000FFFF80
FFE000000003FFFE00
FFE000000007FFFC00
FFE00000000FFFF800
FFE00000003FFFE000
FFE00000007FFFC000
FFE0000000FFFF8000
FFE0000003FFFE0000
FFE0000007FFFC0000
FFE000000FFFF80000
FFE000001FFFE00000
FFE000007FFFC00000
FFE00000FFFF800000
FFE00001FFFE000000
FFE00007FFFC000000
FFE0000FFFF8000000
FFE0001FFFE0000000
FFE0007FFFC0000000
FFE000FFFF80000000
FFE001FFFE00000000
FFE003FFFC00000000
FFE00FFFF800000000
FFE01FFFE000000000
FFE03FFFC000000000
FFE0FFFF8000000000
FFE1FFFE0000000000
FFE1FFFC0000000000
FFE3FFF00000000000
FFE3FFE00000000000
FFE3FFC00000000000
FFE3FFF00000000000
FFE1FFF80000000000
FFE1FFFC0000000000
FFE0FFFF0000000000
FFE07FFF8000000000
FFE01FFFC000000000
FFE00FFFF000000000
FFE007FFF800000000
FFE003FFFC00000000
FFE000FFFF00000000
FFE0007FFF80000000
FFE0003FFFC0000000
FFE0001FFFF0000000
FFE00007FFF8000000
FFE00003FFFC000000
FFE00001FFFF000000
FFE000007FFF800000
FFE000003FFFC00000
FFE000001FFFF00000
FFE000000FFFF80000
FFE0000003FFFC0000
FFE0000001FFFF0000
FFE0000000FFFF8000
FFE00000007FFFC000
FFE00000001FFFE000
FFE00000000FFFF800
FFE000000007FFFC00
FFE000000001FFFE00
FFE000000000FFFF80
FFE0000000007FFFC0
FFE0000000003FFFE0
FFE0000000000FFFF8
ENDCHAR
STARTCHAR L
ENCODING 76
SWIDTH 707 0
DWIDTH 62 0
BBX 54 64 6 0
BITMAP
FFE00000000000
FFE00000000000
FFE00000000000
FFE00000000000
FFE00000000000
FFE00000000000
FFE00000000000
FFE00000000000
FFE00000000000
FFE00000000000
FFE00000000000
FFE00000000000
FFE00000000000
FFE00000000000
FFE00000000000
FFE00000000000
FFE00000000000
FFE00000000000
FFE00000000000
FFE00000000000
FFE00000000000
FFE00000000000
FFE00000000000
FFE00000000000
FFE00000000000
FFE00000000000
FFE00000000000
FFE00000000000
FFE00000000000
FFE00000000000
FFE00000000000
FFE00000000000
FFE00000000000
FFE00000000000
FFE00000000000
FFE00000000000
FFE00000000000
FFE00000000000
FFE00000000000
FFE00000000000
FFE00000000000
FFE00000000000
FFE00000000000
FFE00000000000
FFE00000000000
FFE00000000000
FFE00000000000
FFE00000000000
FFE00000000000
FFE00000000000
FFE00000000000
FFE00000000000
FFE00000000000
FFFFFFFFFFFFFC
FFFFFFFFFFFFFC
FFFFFFFFFFFFFC
FFFFFFFFFFFFFC
FFFFFFFFFFFFFC
FFFFFFFFFFFFFC
FFFFFFFFFFFFFC
FFFFFFFFFFFFFC
FFFFFFFFFFFFFC
FFFFFFFFFFFFFC
FFFFFFFFFFFFFC
ENDCHAR
STARTCHAR M
ENCODING 77
SWIDTH 1115 0
DWIDTH 98 0
BBX 94 65 2 -1
BITMAP
00000F800000000003E00000
00003FC00000000007F00000
00007FE0000000000FF80000
00007FF0000000001FFC0000
00007FF0000000001FFC0000
0000FFF8000000003FFC0000
0000FFF8000000003FFC0000
0000FFF8000000003FFE0000
0001FFFC000000007FFE0000
0001FFFC000000007FFE0000
0001FFFE00000000FFFF0000
0001FFFE00000000FFFF0000
0003FFFF00000001FFFF0000
0003FFFF00000001FFFF0000
0003FFFF00000003FFFF8000
0003FFFF80000003FFFF8000
0007FFFF80000003FFFF8000
0007FFFFC0000007FFFF8000
0007FFFFC0000007FFFFC000
000FFFFFE000000FFFFFC000
000FFEFFE000000FFFFFC000
000FFEFFF000001FFDFFE000
000FFE7FF000001FFCFFE000
001FFC7FF000003FF8FFE000
001FFC7FF800003FF8FFE000
001FFC3FF800003FF07FF000
003FF83FFC00007FF07FF000
003FF81FFC00007FF07FF000
003FF81FFE0000FFE07FF000
003FF80FFE0000FFE03FF800
007FF00FFF0001FFC03FF800
007FF007FF0001FFC03FF800
007FF007FF0003FF803FFC00
007FF007FF8003FF801FFC00
00FFE003FF8003FF001FFC00
00FFE003FFC007FF001FFC00
00FFE001FFC007FF000FFE00
01FFC001FFE00FFE000FFE00
01FFC000FFE00FFE000FFE00
01FFC000FFE01FFC000FFF00
01FFC000FFF01FFC0007FF00
03FF80007FF01FF80007FF00
03FF80007FF83FF80007FF00
03FF80003FF83FF00003FF80
07FF80003FFC7FF00003FF80
07FF00001FFC7FF00003FF80
07FF00001FFEFFE00003FF80
07FF00000FFEFFE00001FFC0
0FFE00000FFFFFC00001FFC0
0FFE00000FFFFFC00001FFC0
0FFE000007FFFF800001FFE0
0FFE000007FFFF800000FFE0
1FFC000003FFFF800000FFE0
1FFC000003FFFF000000FFE0
1FFC000001FFFF0000007FF0
3FF8000001FFFE0000007FF0
3FF8000001FFFE0000007FF0
3FF8000000FFFC0000007FF0
3FF8000000FFFC0000003FF8
7FF00000007FF80000003FF8
7FF00000007FF80000003FF8
7FF00000003FF00000003FFC
7FF00000003FF00000001FFC
FFE00000001FE00000001FFC
000000000007800000000000
ENDCHAR
STARTCHAR N
ENCODING 78
SWIDTH 873 0
DWIDTH 77 0
BBX 67 64 5 0
BITMAP
0F000000000000FFE0
3FC00000000000FFE0
7FE00000000000FFE0
7FF00000000000FFE0
FFF80000000000FFE0
FFFC0000000000FFE0
FFFE0000000000FFE0
FFFF0000000000FFE0
FFFF8000000000FFE0
FFFFC000000000FFE0
FFFFE000000000FFE0
FFFFF000000000FFE0
FFFFF800000000FFE0
FFFFFC00000000FFE0
FFFFFE00000000FFE0
FFFFFF00000000FFE0
FFFFFF80000000FFE0
FFFFFFC0000000FFE0
FFEFFFE0000000FFE0
FFE7FFF0000000FFE0
FFE3FFF8000000FFE0
FFE1FFFC000000FFE0
FFE0FFFE000000FFE0
FFE07FFF000000FFE0
FFE03FFF800000FFE0
FFE01FFFC00000FFE0
FFE00FFFE00000FFE0
FFE007FFF00000FFE0
FFE003FFF80000FFE0
FFE001FFFE0000FFE0
FFE000FFFE0000FFE0
FFE0007FFF8000FFE0
FFE0003FFFC000FFE0
FFE0001FFFE000FFE0
FFE0000FFFF000FFE0
FFE00007FFF800FFE0
FFE00003FFFC00FFE0
FFE00001FFFE00FFE0
FFE00000FFFF00FFE0
FFE000007FFF80FFE0
FFE000003FFFC0FFE0
FFE000001FFFE0FFE0
FFE000000FFFF0FFE0
FFE0000007FFF8FFE0
FFE0000003FFFCFFE0
FFE0000001FFFEFFE0
FFE0000000FFFFFFE0
FFE00000007FFFFFE0
FFE00000003FFFFFE0
FFE00000001FFFFFE0
FFE00000000FFFFFE0
FFE000000007FFFFE0
FFE000000003FFFFE0
FFE000000001FFFFE0
FFE0000000007FFFE0
FFE0000000007FFFE0
FFE0000000001FFFE0
FFE0000000000FFFE0
FFE00000000007FFC0
FFE00000000003FFC0
FFE00000000001FFC0
FFE00000000000FFC0
FFE000000000007F80
FFE000000000003E00
ENDCHAR
STARTCHAR O
ENCODING 79
SWIDTH 968 0
DWIDTH 85 0
BBX 78 64 4 0
BITMAP
0000007FFFFFF8000000
000007FFFFFFFF800000
00003FFFFFFFFFF00000
0000FFFFFFFFFFFC0000
0003FFFFFFFFFFFF0000
000FFFFFFFFFFFFF8000
001FFFFFFFFFFFFFC000
003FFFFFFFFFFFFFF000
007FFFFFFFFFFFFFF800
00FFFFFFFFFFFFFFFC00
01FFFFFFFFFFFFFFFE00
03FFFFE000003FFFFE00
07FFFE00000003FFFF00
07FFF800000000FFFF80
0FFFF0000000003FFF80
1FFFC0000000001FFFC0
1FFF80000000000FFFC0
3FFF000000000007FFE0
3FFE000000000003FFE0
3FFC000000000001FFF0
7FFC000000000001FFF0
7FF8000000000000FFF0
7FF80000000000007FF8
FFF00000000000007FF8
FFF00000000000007FF8
FFF00000000000003FF8
FFE00000000000003FF8
FFE00000000000003FF8
FFE00000000000003FFC
FFE00000000000003FFC
FFE00000000000003FFC
FFE00000000000003FFC
FFE00000000000003FFC
FFE00000000000003FFC
FFE00000000000003FFC
FFE00000000000003FF8
FFE00000000000003FF8
FFF00000000000003FF8
FFF00000000000003FF8
7FF00000000000007FF8
7FF00000000000007FF8
7FF8000000000000FFF0
7FF8000000000000FFF0
3FFC000000000001FFF0
3FFE000000000001FFE0
1FFE000000000003FFE0
1FFF000000000007FFC0
1FFF80000000000FFFC0
0FFFC0000000001FFF80
07FFF0000000003FFF80
07FFF800000000FFFF00
03FFFE00000003FFFE00
01FFFFE000003FFFFE00
01FFFFFFFFFFFFFFFC00
00FFFFFFFFFFFFFFF800
007FFFFFFFFFFFFFF000
003FFFFFFFFFFFFFE000
000FFFFFFFFFFFFFC000
0007FFFFFFFFFFFF0000
0001FFFFFFFFFFFE0000
0000FFFFFFFFFFF80000
00003FFFFFFFFFE00000
000007FFFFFFFF000000
0000007FFFFFF0000000
ENDCHAR
STARTCHAR P
ENCODING 80
SWIDTH 867 0
DWIDTH 76 0
BBX 68 64 6 0
BITMAP
FFFFFFFFFFFFC00000
FFFFFFFFFFFFFC0000
FFFFFFFFFFFFFF0000
FFFFFFFFFFFFFFC000
FFFFFFFFFFFFFFF000
FFFFFFFFFFFFFFF800
FFFFFFFFFFFFFFFC00
FFFFFFFFFFFFFFFE00
FFFFFFFFFFFFFFFF00
FFFFFFFFFFFFFFFF00
FFFFFFFFFFFFFFFF80
FFE000000000FFFFC0
FFE0000000001FFFC0
FFE00000000007FFC0
FFE00000000003FFE0
FFE00000000001FFE0
FFE00000000001FFE0
FFE00000000000FFE0
FFE00000000000FFF0
FFE000000000007FF0
FFE000000000007FF0
FFE000000000007FF0
FFE000000000007FF0
FFE000000000007FF0
FFE000000000007FF0
FFE000000000007FF0
FFE000000000007FF0
FFE00000000000FFF0
FFE00000000000FFE0
FFE00000000001FFE0
FFE00000000001FFE0
FFE00000000003FFE0
FFE00000000007FFC0
FFE0000000001FFFC0
FFE0000000007FFF80
FFE01FFFFFFFFFFF80
FFE01FFFFFFFFFFF00
FFE01FFFFFFFFFFF00
FFE01FFFFFFFFFFE00
FFE01FFFFFFFFFFC00
FFE01FFFFFFFFFF800
FFE01FFFFFFFFFF000
FFE01FFFFFFFFFC000
FFE01FFFFFFFFF0000
FFE01FFFFFFFFC0000
FFE01FFFFFFFE00000
FFE000000000000000
FFE000000000000000
FFE000000000000000
FFE000000000000000
FFE000000000000000
FFE000000000000000
FFE000000000000000
FFE000000000000000
FFE000000000000000
FFE000000000000000
FFE000000000000000
FFE000000000000000
FFE000000000000000
FFE000000000000000
FFE000000000000000
FFE000000000000000
FFE000000000000000
FFE000000000000000
ENDCHAR
STARTCHAR Q
ENCODING 81
SWIDTH 968 0
DWIDTH 85 0
BBX 81 64 4 0
BITMAP
0000007FFFFFF800000000
000007FFFFFFFF80000000
00003FFFFFFFFFF0000000
0000FFFFFFFFFFFC000000
0003FFFFFFFFFFFF000000
000FFFFFFFFFFFFF800000
001FFFFFFFFFFFFFC00000
003FFFFFFFFFFFFFF00000
007FFFFFFFFFFFFFF80000
00FFFFFFFFFFFFFFFC0000
01FFFFFFFFFFFFFFFE0000
03FFFFE000003FFFFE0000
07FFFE00000003FFFF0000
07FFF800000000FFFF8000
0FFFF0000000003FFF8000
1FFFC0000000001FFFC000
1FFF80000000000FFFC000
3FFF000000000007FFE000
3FFE000000000003FFE000
3FFC000000000001FFF000
7FFC000000000001FFF000
7FF8000000000000FFF000
7FF80000000000007FF800
FFF00000000000007FF800
FFF00000000000007FF800
FFF00000000000003FF800
FFE00000000000003FF800
FFE00000000000003FF800
FFE00000000000003FFC00
FFE00000000000003FFC00
FFE00000000000003FFC00
FFE00000000000003FFC00
FFE00000000000003FFC00
FFE00000000000003FFC00
FFE00000000000003FFC00
FFE00000000000003FF800
FFE00000000000003FF800
FFF00000400000003FF800
FFF000003FFF80003FF800
7FF000000FFFC0007FF800
7FF0000007FFF0007FF800
7FF8000003FFF800FFF000
7FF8000000FFFC00FFF000
3FFC0000007FFE01FFF000
3FFE0000003FFF01FFE000
1FFE0000001FFFC3FFE000
1FFF00000007FFE7FFC000
1FFF80000003FFFFFFC000
0FFFC0000001FFFFFF8000
07FFF00000007FFFFF8000
07FFF80000003FFFFF0000
03FFFE0000001FFFFE0000
01FFFFE000003FFFFE0000
01FFFFFFFFFFFFFFFC0000
00FFFFFFFFFFFFFFF80000
007FFFFFFFFFFFFFFC0000
003FFFFFFFFFFFFFFE0000
000FFFFFFFFFFFFFFF0000
0007FFFFFFFFFFFFFFC000
0001FFFFFFFFFFFFFFE000
0000FFFFFFFFFFFBFFF000
00003FFFFFFFFFE1FFFC00
000007FFFFFFFF00FFFE00
0000007FFFFFF0007FFF80
ENDCHAR
STARTCHAR R
ENCODING 82
SWIDTH 921 0
DWIDTH 81 0
BBX 75 64 6 0
BITMAP
FFFFFFFFFFFFE0000000
FFFFFFFFFFFFFE000000
FFFFFFFFFFFFFF800000
FFFFFFFFFFFFFFE00000
FFFFFFFFFFFFFFF80000
FFFFFFFFFFFFFFFC0000
FFFFFFFFFFFFFFFE0000
FFFFFFFFFFFFFFFF0000
FFFFFFFFFFFFFFFF0000
FFFFFFFFFFFFFFFF8000
FFFFFFFFFFFFFFFFC000
FFE0000000007FFFC000
FFE0000000000FFFE000
FFE00000000003FFE000
FFE00000000001FFE000
FFE00000000000FFF000
FFE00000000000FFF000
FFE000000000007FF000
FFE000000000007FF000
FFE000000000007FF800
FFE000000000003FF800
FFE000000000003FF800
FFE000000000003FF800
FFE000000000003FF800
FFE000000000003FF800
FFE000000000003FF800
FFE000000000007FF800
FFE000000000007FF000
FFE000000000007FF000
FFE000000000007FF000
FFE00000000000FFF000
FFE00000000000FFF000
FFE00000000001FFE000
FFE00000000003FFE000
FFE0000000000FFFC000
FFE0000000003FFFC000
FFE01FFFFFFFFFFF8000
FFE01FFFFFFFFFFF8000
FFE01FFFFFFFFFFF0000
FFE01FFFFFFFFFFE0000
FFE01FFFFFFFFFFC0000
FFE01FFFFFFFFFF80000
FFE01FFFFFFFFFE00000
FFE01FFFFFFFFF800000
FFE01FFFFFFFFF000000
FFE01FFFFFFFFF800000
FFE00000001FFFC00000
FFE00000000FFFE00000
FFE000000007FFF00000
FFE000000003FFF80000
FFE000000001FFFC0000
FFE000000000FFFE0000
FFE0000000007FFF0000
FFE0000000007FFF8000
FFE0000000003FFFC000
FFE0000000001FFFC000
FFE0000000000FFFE000
FFE00000000007FFF000
FFE00000000003FFF800
FFE00000000001FFFC00
FFE00000000000FFFE00
FFE000000000007FFF00
FFE000000000003FFF80
FFE000000000003FFFE0
ENDCHAR
STARTCHAR S
ENCODING 83
SWIDTH 880 0
DWIDTH 77 0
BBX 68 64 5 0
BITMAP
0003FFFFFFFFFFFF80
003FFFFFFFFFFFFF80
00FFFFFFFFFFFFFF80
01FFFFFFFFFFFFFF80
07FFFFFFFFFFFFFF80
0FFFFFFFFFFFFFFF80
1FFFFFFFFFFFFFFF80
1FFFFFFFFFFFFFFF80
3FFFFFFFFFFFFFFF80
7FFFFFFFFFFFFFFF80
7FFFFFFFFFFFFFFF80
7FFF80000000000000
FFFC00000000000000
FFF800000000000000
FFF000000000000000
FFF000000000000000
FFE000000000000000
FFE000000000000000
FFE000000000000000
FFE000000000000000
FFE000000000000000
FFE000000000000000
FFF000000000000000
FFF000000000000000
7FF800000000000000
7FFC00000000000000
3FFF00000000000000
3FFFFFFFFFFFFC0000
1FFFFFFFFFFFFFC000
0FFFFFFFFFFFFFF000
0FFFFFFFFFFFFFFC00
07FFFFFFFFFFFFFE00
01FFFFFFFFFFFFFF00
00FFFFFFFFFFFFFF80
001FFFFFFFFFFFFFC0
0003FFFFFFFFFFFFC0
0000000000000FFFE0
00000000000001FFE0
00000000000000FFF0
000000000000007FF0
000000000000007FF0
000000000000007FF0
000000000000003FF0
000000000000003FF0
000000000000003FF0
000000000000003FF0
000000000000003FF0
000000000000007FF0
000000000000007FF0
00000000000000FFF0
00000000000001FFF0
00000000000003FFF0
0000000000001FFFE0
7FFFFFFFFFFFFFFFE0
7FFFFFFFFFFFFFFFC0
7FFFFFFFFFFFFFFFC0
7FFFFFFFFFFFFFFF80
7FFFFFFFFFFFFFFF80
7FFFFFFFFFFFFFFF00
7FFFFFFFFFFFFFFE00
7FFFFFFFFFFFFFF800
7FFFFFFFFFFFFFF000
7FFFFFFFFFFFFFC000
7FFFFFFFFFFFFC0000
ENDCHAR
STARTCHAR T
ENCODING 84
SWIDTH 720 0
DWIDTH 63 0
BBX 60 64 2 0
BITMAP
FFFFFFFFFFFFFFF0
FFFFFFFFFFFFFFF0
FFFFFFFFFFFFFFF0
FFFFFFFFFFFFFFF0
FFFFFFFFFFFFFFF0
FFFFFFFFFFFFFFF0
FFFFFFFFFFFFFFF0
FFFFFFFFFFFFFFF0
FFFFFFFFFFFFFFF0
FFFFFFFFFFFFFFF0
FFFFFFFFFFFFFFF0
000000FFE0000000
000000FFE0000000
000000FFE0000000
000000FFE0000000
000000FFE0000000
000000FFE0000000
000000FFE0000000
000000FFE0000000
000000FFE0000000
000000FFE0000000
000000FFE0000000
000000FFE0000000
000000FFE0000000
000000FFE0000000
000000FFE0000000
000000FFE0000000
000000FFE0000000
000000FFE0000000
000000FFE0000000
000000FFE0000000
000000FFE0000000
000000FFE0000000
000000FFE0000000
000000FFE0000000
000000FFE0000000
000000FFE0000000
000000FFE0000000
000000FFE0000000
000000FFE0000000
000000FFE0000000
000000FFE0000000
000000FFE0000000
000000FFE0000000
000000FFE0000000
000000FFE0000000
000000FFE0000000
000000FFE0000000
000000FFE0000000
000000FFE0000000
000000FFE0000000
000000FFE0000000
000000FFE0000000
000000FFE0000000
000000FFE0000000
000000FFE0000000
000000FFE0000000
000000FFE0000000
000000FFE0000000
000000FFE0000000
000000FFE0000000
000000FFE0000000
000000FFE0000000
000000FFE0000000
ENDCHAR
STARTCHAR U
ENCODING 85
SWIDTH 889 0
DWIDTH 78 0
BBX 69 65 5 -1
BITMAP
FFE000000000003FF8
FFE000000000003FF8
FFE000000000003FF8
FFE000000000003FF8
FFE000000000003FF8
FFE000000000003FF8
FFE000000000003FF8
FFE000000000003FF8
FFE000000000003FF8
FFE000000000003FF8
FFE000000000003FF8
FFE000000000003FF8
FFE000000000003FF8
FFE000000000003FF8
FFE000000000003FF8
FFE000000000003FF8
FFE000000000003FF8
FFE000000000003FF8
FFE000000000003FF8
FFE000000000003FF8
FFE000000000003FF8
FFE000000000003FF8
FFE000000000003FF8
FFE000000000003FF8
FFE000000000003FF8
FFE000000000003FF8
FFE000000000003FF8
FFE000000000003FF8
FFE000000000003FF8
FFE000000000003FF8
FFE000000000003FF8
FFE000000000003FF8
FFE000000000003FF8
FFE000000000003FF8
FFE000000000003FF8
FFE000000000003FF8
FFE000000000003FF8
FFE000000000003FF8
FFE000000000003FF8
FFE000000000007FF8
FFE000000000007FF0
FFF000000000007FF0
FFF000000000007FF0
FFF000000000007FF0
FFF00000000000FFF0
7FF80000000000FFF0
7FF80000000001FFE0
7FFC0000000001FFE0
7FFE0000000003FFE0
3FFF0000000007FFC0
3FFF800000001FFFC0
1FFFE00000003FFFC0
1FFFFC000001FFFF80
0FFFFFF0007FFFFF00
0FFFFFFFFFFFFFFF00
07FFFFFFFFFFFFFE00
03FFFFFFFFFFFFFC00
01FFFFFFFFFFFFF800
00FFFFFFFFFFFFF000
003FFFFFFFFFFFC000
001FFFFFFFFFFF8000
0007FFFFFFFFFE0000
0000FFFFFFFFF00000
00001FFFFFFF800000
0000007FFFE0000000
ENDCHAR
STARTCHAR V
ENCODING 86
SWIDTH 989 0
DWIDTH 87 0
BBX 85 65 1 -1
BITMAP
FFFC00000000000000FFF8
7FFE00000000000001FFF0
3FFE00000000000003FFE0
3FFF00000000000003FFE0
1FFF80000000000007FFC0
0FFF80000000000007FF80
0FFFC000000000000FFF80
07FFC000000000001FFF00
07FFE000000000001FFF00
03FFE000000000003FFE00
01FFF000000000003FFC00
01FFF800000000007FFC00
00FFF800000000007FF800
00FFFC0000000000FFF800
007FFC0000000001FFF000
003FFE0000000001FFE000
003FFF0000000003FFE000
001FFF0000000003FFC000
001FFF8000000007FFC000
000FFF800000000FFF8000
0007FFC00000000FFF0000
0007FFE00000001FFF0000
0003FFE00000001FFE0000
0003FFF00000003FFE0000
0001FFF00000007FFC0000
0000FFF80000007FF80000
0000FFF8000000FFF80000
00007FFC000000FFF00000
00007FFE000001FFF00000
00003FFE000001FFE00000
00003FFF000003FFC00000
00001FFF000007FFC00000
00000FFF800007FF800000
00000FFFC0000FFF800000
000007FFC0000FFF000000
000007FFE0001FFE000000
000003FFE0003FFE000000
000001FFF0003FFC000000
000001FFF8007FFC000000
000000FFF8007FF8000000
0000007FFC00FFF0000000
0000007FFC00FFF0000000
0000003FFE01FFE0000000
0000003FFE03FFE0000000
0000001FFF03FFC0000000
0000001FFF87FF80000000
0000000FFF87FF80000000
00000007FFCFFF00000000
00000007FFDFFF00000000
00000003FFFFFE00000000
00000003FFFFFC00000000
00000001FFFFFC00000000
00000000FFFFF800000000
00000000FFFFF800000000
000000007FFFF000000000
000000007FFFE000000000
000000003FFFE000000000
000000001FFFC000000000
000000001FFFC000000000
000000000FFF8000000000
000000000FFF0000000000
0000000007FF0000000000
0000000003FE0000000000
0000000001FC0000000000
0000000000F80000000000
ENDCHAR
STARTCHAR W
ENCODING 87
SWIDTH 1268 0
DWIDTH 112 0
BBX 109 65 1 -1
BITMAP
FFFC00007FFC000000000000FFF8
7FFC00007FFE000000000000FFF0
3FFE00003FFE000000000001FFF0
3FFE00003FFF000000000001FFE0
1FFF00001FFF000000000003FFE0
1FFF00001FFF800000000003FFC0
0FFF80000FFF800000000007FFC0
0FFFC0000FFFC00000000007FF80
07FFC00007FFC0000000000FFF80
07FFE00007FFE0000000000FFF00
03FFE00003FFE0000000001FFF00
03FFF00001FFF0000000001FFE00
01FFF00001FFF0000000003FFE00
01FFF80000FFF8000000003FFC00
00FFF80000FFF8000000007FF800
007FFC00007FFC000000007FF800
007FFC00007FFC00000000FFF000
003FFE00003FFE00000000FFF000
003FFE00003FFE00000001FFE000
001FFF00001FFF00000003FFE000
001FFF00001FFF00000003FFC000
000FFF80000FFF80000007FFC000
000FFF80000FFF80000007FF8000
0007FFC00007FFC000000FFF8000
0007FFC00007FFC000000FFF0000
0003FFE00003FFE000001FFF0000
0001FFF00003FFE000001FFE0000
0001FFF00001FFF000003FFC0000
0000FFF80001FFF000003FFC0000
0000FFF80000FFF800007FF80000
00007FFC0000FFF800007FF80000
00007FFC00007FFC0000FFF00000
00003FFE00007FFC0000FFF00000
00003FFE0000FFFE0001FFE00000
00001FFF0000FFFE0001FFE00000
00001FFF0001FFFF0003FFC00000
00000FFF8001FFFF0007FFC00000
00000FFF8003FFFF8007FF800000
000007FFC007FFFF800FFF800000
000007FFC007FFFFC00FFF000000
000003FFE00FFFFFC01FFE000000
000001FFE00FFFFFE01FFE000000
000001FFF01FFFFFE03FFC000000
000000FFF01FFDFFF03FFC000000
000000FFF83FFCFFF07FF8000000
0000007FF83FF8FFF87FF8000000
0000007FFC7FF87FF8FFF0000000
0000003FFEFFF07FFCFFF0000000
0000003FFEFFF03FFDFFE0000000
0000001FFFFFE03FFFFFE0000000
0000001FFFFFE01FFFFFC0000000
0000000FFFFFC01FFFFFC0000000
0000000FFFFFC00FFFFF80000000
00000007FFFF800FFFFF00000000
00000003FFFF8007FFFF00000000
00000003FFFF0007FFFE00000000
00000001FFFF0003FFFE00000000
00000001FFFE0001FFFC00000000
00000000FFFC0001FFFC00000000
00000000FFFC0000FFF800000000
000000007FF80000FFF800000000
000000007FF800007FF000000000
000000003FF000007FE000000000
000000001FE000003FE000000000
000000000FC000000F8000000000
ENDCHAR
STARTCHAR X
ENCODING 88
SWIDTH 1000 0
DWIDTH 88 0
BBX 84 64 2 0
BITMAP
3FFFC000000000003FFF80
0FFFE000000000007FFE00
07FFF00000000000FFFC00
03FFF80000000001FFF800
01FFFC0000000003FFF000
00FFFE0000000007FFE000
007FFF000000000FFFC000
003FFFC00000001FFF8000
001FFFE00000003FFF0000
000FFFF00000007FFE0000
0007FFF8000000FFFC0000
0003FFFC000001FFF80000
0001FFFE000003FFF00000
0000FFFF00000FFFE00000
00007FFF80001FFFC00000
00003FFFC0003FFF800000
00001FFFE0007FFF000000
000007FFF000FFFE000000
000003FFF801FFFC000000
000001FFFC03FFF8000000
000000FFFE07FFE0000000
0000007FFF0FFFC0000000
0000003FFF9FFF80000000
0000001FFFFFFF00000000
0000000FFFFFFE00000000
00000007FFFFFC00000000
00000003FFFFF800000000
00000001FFFFF000000000
00000000FFFFE000000000
000000007FFFC000000000
000000003FFF8000000000
000000007FFFC000000000
00000000FFFFE000000000
00000001FFFFF000000000
00000003FFFFF800000000
00000007FFFFFC00000000
0000000FFFFFFE00000000
0000001FFFFFFF00000000
0000003FFF3FFF80000000
0000007FFE1FFFC0000000
000000FFFC0FFFE0000000
000001FFF807FFF0000000
000003FFF003FFF8000000
000007FFE001FFFC000000
00000FFFC000FFFE000000
00001FFF80007FFF000000
00003FFF00003FFF800000
00007FFE00001FFFC00000
0000FFFC00000FFFE00000
0001FFF8000007FFF00000
0003FFF0000003FFF80000
0007FFE0000001FFFE0000
000FFFC0000000FFFF0000
001FFF800000007FFF8000
003FFF000000003FFFC000
007FFE000000001FFFE000
00FFFC000000000FFFF000
01FFF80000000007FFF800
03FFF00000000003FFFC00
07FFE00000000001FFFE00
0FFFC00000000000FFFF00
3FFF8000000000007FFF80
7FFF0000000000003FFFC0
FFFE0000000000001FFFF0
ENDCHAR
STARTCHAR Y
ENCODING 89
SWIDTH 926 0
DWIDTH 81 0
BBX 79 64 1 0
BITMAP
FFFF0000000000007FFE
7FFF000000000000FFFC
3FFF800000000001FFF8
1FFFC00000000003FFF0
0FFFE00000000007FFF0
07FFF0000000000FFFE0
03FFF8000000000FFFC0
01FFFC000000001FFF80
01FFFC000000003FFF00
00FFFE000000007FFE00
007FFF00000000FFFC00
003FFF80000001FFFC00
001FFFC0000003FFF800
000FFFE0000003FFF000
0007FFE0000007FFE000
0007FFF000000FFFC000
0003FFF800001FFF8000
0001FFFC00003FFF0000
0000FFFE00007FFF0000
00007FFF00007FFE0000
00003FFF8000FFFC0000
00001FFF8001FFF80000
00001FFFC003FFF00000
00000FFFE007FFE00000
000007FFF00FFFC00000
000003FFF81FFF800000
000001FFFC1FFF800000
000000FFFC3FFF000000
0000007FFE7FFE000000
0000007FFFFFFC000000
0000003FFFFFF8000000
0000001FFFFFF0000000
0000000FFFFFE0000000
00000007FFFFE0000000
00000003FFFFC0000000
00000003FFFF80000000
00000001FFFF00000000
00000000FFFE00000000
000000007FFC00000000
000000003FF800000000
000000003FF800000000
000000003FF800000000
000000003FF800000000
000000003FF800000000
000000003FF800000000
000000003FF800000000
000000003FF800000000
000000003FF800000000
000000003FF800000000
000000003FF800000000
000000003FF800000000
000000003FF800000000
000000003FF800000000
000000003FF800000000
000000003FF800000000
000000003FF800000000
000000003FF800000000
000000003FF800000000
000000003FF800000000
000000003FF800000000
000000003FF800000000
000000003FF800000000
000000003FF800000000
000000003FF800000000
ENDCHAR
STARTCHAR Z
ENCODING 90
SWIDTH 802 0
DWIDTH 71 0
BBX 63 64 4 0
BITMAP
FFFFFFFFFFFFFFE0
FFFFFFFFFFFFFFF8
FFFFFFFFFFFFFFFC
FFFFFFFFFFFFFFFC
FFFFFFFFFFFFFFFE
FFFFFFFFFFFFFFFE
FFFFFFFFFFFFFFFE
FFFFFFFFFFFFFFFC
FFFFFFFFFFFFFFFC
FFFFFFFFFFFFFFF8
FFFFFFFFFFFFFFF0
00000000000FFFE0
00000000001FFFC0
00000000003FFF80
00000000007FFF00
0000000000FFFE00
0000000001FFFC00
0000000003FFF800
0000000007FFF000
000000000FFFE000
000000001FFFC000
000000003FFF8000
000000007FFF0000
00000000FFFE0000
00000001FFFC0000
00000003FFF80000
00000007FFF00000
0000000FFFE00000
0000001FFFC00000
0000003FFF800000
0000007FFF000000
000000FFFE000000
000001FFFC000000
000003FFF8000000
000007FFF0000000
00000FFFE0000000
00001FFFC0000000
00003FFF80000000
00007FFF00000000
0000FFFE00000000
0001FFFC00000000
0003FFF800000000
0007FFF000000000
000FFFE000000000
001FFFC000000000
003FFF8000000000
007FFF0000000000
00FFFE0000000000
01FFFC0000000000
03FFF80000000000
07FFF00000000000
0FFFE00000000000
1FFFC00000000000
3FFFFFFFFFFFFFFC
7FFFFFFFFFFFFFFC
FFFFFFFFFFFFFFFC
FFFFFFFFFFFFFFFC
FFFFFFFFFFFFFFFC
FFFFFFFFFFFFFFFC
FFFFFFFFFFFFFFFC
FFFFFFFFFFFFFFFC
FFFFFFFFFFFFFFFC
7FFFFFFFFFFFFFFC
1FFFFFFFFFFFFFFC
ENDCHAR
STARTCHAR bracketleft
ENCODING 91
SWIDTH 333 0
DWIDTH 29 0
BBX 15 80 9 -8
BITMAP
FFFE
FFFE
FFFE
FFFE
FFFE
FFFE
FFFE
FE00
FE00
FE00
FE00
FE00
FE00
FE00
FE00
FE00
FE00
FE00
FE00
FE00
FE00
FE00
FE00
FE00
FE00
FE00
FE00
FE00
FE00
FE00
FE00
FE00
FE00
FE00
FE00
FE00
FE00
FE00
FE00
FE00
FE00
FE00
FE00
FE00
FE00
FE00
FE00
FE00
FE00
FE00
FE00
FE00
FE00
FE00
FE00
FE00
FE00
FE00
FE00
FE00
FE00
FE00
FE00
FE00
FE00
FE00
FE00
FE00
FE00
FE00
FE00
FE00
FE00
FFFE
FFFE
FFFE
FFFE
FFFE
FFFE
FFFE
ENDCHAR
STARTCHAR backslash
ENCODING 92
SWIDTH 445 0
DWIDTH 39 0
BBX 37 64 1 0
BITMAP
FF00000000
7F00000000
7F00000000
7F80000000
3F80000000
3FC0000000
1FC0000000
1FE0000000
0FE0000000
0FF0000000
07F0000000
07F8000000
03F8000000
03FC000000
01FC000000
01FE000000
00FE000000
00FE000000
00FF000000
007F000000
007F800000
003F800000
003FC00000
001FC00000
001FE00000
000FE00000
000FF00000
0007F00000
0007F80000
0003F80000
0003FC0000
0003FC0000
0001FE0000
0001FE0000
0000FE0000
0000FF0000
00007F0000
00007F8000
00003F8000
00003FC000
00001FC000
00001FE000
00000FE000
00000FF000
00000FF000
000007F800
000007F800
000003FC00
000003FC00
000001FC00
000001FE00
000000FE00
000000FF00
0000007F00
0000007F80
0000003F80
0000003FC0
0000001FC0
0000001FE0
0000001FE0
0000000FF0
0000000FF0
00000007F8
00000007F8
ENDCHAR
STARTCHAR bracketright
ENCODING 93
SWIDTH 333 0
DWIDTH 29 0
BBX 15 80 6 -8
BITMAP
FFFE
FFFE
FFFE
FFFE
FFFE
FFFE
FFFE
01FE
01FE
01FE
01FE
01FE
01FE
01FE
01FE
01FE
01FE
01FE
01FE
01FE
01FE
01FE
01FE
01FE
01FE
01FE
01FE
01FE
01FE
01FE
01FE
01FE
01FE
01FE
01FE
01FE
01FE
01FE
01FE
01FE
01FE
01FE
01FE
01FE
01FE
01FE
01FE
01FE
01FE
01FE
01FE
01FE
01FE
01FE
01FE
01FE
01FE
01FE
01FE
01FE
01FE
01FE
01FE
01FE
01FE
01FE
01FE
01FE
01FE
01FE
01FE
01FE
01FE
FFFE
FFFE
FFFE
FFFE
FFFE
FFFE
FFFE
ENDCHAR
STARTCHAR asciicircum
ENCODING 94
SWIDTH 559 0
DWIDTH 49 0
BBX 38 39 6 25
BITMAP
0000780000
0001FC0000
0001FE0000
0003FE0000
0003FE0000
0003FF0000
0007FF0000
0007FF8000
000FFF8000
000FFFC000
001FDFC000
001FDFC000
001F8FE000
003F8FE000
003F87F000
007F07F000
007F07F000
00FE03F800
00FE03F800
00FE01FC00
01FC01FC00
01FC01FE00
03F800FE00
03F800FE00
07F8007F00
07F0007F00
07F0007F80
0FE0003F80
0FE0003F80
1FE0001FC0
1FC0001FC0
3FC0001FE0
3F80000FE0
3F80000FF0
7F80000FF0
7F000007F0
FF000007F8
FE000003F8
FE000003FC
ENDCHAR
STARTCHAR underscore
ENCODING 95
SWIDTH 668 0
DWIDTH 59 0
BBX 59 5 0 -14
BITMAP
FFFFFFFFFFFFFFE0
FFFFFFFFFFFFFFE0
FFFFFFFFFFFFFFE0
FFFFFFFFFFFFFFE0
FFFFFFFFFFFFFFE0
ENDCHAR
STARTCHAR grave
ENCODING 96
SWIDTH 362 0
DWIDTH 32 0
BBX 22 12 5 68
BITMAP
800000
F00000
FE0000
FFC000
FFFC00
FFFF80
FFFFF8
7FFFFC
03FFFC
003FFC
0001FC
00000C
ENDCHAR
STARTCHAR a
ENCODING 97
SWIDTH 989 0
DWIDTH 87 0
BBX 85 65 1 0
BITMAP
0000000000F80000000000
0000000001FC0000000000
0000000003FE0000000000
0000000007FF0000000000
000000000FFF0000000000
000000000FFF8000000000
000000001FFFC000000000
000000001FFFC000000000
000000003FFFE000000000
000000007FFFE000000000
000000007FFFF000000000
00000000FFFFF800000000
00000000FFFFF800000000
00000001FFFFFC00000000
00000003FFFFFC00000000
00000003FFFFFE00000000
00000007FFFFFF00000000
00000007FF9FFF00000000
0000000FFF9FFF80000000
0000001FFF0FFF80000000
0000001FFE07FFC0000000
0000003FFE07FFE0000000
0000003FFC03FFE0000000
0000007FFC03FFF0000000
000000FFF801FFF0000000
000000FFF000FFF8000000
000001FFF000FFFC000000
000001FFE0007FFC000000
000003FFE0007FFE000000
000007FFC0003FFE000000
000007FF80001FFF000000
00000FFF80001FFF800000
00000FFF00000FFF800000
00001FFF00000FFFC00000
00003FFE000007FFC00000
00003FFE000003FFE00000
00007FFC000003FFF00000
00007FF8000001FFF00000
0000FFF8000001FFF80000
0001FFF0000000FFF80000
0001FFF00FFFFFFFFC0000
0003FFE00FFFFFFFFE0000
0003FFC01FFFFFFFFE0000
0007FFC01FFFFFFFFF0000
000FFF803FFFFFFFFF0000
000FFF807FFFFFFFFF8000
001FFF007FFFFFFFFFC000
001FFE00FFFFFFFFFFC000
003FFE01FFFFFFFFFFE000
003FFC0000000003FFE000
007FFC0000000001FFF000
00FFF80000000001FFF800
00FFF00000000000FFF800
01FFF00000000000FFFC00
01FFE000000000007FFC00
03FFE000000000003FFE00
07FFC000000000003FFF00
07FF8000000000001FFF00
0FFF8000000000001FFF80
0FFF0000000000000FFF80
1FFF00000000000007FFC0
3FFE00000000000007FFE0
3FFC00000000000003FFE0
7FFC00000000000003FFF0
FFF800000000000001FFF8
ENDCHAR
STARTCHAR b
ENCODING 98
SWIDTH 891 0
DWIDTH 78 0
BBX 69 64 5 0
BITMAP
FFFFFFFFFFFFF80000
FFFFFFFFFFFFFF8000
FFFFFFFFFFFFFFF000
FFFFFFFFFFFFFFF800
FFFFFFFFFFFFFFFE00
FFFFFFFFFFFFFFFF00
FFFFFFFFFFFFFFFF80
FFFFFFFFFFFFFFFF80
FFFFFFFFFFFFFFFFC0
FFFFFFFFFFFFFFFFE0
FFFFFFFFFFFFFFFFE0
FFF0000000007FFFE0
FFF00000000007FFF0
FFF00000000003FFF0
FFF00000000001FFF0
FFF00000000000FFF0
FFF00000000000FFF0
FFF000000000007FF0
FFF000000000007FF0
FFF000000000007FF0
FFF000000000007FF0
FFF00000000000FFE0
FFF00000000000FFE0
FFF00000000000FFE0
FFF00000000001FFC0
FFF00000000003FFC0
FFF0000000000FFF80
FFF00FFFFFFFFFFF00
FFF00FFFFFFFFFFE00
FFF00FFFFFFFFFF800
FFF00FFFFFFFFFF000
FFF00FFFFFFFFFFC00
FFF00FFFFFFFFFFE00
FFF00FFFFFFFFFFF80
FFF00FFFFFFFFFFFC0
FFF00FFFFFFFFFFFC0
FFF0000000000FFFE0
FFF00000000003FFF0
FFF00000000000FFF0
FFF000000000007FF0
FFF000000000007FF8
FFF000000000007FF8
FFF000000000003FF8
FFF000000000003FF8
FFF000000000003FF8
FFF000000000003FF8
FFF000000000003FF8
FFF000000000007FF8
FFF000000000007FF8
FFF00000000000FFF8
FFF00000000001FFF0
FFF00000000007FFF0
FFF000000000FFFFF0
FFFFFFFFFFFFFFFFE0
FFFFFFFFFFFFFFFFE0
FFFFFFFFFFFFFFFFC0
FFFFFFFFFFFFFFFFC0
FFFFFFFFFFFFFFFF80
FFFFFFFFFFFFFFFF00
FFFFFFFFFFFFFFFE00
FFFFFFFFFFFFFFF800
FFFFFFFFFFFFFFF000
FFFFFFFFFFFFFFC000
FFFFFFFFFFFFFC0000
ENDCHAR
STARTCHAR c
ENCODING 99
SWIDTH 829 0
DWIDTH 73 0
BBX 65 64 4 0
BITMAP
0000007FFFFFFFFF80
000007FFFFFFFFFF80
00003FFFFFFFFFFF80
0000FFFFFFFFFFFF80
0003FFFFFFFFFFFF80
000FFFFFFFFFFFFF80
001FFFFFFFFFFFFF80
003FFFFFFFFFFFFF80
007FFFFFFFFFFFFF80
00FFFFFFFFFFFFFF80
01FFFFFFFFFFFFFF80
03FFFFE00000000000
07FFFE000000000000
07FFF8000000000000
0FFFF0000000000000
1FFFC0000000000000
1FFF80000000000000
3FFF00000000000000
3FFE00000000000000
3FFC00000000000000
7FFC00000000000000
7FF800000000000000
7FF800000000000000
FFF000000000000000
FFF000000000000000
FFF000000000000000
FFE000000000000000
FFE000000000000000
FFE000000000000000
FFE000000000000000
FFE000000000000000
FFE000000000000000
FFE000000000000000
FFE000000000000000
FFE000000000000000
FFE000000000000000
FFE000000000000000
FFF000000000000000
FFF000000000000000
7FF000000000000000
7FF000000000000000
7FF800000000000000
7FF800000000000000
3FFC00000000000000
3FFE00000000000000
1FFE00000000000000
1FFF00000000000000
1FFF80000000000000
0FFFC0000000000000
07FFF0000000000000
07FFF8000000000000
03FFFE000000000000
01FFFFE00000000000
01FFFFFFFFFFFFFF80
00FFFFFFFFFFFFFF80
007FFFFFFFFFFFFF80
003FFFFFFFFFFFFF80
000FFFFFFFFFFFFF80
0007FFFFFFFFFFFF80
0001FFFFFFFFFFFF80
0000FFFFFFFFFFFF80
00003FFFFFFFFFFF80
000007FFFFFFFFFF80
0000007FFFFFFFFF80
ENDCHAR
STARTCHAR d
ENCODING 100
SWIDTH 879 0
DWIDTH 77 0
BBX 68 64 6 0
BITMAP
FFFFFFFFFFE0000000
FFFFFFFFFFFE000000
FFFFFFFFFFFFC00000
FFFFFFFFFFFFF00000
FFFFFFFFFFFFFC0000
FFFFFFFFFFFFFE0000
FFFFFFFFFFFFFF0000
FFFFFFFFFFFFFFC000
FFFFFFFFFFFFFFE000
FFFFFFFFFFFFFFF000
FFFFFFFFFFFFFFF800
FFE0000000FFFFF800
FFE00000000FFFFC00
FFE000000003FFFE00
FFE000000000FFFE00
FFE0000000007FFF00
FFE0000000003FFF00
FFE0000000001FFF80
FFE0000000000FFF80
FFE00000000007FFC0
FFE00000000003FFC0
FFE00000000003FFC0
FFE00000000001FFE0
FFE00000000001FFE0
FFE00000000001FFE0
FFE00000000000FFE0
FFE00000000000FFE0
FFE00000000000FFF0
FFE00000000000FFF0
FFE00000000000FFF0
FFE000000000007FF0
FFE000000000007FF0
FFE000000000007FF0
FFE00000000000FFF0
FFE00000000000FFF0
FFE00000000000FFF0
FFE00000000000FFE0
FFE00000000000FFE0
FFE00000000000FFE0
FFE00000000001FFE0
FFE00000000001FFE0
FFE00000000003FFC0
FFE00000000003FFC0
FFE00000000007FFC0
FFE00000000007FF80
FFE0000000000FFF80
FFE0000000001FFF00
FFE0000000003FFF00
FFE0000000007FFE00
FFE000000000FFFE00
FFE000000003FFFC00
FFE00000000FFFF800
FFE0000000FFFFF800
FFFFFFFFFFFFFFF000
FFFFFFFFFFFFFFE000
FFFFFFFFFFFFFFC000
FFFFFFFFFFFFFF8000
FFFFFFFFFFFFFF0000
FFFFFFFFFFFFFC0000
FFFFFFFFFFFFF80000
FFFFFFFFFFFFE00000
FFFFFFFFFFFF800000
FFFFFFFFFFFC000000
FFFFFFFFFFC0000000
ENDCHAR
STARTCHAR e
ENCODING 101
SWIDTH 759 0
DWIDTH 67 0
BBX 57 64 6 0
BITMAP
FFFFFFFFFFFFFF80
FFFFFFFFFFFFFF80
FFFFFFFFFFFFFF80
FFFFFFFFFFFFFF80
FFFFFFFFFFFFFF80
FFFFFFFFFFFFFF80
FFFFFFFFFFFFFF80
FFFFFFFFFFFFFF80
FFFFFFFFFFFFFF80
FFFFFFFFFFFFFF80
FFFFFFFFFFFFFF80
FFE0000000000000
FFE0000000000000
FFE0000000000000
FFE0000000000000
FFE0000000000000
FFE0000000000000
FFE0000000000000
FFE0000000000000
FFE0000000000000
FFE0000000000000
FFE0000000000000
FFE0000000000000
FFE0000000000000
FFE0000000000000
FFE0000000000000
FFE0000000000000
FFE01FFFFFFFFC00
FFE01FFFFFFFFC00
FFE01FFFFFFFFC00
FFE01FFFFFFFFC00
FFE01FFFFFFFFC00
FFE01FFFFFFFFC00
FFE01FFFFFFFFC00
FFE01FFFFFFFFC00
FFE01FFFFFFFFC00
FFE0000000000000
FFE0000000000000
FFE0000000000000
FFE0000000000000
FFE0000000000000
FFE0000000000000
FFE0000000000000
FFE0000000000000
FFE0000000000000
FFE0000000000000
FFE0000000000000
FFE0000000000000
FFE0000000000000
FFE0000000000000
FFE0000000000000
FFE0000000000000
FFE0000000000000
FFFFFFFFFFFFFF80
FFFFFFFFFFFFFF80
FFFFFFFFFFFFFF80
FFFFFFFFFFFFFF80
FFFFFFFFFFFFFF80
FFFFFFFFFFFFFF80
FFFFFFFFFFFFFF80
FFFFFFFFFFFFFF80
FFFFFFFFFFFFFF80
FFFFFFFFFFFFFF80
FFFFFFFFFFFFFF80
ENDCHAR
STARTCHAR f
ENCODING 102
SWIDTH 705 0
DWIDTH 62 0
BBX 54 64 6 0
BITMAP
FFFFFFFFFFFFFC
FFFFFFFFFFFFFC
FFFFFFFFFFFFFC
FFFFFFFFFFFFFC
FFFFFFFFFFFFFC
FFFFFFFFFFFFFC
FFFFFFFFFFFFFC
FFFFFFFFFFFFFC
FFFFFFFFFFFFFC
FFFFFFFFFFFFFC
FFFFFFFFFFFFFC
FFE00000000000
FFE00000000000
FFE00000000000
FFE00000000000
FFE00000000000
FFE00000000000
FFE00000000000
FFE00000000000
FFE00000000000
FFE00000000000
FFE00000000000
FFE00000000000
FFE00000000000
FFE00000000000
FFE00000000000
FFE00000000000
FFE00000000000
FFE01FFFFFFFE0
FFE01FFFFFFFE0
FFE01FFFFFFFE0
FFE01FFFFFFFE0
FFE01FFFFFFFE0
FFE01FFFFFFFE0
FFE01FFFFFFFE0
FFE01FFFFFFFE0
FFE01FFFFFFFE0
FFE01FFFFFFFE0
FFE00000000000
FFE00000000000
FFE00000000000
FFE00000000000
FFE00000000000
FFE00000000000
FFE00000000000
FFE00000000000
FFE00000000000
FFE00000000000
FFE00000000000
FFE00000000000
FFE00000000000
FFE00000000000
FFE00000000000
FFE00000000000
FFE00000000000
FFE00000000000
FFE00000000000
FFE00000000000
FFE00000000000
FFE00000000000
FFE00000000000
FFE00000000000
FFE00000000000
FFE00000000000
ENDCHAR
STARTCHAR g
ENCODING 103
SWIDTH 888 0
DWIDTH 78 0
BBX 69 64 4 0
BITMAP
0000007FFFFFFFFF80
000007FFFFFFFFFF80
00003FFFFFFFFFFF80
0000FFFFFFFFFFFF80
0003FFFFFFFFFFFF80
000FFFFFFFFFFFFF80
001FFFFFFFFFFFFF80
003FFFFFFFFFFFFF80
007FFFFFFFFFFFFF80
00FFFFFFFFFFFFFF80
01FFFFFFFFFFFFFF80
03FFFFE00000000000
07FFFE000000000000
07FFF8000000000000
0FFFF0000000000000
1FFFC0000000000000
1FFF80000000000000
3FFF00000000000000
3FFE00000000000000
3FFC00000000000000
7FFC00000000000000
7FF800000000000000
7FF800000000000000
FFF000000000000000
FFF000000000000000
FFF000000000000000
FFE000000000000000
FFE00007FFFFFFFFF8
FFE00007FFFFFFFFF8
FFE00007FFFFFFFFF8
FFE00007FFFFFFFFF8
FFE00007FFFFFFFFF8
FFE00007FFFFFFFFF8
FFE00007FFFFFFFFF8
FFE00007FFFFFFFFF8
FFE00007FFFFFFFFF8
FFE000000000003FF8
FFF000000000003FF8
FFF000000000003FF8
7FF000000000003FF8
7FF000000000003FF8
7FF800000000003FF8
7FF800000000003FF8
3FFC00000000003FF8
3FFE00000000003FF8
1FFE00000000003FF8
1FFF00000000003FF8
1FFF80000000003FF8
0FFFC0000000003FF8
07FFF0000000003FF8
07FFF8000000003FF8
03FFFE000000003FF8
01FFFFE00000003FF8
01FFFFFFFFFFFFFFF8
00FFFFFFFFFFFFFFF8
007FFFFFFFFFFFFFF8
003FFFFFFFFFFFFFF8
000FFFFFFFFFFFFFF8
0007FFFFFFFFFFFFF8
0001FFFFFFFFFFFFF8
0000FFFFFFFFFFFFF8
00003FFFFFFFFFFFF8
000007FFFFFFFFFFF8
0000007FFFFFFFFFF8
ENDCHAR
STARTCHAR h
ENCODING 104
SWIDTH 838 0
DWIDTH 74 0
BBX 62 64 6 0
BITMAP
FFE0000000001FFC
FFE0000000001FFC
FFE0000000001FFC
FFE0000000001FFC
FFE0000000001FFC
FFE0000000001FFC
FFE0000000001FFC
FFE0000000001FFC
FFE0000000001FFC
FFE0000000001FFC
FFE0000000001FFC
FFE0000000001FFC
FFE0000000001FFC
FFE0000000001FFC
FFE0000000001FFC
FFE0000000001FFC
FFE0000000001FFC
FFE0000000001FFC
FFE0000000001FFC
FFE0000000001FFC
FFE0000000001FFC
FFE0000000001FFC
FFE0000000001FFC
FFE0000000001FFC
FFE0000000001FFC
FFE0000000001FFC
FFE01FFFFFFFFFFC
FFE01FFFFFFFFFFC
FFE01FFFFFFFFFFC
FFE01FFFFFFFFFFC
FFE01FFFFFFFFFFC
FFE01FFFFFFFFFFC
FFE01FFFFFFFFFFC
FFE01FFFFFFFFFFC
FFE01FFFFFFFFFFC
FFE01FFFFFFFFFFC
FFE0000000001FFC
FFE0000000001FFC
FFE0000000001FFC
FFE0000000001FFC
FFE0000000001FFC
FFE0000000001FFC
FFE0000000001FFC
FFE0000000001FFC
FFE0000000001FFC
FFE0000000001FFC
FFE0000000001FFC
FFE0000000001FFC
FFE0000000001FFC
FFE0000000001FFC
FFE0000000001FFC
FFE0000000001FFC
FFE0000000001FFC
FFE0000000001FFC
FFE0000000001FFC
FFE0000000001FFC
FFE0000000001FFC
FFE0000000001FFC
FFE0000000001FFC
FFE0000000001FFC
FFE0000000001FFC
FFE0000000001FFC
FFE0000000001FFC
FFE0000000001FFC
ENDCHAR
STARTCHAR i
ENCODING 105
SWIDTH 267 0
DWIDTH 24 0
BBX 11 64 6 0
BITMAP
FFE0
FFE0
FFE0
FFE0
FFE0
FFE0
FFE0
FFE0
FFE0
FFE0
FFE0
FFE0
FFE0
FFE0
FFE0
FFE0
FFE0
FFE0
FFE0
FFE0
FFE0
FFE0
FFE0
FFE0
FFE0
FFE0
FFE0
FFE0
FFE0
FFE0
FFE0
FFE0
FFE0
FFE0
FFE0
FFE0
FFE0
FFE0
FFE0
FFE0
FFE0
FFE0
FFE0
FFE0
FFE0
FFE0
FFE0
FFE0
FFE0
FFE0
FFE0
FFE0
FFE0
FFE0
FFE0
FFE0
FFE0
FFE0
FFE0
FFE0
FFE0
FFE0
FFE0
FFE0
ENDCHAR
STARTCHAR j
ENCODING 106
SWIDTH 708 0
DWIDTH 62 0
BBX 56 64 2 0
BITMAP
000000000007FF
000000000007FF
000000000007FF
000000000007FF
000000000007FF
000000000007FF
000000000007FF
000000000007FF
000000000007FF
000000000007FF
000000000007FF
000000000007FF
000000000007FF
000000000007FF
000000000007FF
000000000007FF
000000000007FF
000000000007FF
000000000007FF
000000000007FF
000000000007FF
000000000007FF
000000000007FF
000000000007FF
000000000007FF
000000000007FF
000000000007FF
000000000007FF
000000000007FF
000000000007FF
000000000007FF
000000000007FF
000000000007FF
000000000007FF
000000000007FF
000000000007FF
00000000000FFF
00000000000FFF
00000000000FFF
00000000000FFF
00000000000FFE
00000000000FFE
00000000001FFE
00000000001FFE
00000000001FFE
00000000003FFC
00000000007FFC
00000000007FFC
0000000000FFFC
0000000003FFF8
0000000007FFF8
000000003FFFF0
00000007FFFFF0
FFFFFFFFFFFFE0
FFFFFFFFFFFFC0
FFFFFFFFFFFF80
FFFFFFFFFFFF00
FFFFFFFFFFFE00
FFFFFFFFFFFC00
FFFFFFFFFFF000
FFFFFFFFFFE000
FFFFFFFFFF0000
FFFFFFFFF80000
FFFFFFFF000000
ENDCHAR
STARTCHAR k
ENCODING 107
SWIDTH 875 0
DWIDTH 77 0
BBX 69 64 6 0
BITMAP
FFE0000000003FFFF0
FFE0000000007FFFC0
FFE000000000FFFF80
FFE000000003FFFE00
FFE000000007FFFC00
FFE00000000FFFF800
FFE00000003FFFE000
FFE00000007FFFC000
FFE0000000FFFF8000
FFE0000003FFFE0000
FFE0000007FFFC0000
FFE000000FFFF80000
FFE000001FFFE00000
FFE000007FFFC00000
FFE00000FFFF800000
FFE00001FFFE000000
FFE00007FFFC000000
FFE0000FFFF8000000
FFE0001FFFE0000000
FFE0007FFFC0000000
FFE000FFFF80000000
FFE001FFFE00000000
FFE003FFFC00000000
FFE00FFFF800000000
FFE01FFFE000000000
FFE03FFFC000000000
FFE0FFFF8000000000
FFE1FFFE0000000000
FFE1FFFC0000000000
FFE3FFF00000000000
FFE3FFE00000000000
FFE3FFC00000000000
FFE3FFF00000000000
FFE1FFF80000000000
FFE1FFFC0000000000
FFE0FFFF0000000000
FFE07FFF8000000000
FFE01FFFC000000000
FFE00FFFF000000000
FFE007FFF800000000
FFE003FFFC00000000
FFE000FFFF00000000
FFE0007FFF80000000
FFE0003FFFC0000000
FFE0001FFFF0000000
FFE00007FFF8000000
FFE00003FFFC000000
FFE00001FFFF000000
FFE000007FFF800000
FFE000003FFFC00000
FFE000001FFFF00000
FFE000000FFFF80000
FFE0000003FFFC0000
FFE0000001FFFF0000
FFE0000000FFFF8000
FFE00000007FFFC000
FFE00000001FFFE000
FFE00000000FFFF800
FFE000000007FFFC00
FFE000000001FFFE00
FFE000000000FFFF80
FFE0000000007FFFC0
FFE0000000003FFFE0
FFE0000000000FFFF8
ENDCHAR
STARTCHAR l
ENCODING 108
SWIDTH 707 0
DWIDTH 62 0
BBX 54 64 6 0
BITMAP
FFE00000000000
FFE00000000000
FFE00000000000
FFE00000000000
FFE00000000000
FFE00000000000
FFE00000000000
FFE00000000000
FFE00000000000
FFE00000000000
FFE00000000000
FFE00000000000
FFE00000000000
FFE00000000000
FFE00000000000
FFE00000000000
FFE00000000000
FFE00000000000
FFE00000000000
FFE00000000000
FFE00000000000
FFE00000000000
FFE00000000000
FFE00000000000
FFE00000000000
FFE00000000000
FFE00000000000
FFE00000000000
FFE00000000000
FFE00000000000
FFE00000000000
FFE00000000000
FFE00000000000
FFE00000000000
FFE00000000000
FFE00000000000
FFE00000000000
FFE00000000000
FFE00000000000
FFE00000000000
FFE00000000000
FFE00000000000
FFE00000000000
FFE00000000000
FFE00000000000
FFE00000000000
FFE00000000000
FFE00000000000
FFE00000000000
FFE00000000000
FFE00000000000
FFE00000000000
FFE00000000000
FFFFFFFFFFFFFC
FFFFFFFFFFFFFC
FFFFFFFFFFFFFC
FFFFFFFFFFFFFC
FFFFFFFFFFFFFC
FFFFFFFFFFFFFC
FFFFFFFFFFFFFC
FFFFFFFFFFFFFC
FFFFFFFFFFFFFC
FFFFFFFFFFFFFC
FFFFFFFFFFFFFC
ENDCHAR
STARTCHAR m
ENCODING 109
SWIDTH 1115 0
DWIDTH 98 0
BBX 94 65 2 -1
BITMAP
00000F800000000003E00000
00003FC00000000007F00000
00007FE0000000000FF80000
00007FF0000000001FFC0000
00007FF0000000001FFC0000
0000FFF8000000003FFC0000
0000FFF8000000003FFC0000
0000FFF8000000003FFE0000
0001FFFC000000007FFE0000
0001FFFC000000007FFE0000
0001FFFE00000000FFFF0000
0001FFFE00000000FFFF0000
0003FFFF00000001FFFF0000
0003FFFF00000001FFFF0000
0003FFFF00000003FFFF8000
0003FFFF80000003FFFF8000
0007FFFF80000003FFFF8000
0007FFFFC0000007FFFF8000
0007FFFFC0000007FFFFC000
000FFFFFE000000FFFFFC000
000FFEFFE000000FFFFFC000
000FFEFFF000001FFDFFE000
000FFE7FF000001FFCFFE000
001FFC7FF000003FF8FFE000
001FFC7FF800003FF8FFE000
001FFC3FF800003FF07FF000
003FF83FFC00007FF07FF000
003FF81FFC00007FF07FF000
003FF81FFE0000FFE07FF000
003FF80FFE0000FFE03FF800
007FF00FFF0001FFC03FF800
007FF007FF0001FFC03FF800
007FF007FF0003FF803FFC00
007FF007FF8003FF801FFC00
00FFE003FF8003FF001FFC00
00FFE003FFC007FF001FFC00
00FFE001FFC007FF000FFE00
01FFC001FFE00FFE000FFE00
01FFC000FFE00FFE000FFE00
01FFC000FFE01FFC000FFF00
01FFC000FFF01FFC0007FF00
03FF80007FF01FF80007FF00
03FF80007FF83FF80007FF00
03FF80003FF83FF00003FF80
07FF80003FFC7FF00003FF80
07FF00001FFC7FF00003FF80
07FF00001FFEFFE00003FF80
07FF00000FFEFFE00001FFC0
0FFE00000FFFFFC00001FFC0
0FFE00000FFFFFC00001FFC0
0FFE000007FFFF800001FFE0
0FFE000007FFFF800000FFE0
1FFC000003FFFF800000FFE0
1FFC000003FFFF000000FFE0
1FFC000001FFFF0000007FF0
3FF8000001FFFE0000007FF0
3FF8000001FFFE0000007FF0
3FF8000000FFFC0000007FF0
3FF8000000FFFC0000003FF8
7FF00000007FF80000003FF8
7FF00000007FF80000003FF8
7FF00000003FF00000003FFC
7FF00000003FF00000001FFC
FFE00000001FE00000001FFC
000000000007800000000000
ENDCHAR
STARTCHAR n
ENCODING 110
SWIDTH 873 0
DWIDTH 77 0
BBX 67 64 5 0
BITMAP
0F000000000000FFE0
3FC00000000000FFE0
7FE00000000000FFE0
7FF00000000000FFE0
FFF80000000000FFE0
FFFC0000000000FFE0
FFFE0000000000FFE0
FFFF0000000000FFE0
FFFF8000000000FFE0
FFFFC000000000FFE0
FFFFE000000000FFE0
FFFFF000000000FFE0
FFFFF800000000FFE0
FFFFFC00000000FFE0
FFFFFE00000000FFE0
FFFFFF00000000FFE0
FFFFFF80000000FFE0
FFFFFFC0000000FFE0
FFEFFFE0000000FFE0
FFE7FFF0000000FFE0
FFE3FFF8000000FFE0
FFE1FFFC000000FFE0
FFE0FFFE000000FFE0
FFE07FFF000000FFE0
FFE03FFF800000FFE0
FFE01FFFC00000FFE0
FFE00FFFE00000FFE0
FFE007FFF00000FFE0
FFE003FFF80000FFE0
FFE001FFFE0000FFE0
FFE000FFFE0000FFE0
FFE0007FFF8000FFE0
FFE0003FFFC000FFE0
FFE0001FFFE000FFE0
FFE0000FFFF000FFE0
FFE00007FFF800FFE0
FFE00003FFFC00FFE0
FFE00001FFFE00FFE0
FFE00000FFFF00FFE0
FFE000007FFF80FFE0
FFE000003FFFC0FFE0
FFE000001FFFE0FFE0
FFE000000FFFF0FFE0
FFE0000007FFF8FFE0
FFE0000003FFFCFFE0
FFE0000001FFFEFFE0
FFE0000000FFFFFFE0
FFE00000007FFFFFE0
FFE00000003FFFFFE0
FFE00000001FFFFFE0
FFE00000000FFFFFE0
FFE000000007FFFFE0
FFE000000003FFFFE0
FFE000000001FFFFE0
FFE0000000007FFFE0
FFE0000000007FFFE0
FFE0000000001FFFE0
FFE0000000000FFFE0
FFE00000000007FFC0
FFE00000000003FFC0
FFE00000000001FFC0
FFE00000000000FFC0
FFE000000000007F80
FFE000000000003E00
ENDCHAR
STARTCHAR o
ENCODING 111
SWIDTH 968 0
DWIDTH 85 0
BBX 78 64 4 0
BITMAP
0000007FFFFFF8000000
000007FFFFFFFF800000
00003FFFFFFFFFF00000
0000FFFFFFFFFFFC0000
0003FFFFFFFFFFFF0000
000FFFFFFFFFFFFF8000
001FFFFFFFFFFFFFC000
003FFFFFFFFFFFFFF000
007FFFFFFFFFFFFFF800
00FFFFFFFFFFFFFFFC00
01FFFFFFFFFFFFFFFE00
03FFFFE000003FFFFE00
07FFFE00000003FFFF00
07FFF800000000FFFF80
0FFFF0000000003FFF80
1FFFC0000000001FFFC0
1FFF80000000000FFFC0
3FFF000000000007FFE0
3FFE000000000003FFE0
3FFC000000000001FFF0
7FFC000000000001FFF0
7FF8000000000000FFF0
7FF80000000000007FF8
FFF00000000000007FF8
FFF00000000000007FF8
FFF00000000000003FF8
FFE00000000000003FF8
FFE00000000000003FF8
FFE00000000000003FFC
FFE00000000000003FFC
FFE00000000000003FFC
FFE00000000000003FFC
FFE00000000000003FFC
FFE00000000000003FFC
FFE00000000000003FFC
FFE00000000000003FF8
FFE00000000000003FF8
FFF00000000000003FF8
FFF00000000000003FF8
7FF00000000000007FF8
7FF00000000000007FF8
7FF8000000000000FFF0
7FF8000000000000FFF0
3FFC000000000001FFF0
3FFE000000000001FFE0
1FFE000000000003FFE0
1FFF000000000007FFC0
1FFF80000000000FFFC0
0FFFC0000000001FFF80
07FFF0000000003FFF80
07FFF800000000FFFF00
03FFFE00000003FFFE00
01FFFFE000003FFFFE00
01FFFFFFFFFFFFFFFC00
00FFFFFFFFFFFFFFF800
007FFFFFFFFFFFFFF000
003FFFFFFFFFFFFFE000
000FFFFFFFFFFFFFC000
0007FFFFFFFFFFFF0000
0001FFFFFFFFFFFE0000
0000FFFFFFFFFFF80000
00003FFFFFFFFFE00000
000007FFFFFFFF000000
0000007FFFFFF0000000
ENDCHAR
STARTCHAR p
ENCODING 112
SWIDTH 867 0
DWIDTH 76 0
BBX 68 64 6 0
BITMAP
FFFFFFFFFFFFC00000
FFFFFFFFFFFFFC0000
FFFFFFFFFFFFFF0000
FFFFFFFFFFFFFFC000
FFFFFFFFFFFFFFF000
FFFFFFFFFFFFFFF800
FFFFFFFFFFFFFFFC00
FFFFFFFFFFFFFFFE00
FFFFFFFFFFFFFFFF00
FFFFFFFFFFFFFFFF00
FFFFFFFFFFFFFFFF80
FFE000000000FFFFC0
FFE0000000001FFFC0
FFE00000000007FFC0
FFE00000000003FFE0
FFE00000000001FFE0
FFE00000000001FFE0
FFE00000000000FFE0
FFE00000000000FFF0
FFE000000000007FF0
FFE000000000007FF0
FFE000000000007FF0
FFE000000000007FF0
FFE000000000007FF0
FFE000000000007FF0
FFE000000000007FF0
FFE000000000007FF0
FFE00000000000FFF0
FFE00000000000FFE0
FFE00000000001FFE0
FFE00000000001FFE0
FFE00000000003FFE0
FFE00000000007FFC0
FFE0000000001FFFC0
FFE0000000007FFF80
FFE01FFFFFFFFFFF80
FFE01FFFFFFFFFFF00
FFE01FFFFFFFFFFF00
FFE01FFFFFFFFFFE00
FFE01FFFFFFFFFFC00
FFE01FFFFFFFFFF800
FFE01FFFFFFFFFF000
FFE01FFFFFFFFFC000
FFE01FFFFFFFFF0000
FFE01FFFFFFFFC0000
FFE01FFFFFFFE00000
FFE000000000000000
FFE000000000000000
FFE000000000000000
FFE000000000000000
FFE000000000000000
FFE000000000000000
FFE000000000000000
FFE000000000000000
FFE000000000000000
FFE000000000000000
FFE000000000000000
FFE000000000000000
FFE000000000000000
FFE000000000000000
FFE000000000000000
FFE000000000000000
FFE000000000000000
FFE000000000000000
ENDCHAR
STARTCHAR q
ENCODING 113
SWIDTH 968 0
DWIDTH 85 0
BBX 81 64 4 0
BITMAP
0000007FFFFFF800000000
000007FFFFFFFF80000000
00003FFFFFFFFFF0000000
0000FFFFFFFFFFFC000000
0003FFFFFFFFFFFF000000
000FFFFFFFFFFFFF800000
001FFFFFFFFFFFFFC00000
003FFFFFFFFFFFFFF00000
007FFFFFFFFFFFFFF80000
00FFFFFFFFFFFFFFFC0000
01FFFFFFFFFFFFFFFE0000
03FFFFE000003FFFFE0000
07FFFE00000003FFFF0000
07FFF800000000FFFF8000
0FFFF0000000003FFF8000
1FFFC0000000001FFFC000
1FFF80000000000FFFC000
3FFF000000000007FFE000
3FFE000000000003FFE000
3FFC000000000001FFF000
7FFC000000000001FFF000
7FF8000000000000FFF000
7FF80000000000007FF800
FFF00000000000007FF800
FFF00000000000007FF800
FFF00000000000003FF800
FFE00000000000003FF800
FFE00000000000003FF800
FFE00000000000003FFC00
FFE00000000000003FFC00
FFE00000000000003FFC00
FFE00000000000003FFC00
FFE00000000000003FFC00
FFE00000000000003FFC00
FFE00000000000003FFC00
FFE00000000000003FF800
FFE00000000000003FF800
FFF00000400000003FF800
FFF000003FFF80003FF800
7FF000000FFFC0007FF800
7FF0000007FFF0007FF800
7FF8000003FFF800FFF000
7FF8000000FFFC00FFF000
3FFC0000007FFE01FFF000
3FFE0000003FFF01FFE000
1FFE0000001FFFC3FFE000
1FFF00000007FFE7FFC000
1FFF80000003FFFFFFC000
0FFFC0000001FFFFFF8000
07FFF00000007FFFFF8000
07FFF80000003FFFFF0000
03FFFE0000001FFFFE0000
01FFFFE000003FFFFE0000
01FFFFFFFFFFFFFFFC0000
00FFFFFFFFFFFFFFF80000
007FFFFFFFFFFFFFFC0000
003FFFFFFFFFFFFFFE0000
000FFFFFFFFFFFFFFF0000
0007FFFFFFFFFFFFFFC000
0001FFFFFFFFFFFFFFE000
0000FFFFFFFFFFFBFFF000
00003FFFFFFFFFE1FFFC00
000007FFFFFFFF00FFFE00
0000007FFFFFF0007FFF80
ENDCHAR
STARTCHAR r
ENCODING 114
SWIDTH 921 0
DWIDTH 81 0
BBX 75 64 6 0
BITMAP
FFFFFFFFFFFFE0000000
FFFFFFFFFFFFFE000000
FFFFFFFFFFFFFF800000
FFFFFFFFFFFFFFE00000
FFFFFFFFFFFFFFF80000
FFFFFFFFFFFFFFFC0000
FFFFFFFFFFFFFFFE0000
FFFFFFFFFFFFFFFF0000
FFFFFFFFFFFFFFFF0000
FFFFFFFFFFFFFFFF8000
FFFFFFFFFFFFFFFFC000
FFE0000000007FFFC000
FFE0000000000FFFE000
FFE00000000003FFE000
FFE00000000001FFE000
FFE00000000000FFF000
FFE00000000000FFF000
FFE000000000007FF000
FFE000000000007FF000
FFE000000000007FF800
FFE000000000003FF800
FFE000000000003FF800
FFE000000000003FF800
FFE000000000003FF800
FFE000000000003FF800
FFE000000000003FF800
FFE000000000007FF800
FFE000000000007FF000
FFE000000000007FF000
FFE000000000007FF000
FFE00000000000FFF000
FFE00000000000FFF000
FFE00000000001FFE000
FFE00000000003FFE000
FFE0000000000FFFC000
FFE0000000003FFFC000
FFE01FFFFFFFFFFF8000
FFE01FFFFFFFFFFF8000
FFE01FFFFFFFFFFF0000
FFE01FFFFFFFFFFE0000
FFE01FFFFFFFFFFC0000
FFE01FFFFFFFFFF80000
FFE01FFFFFFFFFE00000
FFE01FFFFFFFFF800000
FFE01FFFFFFFFF000000
FFE01FFFFFFFFF800000
FFE00000001FFFC00000
FFE00000000FFFE00000
FFE000000007FFF00000
FFE000000003FFF80000
FFE000000001FFFC0000
FFE000000000FFFE0000
FFE0000000007FFF0000
FFE0000000007FFF8000
FFE0000000003FFFC000
FFE0000000001FFFC000
FFE0000000000FFFE000
FFE00000000007FFF000
FFE00000000003FFF800
FFE00000000001FFFC00
FFE00000000000FFFE00
FFE000000000007FFF00
FFE000000000003FFF80
FFE000000000003FFFE0
ENDCHAR
STARTCHAR s
ENCODING 115
SWIDTH 880 0
DWIDTH 77 0
BBX 68 64 5 0
BITMAP
0003FFFFFFFFFFFF80
003FFFFFFFFFFFFF80
00FFFFFFFFFFFFFF80
01FFFFFFFFFFFFFF80
07FFFFFFFFFFFFFF80
0FFFFFFFFFFFFFFF80
1FFFFFFFFFFFFFFF80
1FFFFFFFFFFFFFFF80
3FFFFFFFFFFFFFFF80
7FFFFFFFFFFFFFFF80
7FFFFFFFFFFFFFFF80
7FFF80000000000000
FFFC00000000000000
FFF800000000000000
FFF000000000000000
FFF000000000000000
FFE000000000000000
FFE000000000000000
FFE000000000000000
FFE000000000000000
FFE000000000000000
FFE000000000000000
FFF000000000000000
FFF000000000000000
7FF800000000000000
7FFC00000000000000
3FFF00000000000000
3FFFFFFFFFFFFC0000
1FFFFFFFFFFFFFC000
0FFFFFFFFFFFFFF000
0FFFFFFFFFFFFFFC00
07FFFFFFFFFFFFFE00
01FFFFFFFFFFFFFF00
00FFFFFFFFFFFFFF80
001FFFFFFFFFFFFFC0
0003FFFFFFFFFFFFC0
0000000000000FFFE0
00000000000001FFE0
00000000000000FFF0
000000000000007FF0
000000000000007FF0
000000000000007FF0
000000000000003FF0
000000000000003FF0
000000000000003FF0
000000000000003FF0
000000000000003FF0
000000000000007FF0
000000000000007FF0
00000000000000FFF0
00000000000001FFF0
00000000000003FFF0
0000000000001FFFE0
7FFFFFFFFFFFFFFFE0
7FFFFFFFFFFFFFFFC0
7FFFFFFFFFFFFFFFC0
7FFFFFFFFFFFFFFF80
7FFFFFFFFFFFFFFF80
7FFFFFFFFFFFFFFF00
7FFFFFFFFFFFFFFE00
7FFFFFFFFFFFFFF800
7FFFFFFFFFFFFFF000
7FFFFFFFFFFFFFC000
7FFFFFFFFFFFFC0000
ENDCHAR
STARTCHAR t
ENCODING 116
SWIDTH 720 0
DWIDTH 63 0
BBX 60 64 2 0
BITMAP
FFFFFFFFFFFFFFF0
FFFFFFFFFFFFFFF0
FFFFFFFFFFFFFFF0
FFFFFFFFFFFFFFF0
FFFFFFFFFFFFFFF0
FFFFFFFFFFFFFFF0
FFFFFFFFFFFFFFF0
FFFFFFFFFFFFFFF0
FFFFFFFFFFFFFFF0
FFFFFFFFFFFFFFF0
FFFFFFFFFFFFFFF0
000000FFE0000000
000000FFE0000000
000000FFE0000000
000000FFE0000000
000000FFE0000000
000000FFE0000000
000000FFE0000000
000000FFE0000000
000000FFE0000000
000000FFE0000000
000000FFE0000000
000000FFE0000000
000000FFE0000000
000000FFE0000000
000000FFE0000000
000000FFE0000000
000000FFE0000000
000000FFE0000000
000000FFE0000000
000000FFE0000000
000000FFE0000000
000000FFE0000000
000000FFE0000000
000000FFE0000000
000000FFE0000000
000000FFE0000000
000000FFE0000000
000000FFE0000000
000000FFE0000000
000000FFE0000000
000000FFE0000000
000000FFE0000000
000000FFE0000000
000000FFE0000000
000000FFE0000000
000000FFE0000000
000000FFE0000000
000000FFE0000000
000000FFE0000000
000000FFE0000000
000000FFE0000000
000000FFE0000000
000000FFE0000000
000000FFE0000000
000000FFE0000000
000000FFE0000000
000000FFE0000000
000000FFE0000000
000000FFE0000000
000000FFE0000000
000000FFE0000000
000000FFE0000000
000000FFE0000000
ENDCHAR
STARTCHAR u
ENCODING 117
SWIDTH 889 0
DWIDTH 78 0
BBX 69 65 5 -1
BITMAP
FFE000000000003FF8
FFE000000000003FF8
FFE000000000003FF8
FFE000000000003FF8
FFE000000000003FF8
FFE000000000003FF8
FFE000000000003FF8
FFE000000000003FF8
FFE000000000003FF8
FFE000000000003FF8
FFE000000000003FF8
FFE000000000003FF8
FFE000000000003FF8
FFE000000000003FF8
FFE000000000003FF8
FFE000000000003FF8
FFE000000000003FF8
FFE000000000003FF8
FFE000000000003FF8
FFE000000000003FF8
FFE000000000003FF8
FFE000000000003FF8
FFE000000000003FF8
FFE000000000003FF8
FFE000000000003FF8
FFE000000000003FF8
FFE000000000003FF8
FFE000000000003FF8
FFE000000000003FF8
FFE000000000003FF8
FFE000000000003FF8
FFE000000000003FF8
FFE000000000003FF8
FFE000000000003FF8
FFE000000000003FF8
FFE000000000003FF8
FFE000000000003FF8
FFE000000000003FF8
FFE000000000003FF8
FFE000000000007FF8
FFE000000000007FF0
FFF000000000007FF0
FFF000000000007FF0
FFF000000000007FF0
FFF00000000000FFF0
7FF80000000000FFF0
7FF80000000001FFE0
7FFC0000000001FFE0
7FFE0000000003FFE0
3FFF0000000007FFC0
3FFF800000001FFFC0
1FFFE00000003FFFC0
1FFFFC000001FFFF80
0FFFFFF0007FFFFF00
0FFFFFFFFFFFFFFF00
07FFFFFFFFFFFFFE00
03FFFFFFFFFFFFFC00
01FFFFFFFFFFFFF800
00FFFFFFFFFFFFF000
003FFFFFFFFFFFC000
001FFFFFFFFFFF8000
0007FFFFFFFFFE0000
0000FFFFFFFFF00000
00001FFFFFFF800000
0000007FFFE0000000
ENDCHAR
STARTCHAR v
ENCODING 118
SWIDTH 989 0
DWIDTH 87 0
BBX 85 65 1 -1
BITMAP
FFFC00000000000000FFF8
7FFE00000000000001FFF0
3FFE00000000000003FFE0
3FFF00000000000003FFE0
1FFF80000000000007FFC0
0FFF80000000000007FF80
0FFFC000000000000FFF80
07FFC000000000001FFF00
07FFE000000000001FFF00
03FFE000000000003FFE00
01FFF000000000003FFC00
01FFF800000000007FFC00
00FFF800000000007FF800
00FFFC0000000000FFF800
007FFC0000000001FFF000
003FFE0000000001FFE000
003FFF0000000003FFE000
001FFF0000000003FFC000
001FFF8000000007FFC000
000FFF800000000FFF8000
0007FFC00000000FFF0000
0007FFE00000001FFF0000
0003FFE00000001FFE0000
0003FFF00000003FFE0000
0001FFF00000007FFC0000
0000FFF80000007FF80000
0000FFF8000000FFF80000
00007FFC000000FFF00000
00007FFE000001FFF00000
00003FFE000001FFE00000
00003FFF000003FFC00000
00001FFF000007FFC00000
00000FFF800007FF800000
00000FFFC0000FFF800000
000007FFC0000FFF000000
000007FFE0001FFE000000
000003FFE0003FFE000000
000001FFF0003FFC000000
000001FFF8007FFC000000
000000FFF8007FF8000000
0000007FFC00FFF0000000
0000007FFC00FFF0000000
0000003FFE01FFE0000000
0000003FFE03FFE0000000
0000001FFF03FFC0000000
0000001FFF87FF80000000
0000000FFF87FF80000000
00000007FFCFFF00000000
00000007FFDFFF00000000
00000003FFFFFE00000000
00000003FFFFFC00000000
00000001FFFFFC00000000
00000000FFFFF800000000
00000000FFFFF800000000
000000007FFFF000000000
000000007FFFE000000000
000000003FFFE000000000
000000001FFFC000000000
000000001FFFC000000000
000000000FFF8000000000
000000000FFF0000000000
0000000007FF0000000000
0000000003FE0000000000
0000000001FC0000000000
0000000000F80000000000
ENDCHAR
STARTCHAR w
ENCODING 119
SWIDTH 1268 0
DWIDTH 112 0
BBX 109 65 1 -1
BITMAP
FFFC00007FFC000000000000FFF8
7FFC00007FFE000000000000FFF0
3FFE00003FFE000000000001FFF0
3FFE00003FFF000000000001FFE0
1FFF00001FFF000000000003FFE0
1FFF00001FFF800000000003FFC0
0FFF80000FFF800000000007FFC0
0FFFC0000FFFC00000000007FF80
07FFC00007FFC0000000000FFF80
07FFE00007FFE0000000000FFF00
03FFE00003FFE0000000001FFF00
03FFF00001FFF0000000001FFE00
01FFF00001FFF0000000003FFE00
01FFF80000FFF8000000003FFC00
00FFF80000FFF8000000007FF800
007FFC00007FFC000000007FF800
007FFC00007FFC00000000FFF000
003FFE00003FFE00000000FFF000
003FFE00003FFE00000001FFE000
001FFF00001FFF00000003FFE000
001FFF00001FFF00000003FFC000
000FFF80000FFF80000007FFC000
000FFF80000FFF80000007FF8000
0007FFC00007FFC000000FFF8000
0007FFC00007FFC000000FFF0000
0003FFE00003FFE000001FFF0000
0001FFF00003FFE000001FFE0000
0001FFF00001FFF000003FFC0000
0000FFF80001FFF000003FFC0000
0000FFF80000FFF800007FF80000
00007FFC0000FFF800007FF80000
00007FFC00007FFC0000FFF00000
00003FFE00007FFC0000FFF00000
00003FFE0000FFFE0001FFE00000
00001FFF0000FFFE0001FFE00000
00001FFF0001FFFF0003FFC00000
00000FFF8001FFFF0007FFC00000
00000FFF8003FFFF8007FF800000
000007FFC007FFFF800FFF800000
000007FFC007FFFFC00FFF000000
000003FFE00FFFFFC01FFE000000
000001FFE00FFFFFE01FFE000000
000001FFF01FFFFFE03FFC000000
000000FFF01FFDFFF03FFC000000
000000FFF83FFCFFF07FF8000000
0000007FF83FF8FFF87FF8000000
0000007FFC7FF87FF8FFF0000000
0000003FFEFFF07FFCFFF0000000
0000003FFEFFF03FFDFFE0000000
0000001FFFFFE03FFFFFE0000000
0000001FFFFFE01FFFFFC0000000
0000000FFFFFC01FFFFFC0000000
0000000FFFFFC00FFFFF80000000
00000007FFFF800FFFFF00000000
00000003FFFF8007FFFF00000000
00000003FFFF0007FFFE00000000
00000001FFFF0003FFFE00000000
00000001FFFE0001FFFC00000000
00000000FFFC0001FFFC00000000
00000000FFFC0000FFF800000000
000000007FF80000FFF800000000
000000007FF800007FF000000000
000000003FF000007FE000000000
000000001FE000003FE000000000
000000000FC000000F8000000000
ENDCHAR
STARTCHAR x
ENCODING 120
SWIDTH 1000 0
DWIDTH 88 0
BBX 84 64 2 0
BITMAP
3FFFC000000000003FFF80
0FFFE000000000007FFE00
07FFF00000000000FFFC00
03FFF80000000001FFF800
01FFFC0000000003FFF000
00FFFE0000000007FFE000
007FFF000000000FFFC000
003FFFC00000001FFF8000
001FFFE00000003FFF0000
000FFFF00000007FFE0000
0007FFF8000000FFFC0000
0003FFFC000001FFF80000
0001FFFE000003FFF00000
0000FFFF00000FFFE00000
00007FFF80001FFFC00000
00003FFFC0003FFF800000
00001FFFE0007FFF000000
000007FFF000FFFE000000
000003FFF801FFFC000000
000001FFFC03FFF8000000
000000FFFE07FFE0000000
0000007FFF0FFFC0000000
0000003FFF9FFF80000000
0000001FFFFFFF00000000
0000000FFFFFFE00000000
00000007FFFFFC00000000
00000003FFFFF800000000
00000001FFFFF000000000
00000000FFFFE000000000
000000007FFFC000000000
000000003FFF8000000000
000000007FFFC000000000
00000000FFFFE000000000
00000001FFFFF000000000
00000003FFFFF800000000
00000007FFFFFC00000000
0000000FFFFFFE00000000
0000001FFFFFFF00000000
0000003FFF3FFF80000000
0000007FFE1FFFC0000000
000000FFFC0FFFE0000000
000001FFF807FFF0000000
000003FFF003FFF8000000
000007FFE001FFFC000000
00000FFFC000FFFE000000
00001FFF80007FFF000000
00003FFF00003FFF800000
00007FFE00001FFFC00000
0000FFFC00000FFFE00000
0001FFF8000007FFF00000
0003FFF0000003FFF80000
0007FFE0000001FFFE0000
000FFFC0000000FFFF0000
001FFF800000007FFF8000
003FFF000000003FFFC000
007FFE000000001FFFE000
00FFFC000000000FFFF000
01FFF80000000007FFF800
03FFF00000000003FFFC00
07FFE00000000001FFFE00
0FFFC00000000000FFFF00
3FFF8000000000007FFF80
7FFF0000000000003FFFC0
FFFE0000000000001FFFF0
ENDCHAR
STARTCHAR y
ENCODING 121
SWIDTH 926 0
DWIDTH 81 0
BBX 79 64 1 0
BITMAP
FFFF0000000000007FFE
7FFF000000000000FFFC
3FFF800000000001FFF8
1FFFC00000000003FFF0
0FFFE00000000007FFF0
07FFF0000000000FFFE0
03FFF8000000000FFFC0
01FFFC000000001FFF80
01FFFC000000003FFF00
00FFFE000000007FFE00
007FFF00000000FFFC00
003FFF80000001FFFC00
001FFFC0000003FFF800
000FFFE0000003FFF000
0007FFE0000007FFE000
0007FFF000000FFFC000
0003FFF800001FFF8000
0001FFFC00003FFF0000
0000FFFE00007FFF0000
00007FFF00007FFE0000
00003FFF8000FFFC0000
00001FFF8001FFF80000
00001FFFC003FFF00000
00000FFFE007FFE00000
000007FFF00FFFC00000
000003FFF81FFF800000
000001FFFC1FFF800000
000000FFFC3FFF000000
0000007FFE7FFE000000
0000007FFFFFFC000000
0000003FFFFFF8000000
0000001FFFFFF0000000
0000000FFFFFE0000000
00000007FFFFE0000000
00000003FFFFC0000000
00000003FFFF80000000
00000001FFFF00000000
00000000FFFE00000000
000000007FFC00000000
000000003FF800000000
000000003FF800000000
000000003FF800000000
000000003FF800000000
000000003FF800000000
000000003FF800000000
000000003FF800000000
000000003FF800000000
000000003FF800000000
000000003FF800000000
000000003FF800000000
000000003FF800000000
000000003FF800000000
000000003FF800000000
000000003FF800000000
000000003FF800000000
000000003FF800000000
000000003FF800000000
000000003FF800000000
000000003FF800000000
000000003FF800000000
000000003FF800000000
000000003FF800000000
000000003FF800000000
000000003FF800000000
ENDCHAR
STARTCHAR z
ENCODING 122
SWIDTH 802 0
DWIDTH 71 0
BBX 63 64 4 0
BITMAP
FFFFFFFFFFFFFFE0
FFFFFFFFFFFFFFF8
FFFFFFFFFFFFFFFC
FFFFFFFFFFFFFFFC
FFFFFFFFFFFFFFFE
FFFFFFFFFFFFFFFE
FFFFFFFFFFFFFFFE
FFFFFFFFFFFFFFFC
FFFFFFFFFFFFFFFC
FFFFFFFFFFFFFFF8
FFFFFFFFFFFFFFF0
00000000000FFFE0
00000000001FFFC0
00000000003FFF80
00000000007FFF00
0000000000FFFE00
0000000001FFFC00
0000000003FFF800
0000000007FFF000
000000000FFFE000
000000001FFFC000
000000003FFF8000
000000007FFF0000
00000000FFFE0000
00000001FFFC0000
00000003FFF80000
00000007FFF00000
0000000FFFE00000
0000001FFFC00000
0000003FFF800000
0000007FFF000000
000000FFFE000000
000001FFFC000000
000003FFF8000000
000007FFF0000000
00000FFFE0000000
00001FFFC0000000
00003FFF80000000
00007FFF00000000
0000FFFE00000000
0001FFFC00000000
0003FFF800000000
0007FFF000000000
000FFFE000000000
001FFFC000000000
003FFF8000000000
007FFF0000000000
00FFFE0000000000
01FFFC0000000000
03FFF80000000000
07FFF00000000000
0FFFE00000000000
1FFFC00000000000
3FFFFFFFFFFFFFFC
7FFFFFFFFFFFFFFC
FFFFFFFFFFFFFFFC
FFFFFFFFFFFFFFFC
FFFFFFFFFFFFFFFC
FFFFFFFFFFFFFFFC
FFFFFFFFFFFFFFFC
FFFFFFFFFFFFFFFC
FFFFFFFFFFFFFFFC
7FFFFFFFFFFFFFFC
1FFFFFFFFFFFFFFC
ENDCHAR
STARTCHAR braceleft
ENCODING 123
SWIDTH 337 0
DWIDTH 30 0
BBX 19 80 5 -8
BITMAP
001FE0
007FE0
00FFE0
01FFE0
03FFE0
03FFE0
07FF00
07FC00
07F800
07F800
07F000
07F000
07F000
07F000
07F000
07F000
07F000
07F000
07F000
07F000
07F000
07F000
07F000
07F000
07F000
07F000
07F000
07F000
07F000
07F000
07F000
07F000
07F000
07F000
07F000
07F000
0FF000
FFF000
FFE000
FFC000
FFC000
FFE000
FFF000
0FF000
07F000
07F000
07F000
07F000
07F000
07F000
07F000
07F000
07F000
07F000
07F000
07F000
07F000
07F000
07F000
07F000
07F000
07F000
07F000
07F000
07F000
07F000
07F000
07F000
07F000
07F000
07F000
07F800
07F800
07FE00
03FFE0
03FFE0
01FFE0
00FFE0
007FE0
001FE0
ENDCHAR
STARTCHAR bar
ENCODING 124
SWIDTH 297 0
DWIDTH 26 0
BBX 6 81 10 -8
BITMAP
FC
FC
FC
FC
FC
FC
FC
FC
FC
FC
FC
FC
FC
FC
FC
FC
FC
FC
FC
FC
FC
FC
FC
FC
FC
FC
FC
FC
FC
FC
FC
FC
FC
FC
FC
FC
FC
FC
FC
FC
FC
FC
FC
FC
FC
FC
FC
FC
FC
FC
FC
FC
FC
FC
FC
FC
FC
FC
FC
FC
FC
FC
FC
FC
FC
FC
FC
FC
FC
FC
FC
FC
FC
FC
FC
FC
FC
FC
FC
FC
FC
ENDCHAR
STARTCHAR braceright
ENCODING 125
SWIDTH 337 0
DWIDTH 30 0
BBX 19 80 5 -8
BITMAP
FF0000
FFC000
FFF000
FFF000
FFF800
FFFC00
0FFC00
03FC00
03FC00
01FE00
01FE00
01FE00
01FE00
01FE00
01FE00
01FE00
01FE00
01FE00
01FE00
01FE00
01FE00
01FE00
01FE00
01FE00
01FE00
01FE00
01FE00
01FE00
01FE00
01FE00
01FE00
01FE00
01FE00
01FE00
01FE00
01FE00
00FF00
00FFE0
00FFE0
003FE0
003FE0
007FE0
00FFE0
00FF00
01FE00
01FE00
01FE00
01FE00
01FE00
01FE00
01FE00
01FE00
01FE00
01FE00
01FE00
01FE00
01FE00
01FE00
01FE00
01FE00
01FE00
01FE00
01FE00
01FE00
01FE00
01FE00
01FE00
01FE00
01FE00
01FE00
01FE00
01FC00
03FC00
0FFC00
FFFC00
FFF800
FFF800
FFF000
FFC000
FF0000
ENDCHAR
STARTCHAR asciitilde
ENCODING 126
SWIDTH 691 0
DWIDTH 61 0
BBX 49 14 6 26
BITMAP
00FF8000000000
0FFFF000000080
3FFFFE00000180
7FFFFFC0000380
FFFFFFF0001F80
FFFFFFFF007F80
FFFFFFFFFFFF80
FFFFFFFFFFFF80
FF007FFFFFFF80
F8000FFFFFFF80
E00001FFFFFF00
C000003FFFFE00
80000007FFF800
00000000FF8000
ENDCHAR
STARTCHAR nonbreakingspace
ENCODING 160
SWIDTH 294 0
DWIDTH 26 0
BBX 1 1 0 0
BITMAP
00
ENDCHAR
STARTCHAR exclamdown
ENCODING 161
SWIDTH 298 0
DWIDTH 26 0
BBX 12 64 7 0
BITMAP
0F80
3FC0
7FE0
7FF0
FFF0
FFF0
FFF0
FFF0
7FF0
7FE0
3FC0
0F80
0000
0000
0000
0000
0000
0000
0000
0000
7FF0
7FF0
7FF0
7FF0
7FF0
7FF0
7FF0
7FF0
7FF0
7FF0
7FF0
7FF0
7FF0
7FF0
7FF0
7FF0
7FF0
7FF0
7FF0
7FF0
7FF0
7FF0
7FF0
7FF0
7FF0
7FF0
7FF0
7FF0
7FF0
7FF0
7FF0
7FF0
7FF0
7FF0
7FF0
7FF0
7FF0
7FF0
7FF0
7FF0
7FF0
7FF0
7FF0
7FF0
ENDCHAR
STARTCHAR cent
ENCODING 162
SWIDTH 692 0
DWIDTH 61 0
BBX 53 64 4 0
BITMAP
00000001F00000
00000001F00000
00000001F00000
00000001F00000
00000001F00000
00000001F00000
00001FFFFFFFF8
0000FFFFFFFFF8
0007FFFFFFFFF8
001FFFFFFFFFF8
003FFFFFFFFFF8
00FFFFFFFFFFF8
01FFFFFFFFFFF8
03FFFFFFFFFFF8
07FFFFFFFFFFF8
07FFF801F00000
0FFFC001F00000
1FFF0001F00000
1FFE0001F00000
3FF80001F00000
3FF00001F00000
7FF00001F00000
7FE00001F00000
7FE00001F00000
FFC00001F00000
FFC00001F00000
FF800001F00000
FF800001F00000
FF800001F00000
FF800001F00000
FF800001F00000
FF800001F00000
FF800001F00000
FF800001F00000
FF800001F00000
FF800001F00000
FF800001F00000
FF800001F00000
FFC00001F00000
7FC00001F00000
7FE00001F00000
7FE00001F00000
3FF00001F00000
3FF80001F00000
1FFC0001F00000
1FFE0001F00000
0FFF0001F00000
0FFFC001F00000
07FFF801F00000
03FFFFFFFFFFF8
01FFFFFFFFFFF8
00FFFFFFFFFFF8
007FFFFFFFFFF8
003FFFFFFFFFF8
000FFFFFFFFFF8
0003FFFFFFFFF8
0000FFFFFFFFF8
00001FFFFFFFF8
00000001F00000
00000001F00000
00000001F00000
00000001F00000
00000001F00000
00000001F00000
ENDCHAR
STARTCHAR sterling
ENCODING 163
SWIDTH 709 0
DWIDTH 62 0
BBX 56 64 3 0
BITMAP
000003FFFFFC00
00003FFFFFFC00
0000FFFFFFFC00
0003FFFFFFFC00
0007FFFFFFFC00
000FFFFFFFFC00
001FFFFFFFFC00
003FFFFFFFFC00
003FFFFFFFFC00
007FFFFFFFFC00
007FFFFFFFFC00
007FFF80000000
00FFFC00000000
00FFF800000000
00FFF000000000
00FFE000000000
01FFE000000000
01FFC000000000
01FFC000000000
01FFC000000000
01FFC000000000
01FFC000000000
01FFC000000000
01FFC000000000
01FFC000000000
01FFC000000000
01FFC000000000
1FFFFFFFF00000
1FFFFFFFF00000
1FFFFFFFF00000
1FFFFFFFF00000
1FFFFFFFF00000
1FFFFFFFF00000
1FFFFFFFF00000
1FFFFFFFF00000
01FFC000000000
01FFC000000000
01FFC000000000
01FFC000000000
01FFC000000000
01FFC000000000
01FFC000000000
01FFC000000000
01FFC000000000
01FFC000000000
01FFC000000000
01FFC000000000
01FFC000000000
01FFC000000000
01FFC000000000
01FFC000000000
01FFC000000000
01FFC000000000
FFFFFFFFFFFFFF
FFFFFFFFFFFFFF
FFFFFFFFFFFFFF
FFFFFFFFFFFFFF
FFFFFFFFFFFFFF
FFFFFFFFFFFFFF
FFFFFFFFFFFFFF
FFFFFFFFFFFFFF
FFFFFFFFFFFFFF
FFFFFFFFFFFFFF
FFFFFFFFFFFFFF
ENDCHAR
STARTCHAR yen
ENCODING 165
SWIDTH 787 0
DWIDTH 69 0
BBX 65 64 2 0
BITMAP
FFF8000000000FFF80
7FFC000000001FFF00
7FFE000000003FFE00
3FFE000000003FFE00
1FFF000000007FFC00
1FFF80000000FFF800
0FFF80000000FFF800
07FFC0000001FFF000
07FFE0000003FFE000
03FFE0000003FFE000
01FFF0000007FFC000
01FFF8000007FF8000
00FFF800000FFF8000
007FFC00001FFF0000
003FFE00001FFE0000
003FFE00003FFE0000
001FFF00007FFC0000
000FFF00007FF80000
000FFF8000FFF80000
0007FFC000FFF00000
0003FFC001FFE00000
0003FFE003FFE00000
0001FFF003FFC00000
0000FFF007FF800000
0000FFF80FFF800000
00007FFC0FFF000000
00003FFC1FFE000000
00003FFE3FFE000000
00001FFF3FFC000000
00000FFF7FF8000000
00000FFFFFF8000000
000007FFFFF0000000
000003FFFFE0000000
000003FFFFE0000000
007FFFFFFFFFFF8000
007FFFFFFFFFFF8000
007FFFFFFFFFFF8000
007FFFFFFFFFFF8000
007FFFFFFFFFFF8000
007FFFFFFFFFFF8000
007FFFFFFFFFFF8000
007FFFFFFFFFFF8000
0000001FFC00000000
0000001FFC00000000
0000001FFC00000000
0000001FFC00000000
0000001FFC00000000
0000001FFC00000000
0000001FFC00000000
0000001FFC00000000
007FFFFFFFFFFF8000
007FFFFFFFFFFF8000
007FFFFFFFFFFF8000
007FFFFFFFFFFF8000
007FFFFFFFFFFF8000
007FFFFFFFFFFF8000
007FFFFFFFFFFF8000
007FFFFFFFFFFF8000
0000001FFC00000000
0000001FFC00000000
0000001FFC00000000
0000001FFC00000000
0000001FFC00000000
0000001FFC00000000
ENDCHAR
STARTCHAR brokenbar
ENCODING 166
SWIDTH 297 0
DWIDTH 26 0
BBX 6 81 10 -8
BITMAP
FC
FC
FC
FC
FC
FC
FC
FC
FC
FC
FC
FC
FC
FC
FC
FC
FC
FC
FC
FC
FC
FC
FC
FC
FC
FC
FC
FC
FC
FC
FC
FC
FC
FC
FC
FC
00
00
00
00
00
00
00
00
00
00
FC
FC
FC
FC
FC
FC
FC
FC
FC
FC
FC
FC
FC
FC
FC
FC
FC
FC
FC
FC
FC
FC
FC
FC
FC
FC
FC
FC
FC
FC
FC
FC
FC
FC
FC
ENDCHAR
STARTCHAR section
ENCODING 167
SWIDTH 773 0
DWIDTH 68 0
BBX 59 82 4 -18
BITMAP
0003FFFFFFFFF000
003FFFFFFFFFF000
00FFFFFFFFFFF000
01FFFFFFFFFFF000
07FFFFFFFFFFF000
0FFFFFFFFFFFF000
0FFFFFFFFFFFF000
1FFFFFFFFFFFF000
3FFFFFFFFFFFF000
3FFFFFFFFFFFF000
7FFFFFFFFFFFF000
7FFFC00000000000
7FFC000000000000
7FF8000000000000
FFF0000000000000
FFE0000000000000
FFE0000000000000
FFE0000000000000
FFE0000000000000
FFE0000000000000
7FE0000000000000
7FE0000000000000
7FF0000000000000
7FF0000000000000
3FFC000000000000
3FFE000000000000
1FFFFFFFFFFC0000
0FFFFFFFFFFF8000
07FFFFFFFFFFC000
03FFFFFFFFFFF000
01FFFFFFFFFFF800
00FFFFFFFFFFF800
01FFFFFFFFFFFC00
03FFFFFFFFFFFE00
07FF8000003FFE00
07FE0000000FFE00
0FFC00000007FE00
0FFC00000007FF00
0FF800000003FF00
0FF800000003FF00
1FF800000003FF00
1FF800000003FF00
1FF800000003FF00
1FF800000003FE00
1FFC00000007FE00
0FFE00000007FE00
0FFF0000000FFC00
0FFF8000003FFC00
07FFFFFFFFFFF800
07FFFFFFFFFFF000
03FFFFFFFFFFE000
03FFFFFFFFFFF000
01FFFFFFFFFFF800
007FFFFFFFFFFC00
003FFFFFFFFFFE00
0003FFFFFFFFFF00
00000000000FFF80
000000000003FF80
000000000001FFC0
000000000001FFC0
000000000000FFC0
000000000000FFE0
000000000000FFE0
000000000000FFE0
000000000000FFE0
000000000000FFE0
000000000000FFE0
000000000001FFE0
000000000003FFE0
000000000007FFC0
00000000007FFFC0
01FFFFFFFFFFFFC0
01FFFFFFFFFFFF80
01FFFFFFFFFFFF80
01FFFFFFFFFFFF00
01FFFFFFFFFFFF00
01FFFFFFFFFFFE00
01FFFFFFFFFFFC00
01FFFFFFFFFFF800
01FFFFFFFFFFE000
01FFFFFFFFFF8000
01FFFFFFFFFC0000
ENDCHAR
STARTCHAR dieresis
ENCODING 168
SWIDTH 393 0
DWIDTH 35 0
BBX 25 8 5 71
BITMAP
3C003E00
FF007F00
FF00FF80
FF80FF80
FF80FF80
FF00FF80
FF007F00
3E003E00
ENDCHAR
STARTCHAR copyright
ENCODING 169
SWIDTH 829 0
DWIDTH 73 0
BBX 65 66 4 -2
BITMAP
0000001FFC00000000
000001FFFFC0000000
00000FFFFFF8000000
00003FE003FE000000
0000FE00003F800000
0003F0000007E00000
0007C0000001F00000
000F80000000F80000
003E000000003E0000
007C000000001F0000
00F8000000000F8000
00F000000000078000
01E00000000003C000
03C00000000001E000
07800000000000F000
070000000000007000
0F0000000000007800
0E0000000000003800
1C00000FFFE0001C00
1C0000FFFFE0001C00
3C0001FFFFE0000E00
380007FFFFE0000E00
78000FF00000000F00
70001FC00000000700
70003F800000000700
F0003E000000000700
F0007E000000000380
E0007C000000000380
E000F8000000000380
E000F8000000000380
E000F8000000000380
E000F8000000000380
E000F8000000000380
E000F8000000000380
E000F8000000000380
E000F8000000000380
E000F8000000000380
E00078000000000380
E0007C000000000380
F0007E000000000380
70003E000000000700
70001F800000000700
70001FC00000000700
78000FF80000000F00
380003FFFFE0000E00
380001FFFFE0000E00
1C00007FFFE0001C00
1C00000FFFE0001C00
0E0000000000003800
0F0000000000007800
070000000000007000
07800000000000F000
03C00000000001E000
01E00000000003C000
00F000000000078000
0078000000000F0000
003C000000001E0000
001E000000003C0000
000F80000000F80000
0007E0000001F00000
0003F8000007E00000
0000FE00003F800000
00003FE003FE000000
00000FFFFFF8000000
000001FFFFC0000000
0000001FFC00000000
ENDCHAR
STARTCHAR ordfeminine
ENCODING 170
SWIDTH 604 0
DWIDTH 53 0
BBX 47 36 3 26
BITMAP
000003800000
000007C00000
00000FE00000
00000FE00000
00001FF00000
00003FF80000
00003FF80000
00007FFC0000
00007FFC0000
0000FEFE0000
0001FCFF0000
0001FC7F0000
0003F87F8000
0003F83F8000
0007F01FC000
0007E01FE000
000FE00FE000
001FC00FF000
001FC007F000
003F8003F800
003F0003FC00
007F0001FC00
00FE0FFFFE00
00FE1FFFFE00
01FC1FFFFF00
01FC3FFFFF80
03F87FFFFF80
07F000003FC0
07F000001FC0
0FE000000FE0
0FE000000FF0
1FC0000007F0
3F80000007F8
3F80000003F8
7F00000001FC
FF00000001FE
ENDCHAR
STARTCHAR guillemotleft
ENCODING 171
SWIDTH 629 0
DWIDTH 55 0
BBX 48 33 4 16
BITMAP
000000800001
000003800007
00000F80001F
00001F80003F
00007F8000FF
0001FF8003FF
0003FE0007FC
000FF8001FF0
003FE0007FC0
007FC000FF80
01FF0003FE00
07FC000FF800
0FF0001FE000
3FE0007FC000
7F8001FF0000
FE0001FC0000
FC0001F80000
FE0001FC0000
7F8000FF0000
1FE0003FC000
0FF8001FF000
03FC0007F800
00FF0001FE00
007FC000FF80
001FE0003FE0
0007F8000FF0
0003FE0007FC
0000FF8001FF
00003F80007F
00001F80003F
00000780000F
000001800003
000000800001
ENDCHAR
STARTCHAR registered
ENCODING 174
SWIDTH 585 0
DWIDTH 51 0
BBX 40 40 6 24
BITMAP
0001FF0000
000FFFE000
003FFFF800
00FF00FE00
01F8001F00
03E0000FC0
07800003E0
0F000001F0
1E000000F0
1C00000078
3C0000003C
781FFFC03C
701FFFF01C
701FFFF01E
F01C00780E
E01C00380E
E01C00380F
E01C00380F
E01C003807
E01C007807
E01C7FF007
E01C7FE007
E01C7FC00F
E01C03E00F
E01C01F00E
F01C00F80E
701C003C1E
700000021C
780000003C
3C0000003C
1C00000078
1E000000F0
0F000001E0
07800003E0
03E00007C0
01F8001F80
00FF00FE00
003FFFFC00
000FFFE000
0001FF0000
ENDCHAR
STARTCHAR macron
ENCODING 175
SWIDTH 362 0
DWIDTH 32 0
BBX 22 5 5 71
BITMAP
FFFFFC
FFFFFC
FFFFFC
FFFFFC
FFFFFC
ENDCHAR
STARTCHAR degree
ENCODING 176
SWIDTH 361 0
DWIDTH 32 0
BBX 24 24 4 40
BITMAP
01FF00
07FFE0
1FFFF0
3FFFF8
3FFFFC
7F01FE
7E007E
FC003F
F8003F
F8001F
F8001F
F8001F
F8001F
F8001F
F8001F
F8003F
FC003F
7E007E
7F01FE
7FFFFC
3FFFFC
1FFFF0
07FFE0
01FF00
ENDCHAR
STARTCHAR plusminus
ENCODING 177
SWIDTH 690 0
DWIDTH 61 0
BBX 49 62 6 -4
BITMAP
000007F0000000
000007F0000000
000007F0000000
000007F0000000
000007F0000000
000007F0000000
000007F0000000
000007F0000000
000007F0000000
000007F0000000
000007F0000000
000007F0000000
000007F0000000
000007F0000000
000007F0000000
000007F0000000
000007F0000000
000007F0000000
000007F0000000
000007F0000000
000007F0000000
000007F0000000
FFFFFFFFFFFF80
FFFFFFFFFFFF80
FFFFFFFFFFFF80
FFFFFFFFFFFF80
FFFFFFFFFFFF80
FFFFFFFFFFFF80
FFFFFFFFFFFF80
000007F0000000
000007F0000000
000007F0000000
000007F0000000
000007F0000000
000007F0000000
000007F0000000
000007F0000000
000007F0000000
000007F0000000
000007F0000000
000007F0000000
000007F0000000
000007F0000000
000007F0000000
000007F0000000
000007F0000000
000007F0000000
000007F0000000
000007F0000000
000007F0000000
00000000000000
00000000000000
00000000000000
00000000000000
00000000000000
FFFFFFFFFFFF80
FFFFFFFFFFFF80
FFFFFFFFFFFF80
FFFFFFFFFFFF80
FFFFFFFFFFFF80
FFFFFFFFFFFF80
FFFFFFFFFFFF80
ENDCHAR
STARTCHAR twosuperior
ENCODING 178
SWIDTH 442 0
DWIDTH 39 0
BBX 31 32 4 33
BITMAP
FFFFFF80
FFFFFFF0
FFFFFFF8
FFFFFFFC
FFFFFFFC
FFFFFFFE
000000FE
0000007E
0000007E
0000003E
0000007E
0000007E
000000FE
03FFFFFC
0FFFFFFC
3FFFFFF8
3FFFFFE0
7FFFFF80
7E000000
FC000000
FC000000
F8000000
F8000000
F8000000
F8000000
F8000000
FFFFFFFE
FFFFFFFE
FFFFFFFE
FFFFFFFE
FFFFFFFE
FFFFFFFE
ENDCHAR
STARTCHAR threesuperior
ENCODING 179
SWIDTH 443 0
DWIDTH 39 0
BBX 33 32 3 33
BITMAP
FFFFFFC000
FFFFFFF000
FFFFFFFC00
FFFFFFFE00
FFFFFFFE00
FFFFFFFF00
000000FF00
0000003F00
0000003F00
0000003F00
0000003F00
0000003E00
0000007E00
00FFFFFC00
00FFFFF000
00FFFFF800
00FFFFFC00
00FFFFFE00
0000007F00
0000003F00
0000001F00
0000001F80
0000001F80
0000003F00
0000003F00
000000FF00
FFFFFFFF00
FFFFFFFE00
FFFFFFFE00
FFFFFFFC00
FFFFFFF000
FFFFFFC000
ENDCHAR
STARTCHAR acute
ENCODING 180
SWIDTH 362 0
DWIDTH 32 0
BBX 22 12 5 68
BITMAP
000004
00003C
0001FC
001FFC
00FFFC
07FFFC
7FFFFC
FFFFF8
FFFF00
FFE000
FE0000
C00000
ENDCHAR
STARTCHAR paragraph
ENCODING 182
SWIDTH 629 0
DWIDTH 55 0
BBX 46 73 4 -9
BITMAP
003FFFFFFFFC
01FFFFFFFFFC
03FFFFFFFFFC
0FFFFFFFFFFC
1FFFFFFFFFFC
3FFFFFFFFFFC
3FFFFFFFFFFC
7FFFFFF001FC
7FFFFFF001FC
7FFFFFF001FC
FFFFFFF001FC
FFFFFFF001FC
FFFFFFF001FC
FFFFFFF001FC
FFFFFFF001FC
FFFFFFF001FC
FFFFFFF001FC
FFFFFFF001FC
FFFFFFF001FC
7FFFFFF001FC
7FFFFFF001FC
7FFFFFF001FC
3FFFFFF001FC
3FFFFFF001FC
1FFFFFF001FC
0FFFFFF001FC
07FFFFF001FC
01FFFFF001FC
007FFFF001FC
000007F001FC
000007F001FC
000007F001FC
000007F001FC
000007F001FC
000007F001FC
000007F001FC
000007F001FC
000007F001FC
000007F001FC
000007F001FC
000007F001FC
000007F001FC
000007F001FC
000007F001FC
000007F001FC
000007F001FC
000007F001FC
000007F001FC
000007F001FC
000007F001FC
000007F001FC
000007F001FC
000007F001FC
000007F001FC
000007F001FC
000007F001FC
000007F001FC
000007F001FC
000007F001FC
000007F001FC
000007F001FC
000007F001FC
000007F001FC
000007F001FC
000007F001FC
000007F001FC
000007F001FC
000007F001FC
000007F001FC
000007F001FC
000007F001FC
000007F001FC
000007F001FC
ENDCHAR
STARTCHAR periodcentered
ENCODING 183
SWIDTH 262 0
DWIDTH 23 0
BBX 12 12 6 26
BITMAP
1F00
7FC0
7FC0
FFE0
FFE0
FFE0
FFF0
FFE0
FFE0
7FC0
7FC0
1F00
ENDCHAR
STARTCHAR cedilla
ENCODING 184
SWIDTH 219 0
DWIDTH 19 0
BBX 11 14 4 -18
BITMAP
FFE0
FFE0
7FC0
7FC0
3FC0
3F80
1F80
1F00
1F00
0E00
0E00
0400
0400
0400
ENDCHAR
STARTCHAR onesuperior
ENCODING 185
SWIDTH 222 0
DWIDTH 20 0
BBX 13 33 2 33
BITMAP
FE00
FF80
FFE0
FFE0
FFF0
FFF8
03F8
01F8
00F8
00F8
00F8
00F8
00F8
00F8
00F8
00F8
00F8
00F8
00F8
00F8
00F8
00F8
00F8
00F8
00F8
00F8
00F8
00F8
00F8
00F8
00F8
00F8
00F8
ENDCHAR
STARTCHAR ordmasculine
ENCODING 186
SWIDTH 592 0
DWIDTH 52 0
BBX 43 35 5 26
BITMAP
000FFFFC0000
007FFFFF8000
01FFFFFFE000
03FFFFFFF000
07FFFFFFF800
0FFFFFFFFC00
1FF80007FE00
3FE00001FF00
3FC000007F00
7F8000003F80
7F0000003F80
FE0000001FC0
FE0000001FC0
FC0000000FC0
FC0000000FC0
FC0000000FC0
FC0000000FC0
FC0000000FE0
FC0000000FC0
FC0000000FC0
FC0000000FC0
FC0000000FC0
FE0000001FC0
7E0000001F80
7F0000003F80
7F8000003F80
3FC00000FF00
1FE00001FF00
1FF80007FE00
0FFFFFFFFC00
07FFFFFFF800
03FFFFFFF000
00FFFFFFC000
003FFFFF8000
0007FFFC0000
ENDCHAR
STARTCHAR guillemotright
ENCODING 187
SWIDTH 629 0
DWIDTH 55 0
BBX 48 33 4 16
BITMAP
800001000000
C00001800000
F00001E00000
FC0001F80000
FE0001FC0000
FF8001FF0000
3FE0007FC000
1FF0003FE000
07FC000FF800
01FF0003FE00
007FC001FF00
003FE0007FC0
000FF8001FF0
0003FC0007F8
0000FF0003FE
00007F8000FF
00001F80003F
00007F0000FE
0001FE0003FC
0003FC0007F8
000FF0001FE0
003FC0007F80
00FF8001FF00
01FE0003FC00
07F8000FF000
1FF0003FE000
7FC000FF8000
FF0001FE0000
FE0001FC0000
F80001F00000
E00001C00000
C00001800000
800002000000
ENDCHAR
STARTCHAR onequarter
ENCODING 188
SWIDTH 972 0
DWIDTH 86 0
BBX 78 74 4 -6
BITMAP
000000000000007F8000
00000000000000FF0000
01FC0000000000FE0000
01FF0000000001FC0000
01FF8000000003F80000
01FFC000000007F80000
01FFE00000000FF00000
01FFE00000000FE00000
000FF00000001FC00000
0003F00000003FC00000
0003F00000007F800000
0003F00000007F000000
0001F0000000FE000000
0001F0000001FC000000
0001F0000003FC000000
0001F0000007F8000000
0001F0000007F0000000
0001F000000FE0000000
0001F000001FE0000000
0001F000003FC0000000
0001F000007F80000000
0001F000007F00000000
0001F00000FE00000000
0001F00001FE00000000
0001F00003FC00000000
0001F00003F800000000
0001F00007F000000000
0001F0000FF000000000
0001F0001FE000000000
0001F0003FC000000000
0001F0003F8000000000
0001F0007F0000000000
0001F000FF0000000000
0001F001FE0000000000
0001F001FC0000000000
00000003F80000000000
00000007F80000000000
0000000FF00F80000F80
0000001FE00F80000F80
0000001FC00F80000F80
0000003F800F80000F80
0000007F800F80000F80
000000FF000F80000F80
000000FE000F80000F80
000001FC000F80000F80
000003FC000F80000F80
000007F8000F80000F80
00000FF0000F80000F80
00000FE0000F80000F80
00001FC0000F80000F80
00003FC0000F80000F80
00007F80000F80000F80
0000FF00000FC0000F80
0000FE00000FC0000F80
0001FE000007F0000F80
0003FC000007FFFFFFFC
0007F8000003FFFFFFFC
0007F0000003FFFFFFFC
000FE0000000FFFFFFFC
001FE00000003FFFFFFC
003FC000000000000F80
007F8000000000000F80
007F0000000000000F80
00FF0000000000000F80
01FE0000000000000F80
03FC0000000000000F80
03F80000000000000F80
07F00000000000000F80
0FF00000000000000F80
1FE00000000000000000
3FC00000000000000000
3F800000000000000000
7F800000000000000000
FF000000000000000000
ENDCHAR
STARTCHAR onehalf
ENCODING 189
SWIDTH 948 0
DWIDTH 83 0
BBX 76 74 4 -6
BITMAP
000000000000007F8000
00000000000000FF0000
01FC0000000000FE0000
01FF0000000001FC0000
01FF8000000003F80000
01FFC000000007F80000
01FFE00000000FF00000
01FFE00000000FE00000
000FF00000001FC00000
0003F00000003FC00000
0003F00000007F800000
0003F00000007F000000
0001F0000000FE000000
0001F0000001FC000000
0001F0000003FC000000
0001F0000007F8000000
0001F0000007F0000000
0001F000000FE0000000
0001F000001FE0000000
0001F000003FC0000000
0001F000007F80000000
0001F000007F00000000
0001F00000FE00000000
0001F00001FE00000000
0001F00003FC00000000
0001F00003F800000000
0001F00007F000000000
0001F0000FF000000000
0001F0001FE000000000
0001F0003FC000000000
0001F0003F8000000000
0001F0007F0000000000
0001F000FF0000000000
0001F001FE0000000000
0001F001FC0000000000
00000003F80000000000
00000007F80000000000
0000000FF007FFFFFC00
0000001FE007FFFFFF00
0000001FC007FFFFFF80
0000003F8007FFFFFFC0
0000007F8007FFFFFFE0
000000FF0007FFFFFFE0
000000FE000000000FE0
000001FC0000000007F0
000003FC0000000003F0
000007F80000000003F0
00000FF00000000003F0
00000FE00000000007E0
00001FC0000000000FE0
00003FC000003FFFFFE0
00007F800000FFFFFFC0
0000FF000001FFFFFF80
0000FE000003FFFFFF00
0001FE000007FFFFF800
0003FC000007F0000000
0007F8000007C0000000
0007F0000007C0000000
000FE000000FC0000000
001FE000000FC0000000
003FC000000FC0000000
007F8000000FC0000000
007F0000000FC0000000
00FF0000000FFFFFFFE0
01FE0000000FFFFFFFE0
03FC0000000FFFFFFFE0
03F80000000FFFFFFFE0
07F00000000FFFFFFFE0
0FF00000000FFFFFFFE0
1FE00000000000000000
3FC00000000000000000
3F800000000000000000
7F800000000000000000
FF000000000000000000
ENDCHAR
STARTCHAR threequarters
ENCODING 190
SWIDTH 1029 0
DWIDTH 91 0
BBX 83 74 4 -6
BITMAP
0000000000000003FC0000
0000000000000007F80000
0000000000000007F00000
FFFFFF800000000FE00000
FFFFFFF00000001FE00000
FFFFFFF80000003FC00000
FFFFFFFC0000007F800000
FFFFFFFE0000007F000000
FFFFFFFE000000FE000000
000000FE000001FE000000
0000007E000003FC000000
0000003E000003F8000000
0000003E000007F0000000
0000003E00000FE0000000
0000007E00001FE0000000
000000FC00003FC0000000
01FFFFF800003F80000000
01FFFFF000007F00000000
01FFFFF00000FF00000000
01FFFFFC0001FE00000000
01FFFFFE0003FC00000000
000000FE0003F800000000
0000007F0007F000000000
0000003F000FF000000000
0000003F001FE000000000
0000003F001FC000000000
0000003F003F8000000000
0000007F007F8000000000
000001FE00FF0000000000
FFFFFFFE01FE0000000000
FFFFFFFE01FC0000000000
FFFFFFFC03F80000000000
FFFFFFF807F80000000000
FFFFFFF00FF00000000000
FFFFFF800FE00000000000
000000001FC00000000000
000000003FC00000000000
000000007F807C00007C00
00000000FF007C00007C00
00000000FE007C00007C00
00000001FC007C00007C00
00000003FC007C00007C00
00000007F8007C00007C00
00000007F0007C00007C00
0000000FE0007C00007C00
0000001FE0007C00007C00
0000003FC0007C00007C00
0000007F80007C00007C00
0000007F00007C00007C00
000000FE00007C00007C00
000001FE00007C00007C00
000003FC00007C00007C00
000007F800007E00007C00
000007F000007E00007C00
00000FF000003F80007C00
00001FE000003FFFFFFFE0
00003FC000001FFFFFFFE0
00003F8000000FFFFFFFE0
00007F00000007FFFFFFE0
0000FF00000001FFFFFFE0
0001FE0000000000007C00
0003FC0000000000007C00
0003F80000000000007C00
0007F80000000000007C00
000FF00000000000007C00
001FE00000000000007C00
001FC00000000000007C00
003F800000000000007C00
007F800000000000007C00
00FF000000000000000000
01FE000000000000000000
01FC000000000000000000
03FC000000000000000000
07F8000000000000000000
ENDCHAR
STARTCHAR questiondown
ENCODING 191
SWIDTH 776 0
DWIDTH 68 0
BBX 62 64 2 0
BITMAP
000000000000F800
000000000001FE00
000000000003FF00
000000000007FF00
000000000007FF80
000000000007FF80
000000000007FF80
000000000007FF80
000000000007FF00
000000000003FF00
000000000001FE00
000000000000F800
0000000000000000
0000000000000000
0000000000000000
0000000000000000
0000000000000000
0000000000000000
0000000000000000
0000000000000000
0000000000000000
0000000000000000
000000000003FF00
000000000003FF00
000000000003FF00
000000000003FF00
000000000003FF00
000000000007FF00
00000000000FFF00
0001FFFFFFFFFF00
001FFFFFFFFFFE00
007FFFFFFFFFFE00
01FFFFFFFFFFFC00
03FFFFFFFFFFFC00
07FFFFFFFFFFF800
0FFFFFFFFFFFE000
1FFFFFFFFFFFC000
1FFFFFFFFFFE0000
3FFF800000000000
3FFE000000000000
7FFC000000000000
7FF8000000000000
7FF0000000000000
7FF0000000000000
7FF0000000000000
FFF0000000000000
FFF0000000000000
FFF0000000000000
7FF0000000000000
7FF8000000000000
7FFC000000000000
7FFE000000000000
7FFF800000000000
3FFFFFFFFFFFFFFC
3FFFFFFFFFFFFFFC
1FFFFFFFFFFFFFFC
1FFFFFFFFFFFFFFC
0FFFFFFFFFFFFFFC
07FFFFFFFFFFFFFC
03FFFFFFFFFFFFFC
01FFFFFFFFFFFFFC
007FFFFFFFFFFFFC
001FFFFFFFFFFFFC
0003FFFFFFFFFFFC
ENDCHAR
STARTCHAR Agrave
ENCODING 192
SWIDTH 989 0
DWIDTH 87 0
BBX 85 80 1 0
BITMAP
0000000800000000000000
0000000780000000000000
00000007F0000000000000
00000007FE000000000000
00000007FFE00000000000
00000007FFFC0000000000
00000007FFFF8000000000
00000003FFFFE000000000
000000001FFFE000000000
0000000001FFE000000000
00000000000FE000000000
0000000000006000000000
0000000000000000000000
0000000000000000000000
0000000000000000000000
0000000000F80000000000
0000000001FC0000000000
0000000003FE0000000000
0000000007FF0000000000
000000000FFF0000000000
000000000FFF8000000000
000000001FFFC000000000
000000001FFFC000000000
000000003FFFE000000000
000000007FFFE000000000
000000007FFFF000000000
00000000FFFFF800000000
00000000FFFFF800000000
00000001FFFFFC00000000
00000003FFFFFC00000000
00000003FFFFFE00000000
00000007FFFFFF00000000
00000007FF9FFF00000000
0000000FFF9FFF80000000
0000001FFF0FFF80000000
0000001FFE07FFC0000000
0000003FFE07FFE0000000
0000003FFC03FFE0000000
0000007FFC03FFF0000000
000000FFF801FFF0000000
000000FFF000FFF8000000
000001FFF000FFFC000000
000001FFE0007FFC000000
000003FFE0007FFE000000
000007FFC0003FFE000000
000007FF80001FFF000000
00000FFF80001FFF800000
00000FFF00000FFF800000
00001FFF00000FFFC00000
00003FFE000007FFC00000
00003FFE000003FFE00000
00007FFC000003FFF00000
00007FF8000001FFF00000
0000FFF8000001FFF80000
0001FFF0000000FFF80000
0001FFF00FFFFFFFFC0000
0003FFE00FFFFFFFFE0000
0003FFC01FFFFFFFFE0000
0007FFC01FFFFFFFFF0000
000FFF803FFFFFFFFF0000
000FFF807FFFFFFFFF8000
001FFF007FFFFFFFFFC000
001FFE00FFFFFFFFFFC000
003FFE01FFFFFFFFFFE000
003FFC0000000003FFE000
007FFC0000000001FFF000
00FFF80000000001FFF800
00FFF00000000000FFF800
01FFF00000000000FFFC00
01FFE000000000007FFC00
03FFE000000000003FFE00
07FFC000000000003FFF00
07FF8000000000001FFF00
0FFF8000000000001FFF80
0FFF0000000000000FFF80
1FFF00000000000007FFC0
3FFE00000000000007FFE0
3FFC00000000000003FFE0
7FFC00000000000003FFF0
FFF800000000000001FFF8
ENDCHAR
STARTCHAR Aacute
ENCODING 193
SWIDTH 989 0
DWIDTH 87 0
BBX 85 80 1 0
BITMAP
0000000000000100000000
0000000000000F00000000
0000000000007F00000000
000000000003FF00000000
00000000003FFF00000000
0000000001FFFF00000000
000000000FFFFF00000000
000000003FFFFE00000000
000000003FFFC000000000
000000003FFC0000000000
000000003F800000000000
0000000030000000000000
0000000000000000000000
0000000000000000000000
0000000000000000000000
0000000000F80000000000
0000000001FC0000000000
0000000003FE0000000000
0000000007FF0000000000
000000000FFF0000000000
000000000FFF8000000000
000000001FFFC000000000
000000001FFFC000000000
000000003FFFE000000000
000000007FFFE000000000
000000007FFFF000000000
00000000FFFFF800000000
00000000FFFFF800000000
00000001FFFFFC00000000
00000003FFFFFC00000000
00000003FFFFFE00000000
00000007FFFFFF00000000
00000007FF9FFF00000000
0000000FFF9FFF80000000
0000001FFF0FFF80000000
0000001FFE07FFC0000000
0000003FFE07FFE0000000
0000003FFC03FFE0000000
0000007FFC03FFF0000000
000000FFF801FFF0000000
000000FFF000FFF8000000
000001FFF000FFFC000000
000001FFE0007FFC000000
000003FFE0007FFE000000
000007FFC0003FFE000000
000007FF80001FFF000000
00000FFF80001FFF800000
00000FFF00000FFF800000
00001FFF00000FFFC00000
00003FFE000007FFC00000
00003FFE000003FFE00000
00007FFC000003FFF00000
00007FF8000001FFF00000
0000FFF8000001FFF80000
0001FFF0000000FFF80000
0001FFF00FFFFFFFFC0000
0003FFE00FFFFFFFFE0000
0003FFC01FFFFFFFFE0000
0007FFC01FFFFFFFFF0000
000FFF803FFFFFFFFF0000
000FFF807FFFFFFFFF8000
001FFF007FFFFFFFFFC000
001FFE00FFFFFFFFFFC000
003FFE01FFFFFFFFFFE000
003FFC0000000003FFE000
007FFC0000000001FFF000
00FFF80000000001FFF800
00FFF00000000000FFF800
01FFF00000000000FFFC00
01FFE000000000007FFC00
03FFE000000000003FFE00
07FFC000000000003FFF00
07FF8000000000001FFF00
0FFF8000000000001FFF80
0FFF0000000000000FFF80
1FFF00000000000007FFC0
3FFE00000000000007FFE0
3FFC00000000000003FFE0
7FFC00000000000003FFF0
FFF800000000000001FFF8
ENDCHAR
STARTCHAR Acircumflex
ENCODING 194
SWIDTH 989 0
DWIDTH 87 0
BBX 85 80 1 0
BITMAP
0000000003FE0000000000
0000000007FF0000000000
0000000007FF0000000000
000000000FDF8000000000
000000001F8FC000000000
000000001F8FC000000000
000000003F07E000000000
000000007E03F000000000
000000007E03F000000000
00000000FC01F800000000
00000001F800FC00000000
00000003F800FE00000000
0000000000000000000000
0000000000000000000000
0000000000000000000000
0000000000F80000000000
0000000001FC0000000000
0000000003FE0000000000
0000000007FF0000000000
000000000FFF0000000000
000000000FFF8000000000
000000001FFFC000000000
000000001FFFC000000000
000000003FFFE000000000
000000007FFFE000000000
000000007FFFF000000000
00000000FFFFF800000000
00000000FFFFF800000000
00000001FFFFFC00000000
00000003FFFFFC00000000
00000003FFFFFE00000000
00000007FFFFFF00000000
00000007FF9FFF00000000
0000000FFF9FFF80000000
0000001FFF0FFF80000000
0000001FFE07FFC0000000
0000003FFE07FFE0000000
0000003FFC03FFE0000000
0000007FFC03FFF0000000
000000FFF801FFF0000000
000000FFF000FFF8000000
000001FFF000FFFC000000
000001FFE0007FFC000000
000003FFE0007FFE000000
000007FFC0003FFE000000
000007FF80001FFF000000
00000FFF80001FFF800000
00000FFF00000FFF800000
00001FFF00000FFFC00000
00003FFE000007FFC00000
00003FFE000003FFE00000
00007FFC000003FFF00000
00007FF8000001FFF00000
0000FFF8000001FFF80000
0001FFF0000000FFF80000
0001FFF00FFFFFFFFC0000
0003FFE00FFFFFFFFE0000
0003FFC01FFFFFFFFE0000
0007FFC01FFFFFFFFF0000
000FFF803FFFFFFFFF0000
000FFF807FFFFFFFFF8000
001FFF007FFFFFFFFFC000
001FFE00FFFFFFFFFFC000
003FFE01FFFFFFFFFFE000
003FFC0000000003FFE000
007FFC0000000001FFF000
00FFF80000000001FFF800
00FFF00000000000FFF800
01FFF00000000000FFFC00
01FFE000000000007FFC00
03FFE000000000003FFE00
07FFC000000000003FFF00
07FF8000000000001FFF00
0FFF8000000000001FFF80
0FFF0000000000000FFF80
1FFF00000000000007FFC0
3FFE00000000000007FFE0
3FFC00000000000003FFE0
7FFC00000000000003FFF0
FFF800000000000001FFF8
ENDCHAR
STARTCHAR Atilde
ENCODING 195
SWIDTH 989 0
DWIDTH 87 0
BBX 85 78 1 0
BITMAP
000000003F000400000000
00000000FFC00C00000000
00000001FFF81C00000000
00000001FFFFFC00000000
00000001FFFFFC00000000
00000001C0FFFC00000000
00000001003FF800000000
000000010007E000000000
0000000000000000000000
0000000000000000000000
0000000000000000000000
0000000000000000000000
0000000000000000000000
0000000000F80000000000
0000000001FC0000000000
0000000003FE0000000000
0000000007FF0000000000
000000000FFF0000000000
000000000FFF8000000000
000000001FFFC000000000
000000001FFFC000000000
000000003FFFE000000000
000000007FFFE000000000
000000007FFFF000000000
00000000FFFFF800000000
00000000FFFFF800000000
00000001FFFFFC00000000
00000003FFFFFC00000000
00000003FFFFFE00000000
00000007FFFFFF00000000
00000007FF9FFF00000000
0000000FFF9FFF80000000
0000001FFF0FFF80000000
0000001FFE07FFC0000000
0000003FFE07FFE0000000
0000003FFC03FFE0000000
0000007FFC03FFF0000000
000000FFF801FFF0000000
000000FFF000FFF8000000
000001FFF000FFFC000000
000001FFE0007FFC000000
000003FFE0007FFE000000
000007FFC0003FFE000000
000007FF80001FFF000000
00000FFF80001FFF800000
00000FFF00000FFF800000
00001FFF00000FFFC00000
00003FFE000007FFC00000
00003FFE000003FFE00000
00007FFC000003FFF00000
00007FF8000001FFF00000
0000FFF8000001FFF80000
0001FFF0000000FFF80000
0001FFF00FFFFFFFFC0000
0003FFE00FFFFFFFFE0000
0003FFC01FFFFFFFFE0000
0007FFC01FFFFFFFFF0000
000FFF803FFFFFFFFF0000
000FFF807FFFFFFFFF8000
001FFF007FFFFFFFFFC000
001FFE00FFFFFFFFFFC000
003FFE01FFFFFFFFFFE000
003FFC0000000003FFE000
007FFC0000000001FFF000
00FFF80000000001FFF800
00FFF00000000000FFF800
01FFF00000000000FFFC00
01FFE000000000007FFC00
03FFE000000000003FFE00
07FFC000000000003FFF00
07FF8000000000001FFF00
0FFF8000000000001FFF80
0FFF0000000000000FFF80
1FFF00000000000007FFC0
3FFE00000000000007FFE0
3FFC00000000000003FFE0
7FFC00000000000003FFF0
FFF800000000000001FFF8
ENDCHAR
STARTCHAR Adieresis
ENCODING 196
SWIDTH 989 0
DWIDTH 87 0
BBX 85 79 1 0
BITMAP
00000000F800F800000000
00000001FC01FC00000000
00000003FE03FE00000000
00000003FE03FE00000000
00000003FE03FE00000000
00000003FE03FE00000000
00000001FC01FC00000000
00000000F800F800000000
0000000000000000000000
0000000000000000000000
0000000000000000000000
0000000000000000000000
0000000000000000000000
0000000000000000000000
0000000000F80000000000
0000000001FC0000000000
0000000003FE0000000000
0000000007FF0000000000
000000000FFF0000000000
000000000FFF8000000000
000000001FFFC000000000
000000001FFFC000000000
000000003FFFE000000000
000000007FFFE000000000
000000007FFFF000000000
00000000FFFFF800000000
00000000FFFFF800000000
00000001FFFFFC00000000
00000003FFFFFC00000000
00000003FFFFFE00000000
00000007FFFFFF00000000
00000007FF9FFF00000000
0000000FFF9FFF80000000
0000001FFF0FFF80000000
0000001FFE07FFC0000000
0000003FFE07FFE0000000
0000003FFC03FFE0000000
0000007FFC03FFF0000000
000000FFF801FFF0000000
000000FFF000FFF8000000
000001FFF000FFFC000000
000001FFE0007FFC000000
000003FFE0007FFE000000
000007FFC0003FFE000000
000007FF80001FFF000000
00000FFF80001FFF800000
00000FFF00000FFF800000
00001FFF00000FFFC00000
00003FFE000007FFC00000
00003FFE000003FFE00000
00007FFC000003FFF00000
00007FF8000001FFF00000
0000FFF8000001FFF80000
0001FFF0000000FFF80000
0001FFF00FFFFFFFFC0000
0003FFE00FFFFFFFFE0000
0003FFC01FFFFFFFFE0000
0007FFC01FFFFFFFFF0000
000FFF803FFFFFFFFF0000
000FFF807FFFFFFFFF8000
001FFF007FFFFFFFFFC000
001FFE00FFFFFFFFFFC000
003FFE01FFFFFFFFFFE000
003FFC0000000003FFE000
007FFC0000000001FFF000
00FFF80000000001FFF800
00FFF00000000000FFF800
01FFF00000000000FFFC00
01FFE000000000007FFC00
03FFE000000000003FFE00
07FFC000000000003FFF00
07FF8000000000001FFF00
0FFF8000000000001FFF80
0FFF0000000000000FFF80
1FFF00000000000007FFC0
3FFE00000000000007FFE0
3FFC00000000000003FFE0
7FFC00000000000003FFF0
FFF800000000000001FFF8
ENDCHAR
STARTCHAR Aring
ENCODING 197
SWIDTH 989 0
DWIDTH 87 0
BBX 85 86 1 0
BITMAP
0000000007FF0000000000
000000001FFFC000000000
000000003FFFE000000000
000000007C01F000000000
00000000F0007800000000
00000000E0007800000000
00000001E0003800000000
00000001E0003C00000000
00000001E0003C00000000
00000001E0003C00000000
00000001E0003C00000000
00000000E0003800000000
00000000F0007800000000
00000000F0007800000000
000000007C01F000000000
000000003FFFE000000000
000000001FFFC000000000
0000000007FF0000000000
0000000000000000000000
0000000000000000000000
0000000000000000000000
0000000000F80000000000
0000000001FC0000000000
0000000003FE0000000000
0000000007FF0000000000
000000000FFF0000000000
000000000FFF8000000000
000000001FFFC000000000
000000001FFFC000000000
000000003FFFE000000000
000000007FFFE000000000
000000007FFFF000000000
00000000FFFFF800000000
00000000FFFFF800000000
00000001FFFFFC00000000
00000003FFFFFC00000000
00000003FFFFFE00000000
00000007FFFFFF00000000
00000007FF9FFF00000000
0000000FFF9FFF80000000
0000001FFF0FFF80000000
0000001FFE07FFC0000000
0000003FFE07FFE0000000
0000003FFC03FFE0000000
0000007FFC03FFF0000000
000000FFF801FFF0000000
000000FFF000FFF8000000
000001FFF000FFFC000000
000001FFE0007FFC000000
000003FFE0007FFE000000
000007FFC0003FFE000000
000007FF80001FFF000000
00000FFF80001FFF800000
00000FFF00000FFF800000
00001FFF00000FFFC00000
00003FFE000007FFC00000
00003FFE000003FFE00000
00007FFC000003FFF00000
00007FF8000001FFF00000
0000FFF8000001FFF80000
0001FFF0000000FFF80000
0001FFF00FFFFFFFFC0000
0003FFE00FFFFFFFFE0000
0003FFC01FFFFFFFFE0000
0007FFC01FFFFFFFFF0000
000FFF803FFFFFFFFF0000
000FFF807FFFFFFFFF8000
001FFF007FFFFFFFFFC000
001FFE00FFFFFFFFFFC000
003FFE01FFFFFFFFFFE000
003FFC0000000003FFE000
007FFC0000000001FFF000
00FFF80000000001FFF800
00FFF00000000000FFF800
01FFF00000000000FFFC00
01FFE000000000007FFC00
03FFE000000000003FFE00
07FFC000000000003FFF00
07FF8000000000001FFF00
0FFF8000000000001FFF80
0FFF0000000000000FFF80
1FFF00000000000007FFC0
3FFE00000000000007FFE0
3FFC00000000000003FFE0
7FFC00000000000003FFF0
FFF800000000000001FFF8
ENDCHAR
STARTCHAR AE
ENCODING 198
SWIDTH 1345 0
DWIDTH 118 0
BBX 113 64 1 0
BITMAP
0000000003FFFFFFFFFFFFFFFFFF80
0000000007FFFFFFFFFFFFFFFFFF80
000000000FFFFFFFFFFFFFFFFFFF80
000000001FFFFFFFFFFFFFFFFFFF80
000000001FFFFFFFFFFFFFFFFFFF80
000000003FFFFFFFFFFFFFFFFFFF80
000000003FFFFFFFFFFFFFFFFFFF80
000000007FFFFFFFFFFFFFFFFFFF80
00000000FFFFFFFFFFFFFFFFFFFF80
00000000FFFFFFFFFFFFFFFFFFFF80
00000001FFFFFFFFFFFFFFFFFFFF80
00000001FFE0000FFE000000000000
00000003FFC0000FFE000000000000
00000003FFC0000FFE000000000000
00000007FF80000FFE000000000000
0000000FFF00000FFE000000000000
0000000FFF00000FFE000000000000
0000001FFE00000FFE000000000000
0000001FFE00000FFE000000000000
0000003FFC00000FFE000000000000
0000003FFC00000FFE000000000000
0000007FF800000FFE000000000000
000000FFF000000FFE000000000000
000000FFF000000FFE000000000000
000001FFE000000FFE000000000000
000001FFE000000FFE000000000000
000003FFC000000FFE000000000000
000007FFC000000FFE01FFFFFFFE00
000007FF8000000FFE01FFFFFFFE00
00000FFF0000000FFE01FFFFFFFE00
00000FFF0000000FFE01FFFFFFFE00
00001FFE0000000FFE01FFFFFFFE00
00001FFE0000000FFE01FFFFFFFE00
00003FFC0000000FFE01FFFFFFFE00
00007FFC0000000FFE01FFFFFFFE00
00007FF80000000FFE01FFFFFFFE00
0000FFF00000000FFE000000000000
0000FFF00000000FFE000000000000
0001FFE00000000FFE000000000000
0003FFE00FFFFFFFFE000000000000
0003FFC01FFFFFFFFE000000000000
0007FFC01FFFFFFFFE000000000000
0007FF803FFFFFFFFE000000000000
000FFF807FFFFFFFFE000000000000
000FFF007FFFFFFFFE000000000000
001FFE00FFFFFFFFFE000000000000
003FFE00FFFFFFFFFE000000000000
003FFC01FFFFFFFFFE000000000000
007FFC000000000FFE000000000000
007FF8000000000FFE000000000000
00FFF8000000000FFE000000000000
01FFF0000000000FFE000000000000
01FFE0000000000FFE000000000000
03FFE0000000000FFFFFFFFFFFFF80
03FFC0000000000FFFFFFFFFFFFF80
07FFC0000000000FFFFFFFFFFFFF80
07FF80000000000FFFFFFFFFFFFF80
0FFF80000000000FFFFFFFFFFFFF80
1FFF00000000000FFFFFFFFFFFFF80
1FFE00000000000FFFFFFFFFFFFF80
3FFE00000000000FFFFFFFFFFFFF80
3FFC00000000000FFFFFFFFFFFFF80
7FFC00000000000FFFFFFFFFFFFF80
FFF800000000000FFFFFFFFFFFFF80
ENDCHAR
STARTCHAR Ccedilla
ENCODING 199
SWIDTH 829 0
DWIDTH 73 0
BBX 65 82 4 -18
BITMAP
0000007FFFFFFFFF80
000007FFFFFFFFFF80
00003FFFFFFFFFFF80
0000FFFFFFFFFFFF80
0003FFFFFFFFFFFF80
000FFFFFFFFFFFFF80
001FFFFFFFFFFFFF80
003FFFFFFFFFFFFF80
007FFFFFFFFFFFFF80
00FFFFFFFFFFFFFF80
01FFFFFFFFFFFFFF80
03FFFFE00000000000
07FFFE000000000000
07FFF8000000000000
0FFFF0000000000000
1FFFC0000000000000
1FFF80000000000000
3FFF00000000000000
3FFE00000000000000
3FFC00000000000000
7FFC00000000000000
7FF800000000000000
7FF800000000000000
FFF000000000000000
FFF000000000000000
FFF000000000000000
FFE000000000000000
FFE000000000000000
FFE000000000000000
FFE000000000000000
FFE000000000000000
FFE000000000000000
FFE000000000000000
FFE000000000000000
FFE000000000000000
FFE000000000000000
FFE000000000000000
FFF000000000000000
FFF000000000000000
7FF000000000000000
7FF000000000000000
7FF800000000000000
7FF800000000000000
3FFC00000000000000
3FFE00000000000000
1FFE00000000000000
1FFF00000000000000
1FFF80000000000000
0FFFC0000000000000
07FFF0000000000000
07FFF8000000000000
03FFFE000000000000
01FFFFE00000000000
01FFFFFFFFFFFFFF80
00FFFFFFFFFFFFFF80
007FFFFFFFFFFFFF80
003FFFFFFFFFFFFF80
000FFFFFFFFFFFFF80
0007FFFFFFFFFFFF80
0001FFFFFFFFFFFF80
0000FFFFFFFFFFFF80
00003FFFFFFFFFFF80
000007FFFFFFFFFF80
0000007FFFFFFFFF80
000000000000000000
000000000000000000
000000000000000000
000000000000000000
0000000FFF00000000
00000007FE00000000
00000007FE00000000
00000003FE00000000
00000003FC00000000
00000001FC00000000
00000001F800000000
00000000F800000000
00000000F000000000
00000000F000000000
000000007000000000
000000006000000000
000000002000000000
000000002000000000
ENDCHAR
STARTCHAR Egrave
ENCODING 200
SWIDTH 759 0
DWIDTH 67 0
BBX 57 80 6 0
BITMAP
0004000000000000
0007C00000000000
0007F80000000000
0007FF0000000000
0007FFF000000000
0007FFFE00000000
0007FFFFC0000000
0001FFFFF0000000
00001FFFF0000000
000000FFF0000000
00000007F0000000
0000000070000000
0000000000000000
0000000000000000
0000000000000000
0000000000000000
FFFFFFFFFFFFFF80
FFFFFFFFFFFFFF80
FFFFFFFFFFFFFF80
FFFFFFFFFFFFFF80
FFFFFFFFFFFFFF80
FFFFFFFFFFFFFF80
FFFFFFFFFFFFFF80
FFFFFFFFFFFFFF80
FFFFFFFFFFFFFF80
FFFFFFFFFFFFFF80
FFFFFFFFFFFFFF80
FFE0000000000000
FFE0000000000000
FFE0000000000000
FFE0000000000000
FFE0000000000000
FFE0000000000000
FFE0000000000000
FFE0000000000000
FFE0000000000000
FFE0000000000000
FFE0000000000000
FFE0000000000000
FFE0000000000000
FFE0000000000000
FFE0000000000000
FFE0000000000000
FFE01FFFFFFFFC00
FFE01FFFFFFFFC00
FFE01FFFFFFFFC00
FFE01FFFFFFFFC00
FFE01FFFFFFFFC00
FFE01FFFFFFFFC00
FFE01FFFFFFFFC00
FFE01FFFFFFFFC00
FFE01FFFFFFFFC00
FFE0000000000000
FFE0000000000000
FFE0000000000000
FFE0000000000000
FFE0000000000000
FFE0000000000000
FFE0000000000000
FFE0000000000000
FFE0000000000000
FFE0000000000000
FFE0000000000000
FFE0000000000000
FFE0000000000000
FFE0000000000000
FFE0000000000000
FFE0000000000000
FFE0000000000000
FFFFFFFFFFFFFF80
FFFFFFFFFFFFFF80
FFFFFFFFFFFFFF80
FFFFFFFFFFFFFF80
FFFFFFFFFFFFFF80
FFFFFFFFFFFFFF80
FFFFFFFFFFFFFF80
FFFFFFFFFFFFFF80
FFFFFFFFFFFFFF80
FFFFFFFFFFFFFF80
FFFFFFFFFFFFFF80
ENDCHAR
STARTCHAR Eacute
ENCODING 201
SWIDTH 759 0
DWIDTH 67 0
BBX 57 80 6 0
BITMAP
0000000000800000
0000000007800000
000000003F800000
00000003FF800000
0000001FFF800000
000000FFFF800000
00000FFFFF800000
00001FFFFF000000
00001FFFE0000000
00001FFE00000000
00001FC000000000
0000180000000000
0000000000000000
0000000000000000
0000000000000000
0000000000000000
FFFFFFFFFFFFFF80
FFFFFFFFFFFFFF80
FFFFFFFFFFFFFF80
FFFFFFFFFFFFFF80
FFFFFFFFFFFFFF80
FFFFFFFFFFFFFF80
FFFFFFFFFFFFFF80
FFFFFFFFFFFFFF80
FFFFFFFFFFFFFF80
FFFFFFFFFFFFFF80
FFFFFFFFFFFFFF80
FFE0000000000000
FFE0000000000000
FFE0000000000000
FFE0000000000000
FFE0000000000000
FFE0000000000000
FFE0000000000000
FFE0000000000000
FFE0000000000000
FFE0000000000000
FFE0000000000000
FFE0000000000000
FFE0000000000000
FFE0000000000000
FFE0000000000000
FFE0000000000000
FFE01FFFFFFFFC00
FFE01FFFFFFFFC00
FFE01FFFFFFFFC00
FFE01FFFFFFFFC00
FFE01FFFFFFFFC00
FFE01FFFFFFFFC00
FFE01FFFFFFFFC00
FFE01FFFFFFFFC00
FFE01FFFFFFFFC00
FFE0000000000000
FFE0000000000000
FFE0000000000000
FFE0000000000000
FFE0000000000000
FFE0000000000000
FFE0000000000000
FFE0000000000000
FFE0000000000000
FFE0000000000000
FFE0000000000000
FFE0000000000000
FFE0000000000000
FFE0000000000000
FFE0000000000000
FFE0000000000000
FFE0000000000000
FFFFFFFFFFFFFF80
FFFFFFFFFFFFFF80
FFFFFFFFFFFFFF80
FFFFFFFFFFFFFF80
FFFFFFFFFFFFFF80
FFFFFFFFFFFFFF80
FFFFFFFFFFFFFF80
FFFFFFFFFFFFFF80
FFFFFFFFFFFFFF80
FFFFFFFFFFFFFF80
FFFFFFFFFFFFFF80
ENDCHAR
STARTCHAR Ecircumflex
ENCODING 202
SWIDTH 759 0
DWIDTH 67 0
BBX 57 80 6 0
BITMAP
000001FF00000000
000003FF00000000
000003FF80000000
000007EFC0000000
00000FC7E0000000
00000F87E0000000
00001F83F0000000
00003F01F8000000
00007E01F8000000
00007E00FC000000
0000FC007E000000
0001F8007E000000
0000000000000000
0000000000000000
0000000000000000
0000000000000000
FFFFFFFFFFFFFF80
FFFFFFFFFFFFFF80
FFFFFFFFFFFFFF80
FFFFFFFFFFFFFF80
FFFFFFFFFFFFFF80
FFFFFFFFFFFFFF80
FFFFFFFFFFFFFF80
FFFFFFFFFFFFFF80
FFFFFFFFFFFFFF80
FFFFFFFFFFFFFF80
FFFFFFFFFFFFFF80
FFE0000000000000
FFE0000000000000
FFE0000000000000
FFE0000000000000
FFE0000000000000
FFE0000000000000
FFE0000000000000
FFE0000000000000
FFE0000000000000
FFE0000000000000
FFE0000000000000
FFE0000000000000
FFE0000000000000
FFE0000000000000
FFE0000000000000
FFE0000000000000
FFE01FFFFFFFFC00
FFE01FFFFFFFFC00
FFE01FFFFFFFFC00
FFE01FFFFFFFFC00
FFE01FFFFFFFFC00
FFE01FFFFFFFFC00
FFE01FFFFFFFFC00
FFE01FFFFFFFFC00
FFE01FFFFFFFFC00
FFE0000000000000
FFE0000000000000
FFE0000000000000
FFE0000000000000
FFE0000000000000
FFE0000000000000
FFE0000000000000
FFE0000000000000
FFE0000000000000
FFE0000000000000
FFE0000000000000
FFE0000000000000
FFE0000000000000
FFE0000000000000
FFE0000000000000
FFE0000000000000
FFE0000000000000
FFFFFFFFFFFFFF80
FFFFFFFFFFFFFF80
FFFFFFFFFFFFFF80
FFFFFFFFFFFFFF80
FFFFFFFFFFFFFF80
FFFFFFFFFFFFFF80
FFFFFFFFFFFFFF80
FFFFFFFFFFFFFF80
FFFFFFFFFFFFFF80
FFFFFFFFFFFFFF80
FFFFFFFFFFFFFF80
ENDCHAR
STARTCHAR Edieresis
ENCODING 203
SWIDTH 759 0
DWIDTH 67 0
BBX 57 79 6 0
BITMAP
00007C007C000000
0000FE00FE000000
0001FE01FF000000
0001FF01FF000000
0001FF01FF000000
0001FE01FF000000
0000FE00FE000000
00007C007C000000
0000000000000000
0000000000000000
0000000000000000
0000000000000000
0000000000000000
0000000000000000
0000000000000000
FFFFFFFFFFFFFF80
FFFFFFFFFFFFFF80
FFFFFFFFFFFFFF80
FFFFFFFFFFFFFF80
FFFFFFFFFFFFFF80
FFFFFFFFFFFFFF80
FFFFFFFFFFFFFF80
FFFFFFFFFFFFFF80
FFFFFFFFFFFFFF80
FFFFFFFFFFFFFF80
FFFFFFFFFFFFFF80
FFE0000000000000
FFE0000000000000
FFE0000000000000
FFE0000000000000
FFE0000000000000
FFE0000000000000
FFE0000000000000
FFE0000000000000
FFE0000000000000
FFE0000000000000
FFE0000000000000
FFE0000000000000
FFE0000000000000
FFE0000000000000
FFE0000000000000
FFE0000000000000
FFE01FFFFFFFFC00
FFE01FFFFFFFFC00
FFE01FFFFFFFFC00
FFE01FFFFFFFFC00
FFE01FFFFFFFFC00
FFE01FFFFFFFFC00
FFE01FFFFFFFFC00
FFE01FFFFFFFFC00
FFE01FFFFFFFFC00
FFE0000000000000
FFE0000000000000
FFE0000000000000
FFE0000000000000
FFE0000000000000
FFE0000000000000
FFE0000000000000
FFE0000000000000
FFE0000000000000
FFE0000000000000
FFE0000000000000
FFE0000000000000
FFE0000000000000
FFE0000000000000
FFE0000000000000
FFE0000000000000
FFE0000000000000
FFFFFFFFFFFFFF80
FFFFFFFFFFFFFF80
FFFFFFFFFFFFFF80
FFFFFFFFFFFFFF80
FFFFFFFFFFFFFF80
FFFFFFFFFFFFFF80
FFFFFFFFFFFFFF80
FFFFFFFFFFFFFF80
FFFFFFFFFFFFFF80
FFFFFFFFFFFFFF80
FFFFFFFFFFFFFF80
ENDCHAR
STARTCHAR Igrave
ENCODING 204
SWIDTH 267 0
DWIDTH 24 0
BBX 23 80 -2 0
BITMAP
800000
F00000
FE0000
FFE000
FFFC00
FFFFC0
FFFFF8
7FFFFE
03FFFE
001FFE
0001FE
00000E
000000
000000
000000
000000
00FFE0
00FFE0
00FFE0
00FFE0
00FFE0
00FFE0
00FFE0
00FFE0
00FFE0
00FFE0
00FFE0
00FFE0
00FFE0
00FFE0
00FFE0
00FFE0
00FFE0
00FFE0
00FFE0
00FFE0
00FFE0
00FFE0
00FFE0
00FFE0
00FFE0
00FFE0
00FFE0
00FFE0
00FFE0
00FFE0
00FFE0
00FFE0
00FFE0
00FFE0
00FFE0
00FFE0
00FFE0
00FFE0
00FFE0
00FFE0
00FFE0
00FFE0
00FFE0
00FFE0
00FFE0
00FFE0
00FFE0
00FFE0
00FFE0
00FFE0
00FFE0
00FFE0
00FFE0
00FFE0
00FFE0
00FFE0
00FFE0
00FFE0
00FFE0
00FFE0
00FFE0
00FFE0
00FFE0
00FFE0
ENDCHAR
STARTCHAR Iacute
ENCODING 205
SWIDTH 267 0
DWIDTH 24 0
BBX 23 80 3 0
BITMAP
000002
00001E
0001FE
000FFE
007FFE
07FFFE
3FFFFE
FFFFF8
FFFF80
FFF000
FE0000
E00000
000000
000000
000000
000000
1FFC00
1FFC00
1FFC00
1FFC00
1FFC00
1FFC00
1FFC00
1FFC00
1FFC00
1FFC00
1FFC00
1FFC00
1FFC00
1FFC00
1FFC00
1FFC00
1FFC00
1FFC00
1FFC00
1FFC00
1FFC00
1FFC00
1FFC00
1FFC00
1FFC00
1FFC00
1FFC00
1FFC00
1FFC00
1FFC00
1FFC00
1FFC00
1FFC00
1FFC00
1FFC00
1FFC00
1FFC00
1FFC00
1FFC00
1FFC00
1FFC00
1FFC00
1FFC00
1FFC00
1FFC00
1FFC00
1FFC00
1FFC00
1FFC00
1FFC00
1FFC00
1FFC00
1FFC00
1FFC00
1FFC00
1FFC00
1FFC00
1FFC00
1FFC00
1FFC00
1FFC00
1FFC00
1FFC00
1FFC00
ENDCHAR
STARTCHAR Icircumflex
ENCODING 206
SWIDTH 267 0
DWIDTH 24 0
BBX 24 80 0 0
BITMAP
01FF00
01FF80
03FFC0
07EFC0
07C7E0
0FC3F0
1F83F0
1F81F8
3F00FC
7E00FC
FE007E
FC003F
000000
000000
000000
000000
03FF80
03FF80
03FF80
03FF80
03FF80
03FF80
03FF80
03FF80
03FF80
03FF80
03FF80
03FF80
03FF80
03FF80
03FF80
03FF80
03FF80
03FF80
03FF80
03FF80
03FF80
03FF80
03FF80
03FF80
03FF80
03FF80
03FF80
03FF80
03FF80
03FF80
03FF80
03FF80
03FF80
03FF80
03FF80
03FF80
03FF80
03FF80
03FF80
03FF80
03FF80
03FF80
03FF80
03FF80
03FF80
03FF80
03FF80
03FF80
03FF80
03FF80
03FF80
03FF80
03FF80
03FF80
03FF80
03FF80
03FF80
03FF80
03FF80
03FF80
03FF80
03FF80
03FF80
03FF80
ENDCHAR
STARTCHAR Idieresis
ENCODING 207
SWIDTH 267 0
DWIDTH 24 0
BBX 25 79 -1 0
BITMAP
3E001E00
7F007F80
FF807F80
FF80FF80
FF807F80
FF807F80
7F007F80
3E001E00
00000000
00000000
00000000
00000000
00000000
00000000
00000000
01FFC000
01FFC000
01FFC000
01FFC000
01FFC000
01FFC000
01FFC000
01FFC000
01FFC000
01FFC000
01FFC000
01FFC000
01FFC000
01FFC000
01FFC000
01FFC000
01FFC000
01FFC000
01FFC000
01FFC000
01FFC000
01FFC000
01FFC000
01FFC000
01FFC000
01FFC000
01FFC000
01FFC000
01FFC000
01FFC000
01FFC000
01FFC000
01FFC000
01FFC000
01FFC000
01FFC000
01FFC000
01FFC000
01FFC000
01FFC000
01FFC000
01FFC000
01FFC000
01FFC000
01FFC000
01FFC000
01FFC000
01FFC000
01FFC000
01FFC000
01FFC000
01FFC000
01FFC000
01FFC000
01FFC000
01FFC000
01FFC000
01FFC000
01FFC000
01FFC000
01FFC000
01FFC000
01FFC000
01FFC000
ENDCHAR
STARTCHAR Eth
ENCODING 208
SWIDTH 877 0
DWIDTH 77 0
BBX 73 64 1 0
BITMAP
0FFFFFFFFFFF00000000
0FFFFFFFFFFFF0000000
0FFFFFFFFFFFFC000000
0FFFFFFFFFFFFF800000
0FFFFFFFFFFFFFC00000
0FFFFFFFFFFFFFF00000
0FFFFFFFFFFFFFF80000
0FFFFFFFFFFFFFFC0000
0FFFFFFFFFFFFFFF0000
0FFFFFFFFFFFFFFF8000
0FFFFFFFFFFFFFFF8000
0FFE00000007FFFFC000
0FFE000000007FFFE000
0FFE000000001FFFF000
0FFE0000000007FFF000
0FFE0000000003FFF800
0FFE0000000001FFF800
0FFE0000000000FFFC00
0FFE00000000007FFC00
0FFE00000000003FFE00
0FFE00000000003FFE00
0FFE00000000001FFE00
0FFE00000000001FFF00
0FFE00000000000FFF00
0FFE00000000000FFF00
0FFE000000000007FF00
0FFE000000000007FF00
FFFFFFFFFF800007FF00
FFFFFFFFFF800007FF80
FFFFFFFFFF800007FF80
FFFFFFFFFF800007FF80
FFFFFFFFFF800007FF80
FFFFFFFFFF800007FF80
FFFFFFFFFF800007FF80
FFFFFFFFFF800007FF80
FFFFFFFFFF800007FF00
0FFE000000000007FF00
0FFE000000000007FF00
0FFE00000000000FFF00
0FFE00000000000FFF00
0FFE00000000000FFF00
0FFE00000000001FFE00
0FFE00000000001FFE00
0FFE00000000003FFE00
0FFE00000000003FFC00
0FFE00000000007FFC00
0FFE0000000000FFF800
0FFE0000000001FFF800
0FFE0000000003FFF000
0FFE0000000007FFF000
0FFE000000001FFFE000
0FFE000000007FFFC000
0FFE00000007FFFFC000
0FFFFFFFFFFFFFFF8000
0FFFFFFFFFFFFFFF0000
0FFFFFFFFFFFFFFE0000
0FFFFFFFFFFFFFFC0000
0FFFFFFFFFFFFFF80000
0FFFFFFFFFFFFFE00000
0FFFFFFFFFFFFFC00000
0FFFFFFFFFFFFF000000
0FFFFFFFFFFFFC000000
0FFFFFFFFFFFE0000000
0FFFFFFFFFFE00000000
ENDCHAR
STARTCHAR Ntilde
ENCODING 209
SWIDTH 873 0
DWIDTH 77 0
BBX 67 78 5 0
BITMAP
0000007E0008000000
000001FF8018000000
000003FFF078000000
000003FFFFF8000000
000003FFFFF8000000
00000381FFF8000000
000002007FF0000000
000002000FC0000000
000000000000000000
000000000000000000
000000000000000000
000000000000000000
000000000000000000
000000000000000000
0F000000000000FFE0
3FC00000000000FFE0
7FE00000000000FFE0
7FF00000000000FFE0
FFF80000000000FFE0
FFFC0000000000FFE0
FFFE0000000000FFE0
FFFF0000000000FFE0
FFFF8000000000FFE0
FFFFC000000000FFE0
FFFFE000000000FFE0
FFFFF000000000FFE0
FFFFF800000000FFE0
FFFFFC00000000FFE0
FFFFFE00000000FFE0
FFFFFF00000000FFE0
FFFFFF80000000FFE0
FFFFFFC0000000FFE0
FFEFFFE0000000FFE0
FFE7FFF0000000FFE0
FFE3FFF8000000FFE0
FFE1FFFC000000FFE0
FFE0FFFE000000FFE0
FFE07FFF000000FFE0
FFE03FFF800000FFE0
FFE01FFFC00000FFE0
FFE00FFFE00000FFE0
FFE007FFF00000FFE0
FFE003FFF80000FFE0
FFE001FFFE0000FFE0
FFE000FFFE0000FFE0
FFE0007FFF8000FFE0
FFE0003FFFC000FFE0
FFE0001FFFE000FFE0
FFE0000FFFF000FFE0
FFE00007FFF800FFE0
FFE00003FFFC00FFE0
FFE00001FFFE00FFE0
FFE00000FFFF00FFE0
FFE000007FFF80FFE0
FFE000003FFFC0FFE0
FFE000001FFFE0FFE0
FFE000000FFFF0FFE0
FFE0000007FFF8FFE0
FFE0000003FFFCFFE0
FFE0000001FFFEFFE0
FFE0000000FFFFFFE0
FFE00000007FFFFFE0
FFE00000003FFFFFE0
FFE00000001FFFFFE0
FFE00000000FFFFFE0
FFE000000007FFFFE0
FFE000000003FFFFE0
FFE000000001FFFFE0
FFE0000000007FFFE0
FFE0000000007FFFE0
FFE0000000001FFFE0
FFE0000000000FFFE0
FFE00000000007FFC0
FFE00000000003FFC0
FFE00000000001FFC0
FFE00000000000FFC0
FFE000000000007F80
FFE000000000003E00
ENDCHAR
STARTCHAR Ograve
ENCODING 210
SWIDTH 968 0
DWIDTH 85 0
BBX 78 80 4 0
BITMAP
00000040000000000000
00000078000000000000
0000007F000000000000
0000007FF00000000000
0000007FFE0000000000
0000007FFFC000000000
0000007FFFFC00000000
0000003FFFFE00000000
00000001FFFE00000000
000000001FFE00000000
0000000000FE00000000
00000000000600000000
00000000000000000000
00000000000000000000
00000000000000000000
00000000000000000000
0000007FFFFFF8000000
000007FFFFFFFF800000
00003FFFFFFFFFF00000
0000FFFFFFFFFFFC0000
0003FFFFFFFFFFFF0000
000FFFFFFFFFFFFF8000
001FFFFFFFFFFFFFC000
003FFFFFFFFFFFFFF000
007FFFFFFFFFFFFFF800
00FFFFFFFFFFFFFFFC00
01FFFFFFFFFFFFFFFE00
03FFFFE000003FFFFE00
07FFFE00000003FFFF00
07FFF800000000FFFF80
0FFFF0000000003FFF80
1FFFC0000000001FFFC0
1FFF80000000000FFFC0
3FFF000000000007FFE0
3FFE000000000003FFE0
3FFC000000000001FFF0
7FFC000000000001FFF0
7FF8000000000000FFF0
7FF80000000000007FF8
FFF00000000000007FF8
FFF00000000000007FF8
FFF00000000000003FF8
FFE00000000000003FF8
FFE00000000000003FF8
FFE00000000000003FFC
FFE00000000000003FFC
FFE00000000000003FFC
FFE00000000000003FFC
FFE00000000000003FFC
FFE00000000000003FFC
FFE00000000000003FFC
FFE00000000000003FF8
FFE00000000000003FF8
FFF00000000000003FF8
FFF00000000000003FF8
7FF00000000000007FF8
7FF00000000000007FF8
7FF8000000000000FFF0
7FF8000000000000FFF0
3FFC000000000001FFF0
3FFE000000000001FFE0
1FFE000000000003FFE0
1FFF000000000007FFC0
1FFF80000000000FFFC0
0FFFC0000000001FFF80
07FFF0000000003FFF80
07FFF800000000FFFF00
03FFFE00000003FFFE00
01FFFFE000003FFFFE00
01FFFFFFFFFFFFFFFC00
00FFFFFFFFFFFFFFF800
007FFFFFFFFFFFFFF000
003FFFFFFFFFFFFFE000
000FFFFFFFFFFFFFC000
0007FFFFFFFFFFFF0000
0001FFFFFFFFFFFE0000
0000FFFFFFFFFFF80000
00003FFFFFFFFFE00000
000007FFFFFFFF000000
0000007FFFFFF0000000
ENDCHAR
STARTCHAR Oacute
ENCODING 211
SWIDTH 968 0
DWIDTH 85 0
BBX 78 80 4 0
BITMAP
00000000000008000000
000000000000F0000000
000000000007F0000000
00000000003FF0000000
0000000003FFF0000000
000000001FFFF0000000
00000000FFFFF0000000
00000003FFFFE0000000
00000003FFFC00000000
00000003FFC000000000
00000003F80000000000
00000003000000000000
00000000000000000000
00000000000000000000
00000000000000000000
00000000000000000000
0000007FFFFFF8000000
000007FFFFFFFF800000
00003FFFFFFFFFF00000
0000FFFFFFFFFFFC0000
0003FFFFFFFFFFFF0000
000FFFFFFFFFFFFF8000
001FFFFFFFFFFFFFC000
003FFFFFFFFFFFFFF000
007FFFFFFFFFFFFFF800
00FFFFFFFFFFFFFFFC00
01FFFFFFFFFFFFFFFE00
03FFFFE000003FFFFE00
07FFFE00000003FFFF00
07FFF800000000FFFF80
0FFFF0000000003FFF80
1FFFC0000000001FFFC0
1FFF80000000000FFFC0
3FFF000000000007FFE0
3FFE000000000003FFE0
3FFC000000000001FFF0
7FFC000000000001FFF0
7FF8000000000000FFF0
7FF80000000000007FF8
FFF00000000000007FF8
FFF00000000000007FF8
FFF00000000000003FF8
FFE00000000000003FF8
FFE00000000000003FF8
FFE00000000000003FFC
FFE00000000000003FFC
FFE00000000000003FFC
FFE00000000000003FFC
FFE00000000000003FFC
FFE00000000000003FFC
FFE00000000000003FFC
FFE00000000000003FF8
FFE00000000000003FF8
FFF00000000000003FF8
FFF00000000000003FF8
7FF00000000000007FF8
7FF00000000000007FF8
7FF8000000000000FFF0
7FF8000000000000FFF0
3FFC000000000001FFF0
3FFE000000000001FFE0
1FFE000000000003FFE0
1FFF000000000007FFC0
1FFF80000000000FFFC0
0FFFC0000000001FFF80
07FFF0000000003FFF80
07FFF800000000FFFF00
03FFFE00000003FFFE00
01FFFFE000003FFFFE00
01FFFFFFFFFFFFFFFC00
00FFFFFFFFFFFFFFF800
007FFFFFFFFFFFFFF000
003FFFFFFFFFFFFFE000
000FFFFFFFFFFFFFC000
0007FFFFFFFFFFFF0000
0001FFFFFFFFFFFE0000
0000FFFFFFFFFFF80000
00003FFFFFFFFFE00000
000007FFFFFFFF000000
0000007FFFFFF0000000
ENDCHAR
STARTCHAR Ocircumflex
ENCODING 212
SWIDTH 968 0
DWIDTH 85 0
BBX 78 80 4 0
BITMAP
000000003FE000000000
000000007FF000000000
000000007FF000000000
00000000FDF800000000
00000001F8FC00000000
00000001F8FC00000000
00000003F07E00000000
00000007E03F00000000
00000007E03F00000000
0000000FC01F80000000
0000001F800FC0000000
0000001F800FE0000000
00000000000000000000
00000000000000000000
00000000000000000000
00000000000000000000
0000007FFFFFF8000000
000007FFFFFFFF800000
00003FFFFFFFFFF00000
0000FFFFFFFFFFFC0000
0003FFFFFFFFFFFF0000
000FFFFFFFFFFFFF8000
001FFFFFFFFFFFFFC000
003FFFFFFFFFFFFFF000
007FFFFFFFFFFFFFF800
00FFFFFFFFFFFFFFFC00
01FFFFFFFFFFFFFFFE00
03FFFFE000003FFFFE00
07FFFE00000003FFFF00
07FFF800000000FFFF80
0FFFF0000000003FFF80
1FFFC0000000001FFFC0
1FFF80000000000FFFC0
3FFF000000000007FFE0
3FFE000000000003FFE0
3FFC000000000001FFF0
7FFC000000000001FFF0
7FF8000000000000FFF0
7FF80000000000007FF8
FFF00000000000007FF8
FFF00000000000007FF8
FFF00000000000003FF8
FFE00000000000003FF8
FFE00000000000003FF8
FFE00000000000003FFC
FFE00000000000003FFC
FFE00000000000003FFC
FFE00000000000003FFC
FFE00000000000003FFC
FFE00000000000003FFC
FFE00000000000003FFC
FFE00000000000003FF8
FFE00000000000003FF8
FFF00000000000003FF8
FFF00000000000003FF8
7FF00000000000007FF8
7FF00000000000007FF8
7FF8000000000000FFF0
7FF8000000000000FFF0
3FFC000000000001FFF0
3FFE000000000001FFE0
1FFE000000000003FFE0
1FFF000000000007FFC0
1FFF80000000000FFFC0
0FFFC0000000001FFF80
07FFF0000000003FFF80
07FFF800000000FFFF00
03FFFE00000003FFFE00
01FFFFE000003FFFFE00
01FFFFFFFFFFFFFFFC00
00FFFFFFFFFFFFFFF800
007FFFFFFFFFFFFFF000
003FFFFFFFFFFFFFE000
000FFFFFFFFFFFFFC000
0007FFFFFFFFFFFF0000
0001FFFFFFFFFFFE0000
0000FFFFFFFFFFF80000
00003FFFFFFFFFE00000
000007FFFFFFFF000000
0000007FFFFFF0000000
ENDCHAR
STARTCHAR Otilde
ENCODING 213
SWIDTH 968 0
DWIDTH 85 0
BBX 78 78 4 0
BITMAP
00000003F00040000000
0000000FFE00C0000000
0000001FFF81C0000000
0000001FFFFFC0000000
0000001FFFFFC0000000
0000001C0FFFC0000000
0000001801FF80000000
00000010007E00000000
00000000000000000000
00000000000000000000
00000000000000000000
00000000000000000000
00000000000000000000
00000000000000000000
0000007FFFFFF8000000
000007FFFFFFFF800000
00003FFFFFFFFFF00000
0000FFFFFFFFFFFC0000
0003FFFFFFFFFFFF0000
000FFFFFFFFFFFFF8000
001FFFFFFFFFFFFFC000
003FFFFFFFFFFFFFF000
007FFFFFFFFFFFFFF800
00FFFFFFFFFFFFFFFC00
01FFFFFFFFFFFFFFFE00
03FFFFE000003FFFFE00
07FFFE00000003FFFF00
07FFF800000000FFFF80
0FFFF0000000003FFF80
1FFFC0000000001FFFC0
1FFF80000000000FFFC0
3FFF000000000007FFE0
3FFE000000000003FFE0
3FFC000000000001FFF0
7FFC000000000001FFF0
7FF8000000000000FFF0
7FF80000000000007FF8
FFF00000000000007FF8
FFF00000000000007FF8
FFF00000000000003FF8
FFE00000000000003FF8
FFE00000000000003FF8
FFE00000000000003FFC
FFE00000000000003FFC
FFE00000000000003FFC
FFE00000000000003FFC
FFE00000000000003FFC
FFE00000000000003FFC
FFE00000000000003FFC
FFE00000000000003FF8
FFE00000000000003FF8
FFF00000000000003FF8
FFF00000000000003FF8
7FF00000000000007FF8
7FF00000000000007FF8
7FF8000000000000FFF0
7FF8000000000000FFF0
3FFC000000000001FFF0
3FFE000000000001FFE0
1FFE000000000003FFE0
1FFF000000000007FFC0
1FFF80000000000FFFC0
0FFFC0000000001FFF80
07FFF0000000003FFF80
07FFF800000000FFFF00
03FFFE00000003FFFE00
01FFFFE000003FFFFE00
01FFFFFFFFFFFFFFFC00
00FFFFFFFFFFFFFFF800
007FFFFFFFFFFFFFF000
003FFFFFFFFFFFFFE000
000FFFFFFFFFFFFFC000
0007FFFFFFFFFFFF0000
0001FFFFFFFFFFFE0000
0000FFFFFFFFFFF80000
00003FFFFFFFFFE00000
000007FFFFFFFF000000
0000007FFFFFF0000000
ENDCHAR
STARTCHAR Odieresis
ENCODING 214
SWIDTH 968 0
DWIDTH 85 0
BBX 78 79 4 0
BITMAP
0000000F800F80000000
0000001FC01FC0000000
0000003FE03FE0000000
0000003FE03FE0000000
0000003FE03FE0000000
0000003FE03FE0000000
0000001FC01FC0000000
0000000F800F80000000
00000000000000000000
00000000000000000000
00000000000000000000
00000000000000000000
00000000000000000000
00000000000000000000
00000000000000000000
0000007FFFFFF8000000
000007FFFFFFFF800000
00003FFFFFFFFFF00000
0000FFFFFFFFFFFC0000
0003FFFFFFFFFFFF0000
000FFFFFFFFFFFFF8000
001FFFFFFFFFFFFFC000
003FFFFFFFFFFFFFF000
007FFFFFFFFFFFFFF800
00FFFFFFFFFFFFFFFC00
01FFFFFFFFFFFFFFFE00
03FFFFE000003FFFFE00
07FFFE00000003FFFF00
07FFF800000000FFFF80
0FFFF0000000003FFF80
1FFFC0000000001FFFC0
1FFF80000000000FFFC0
3FFF000000000007FFE0
3FFE000000000003FFE0
3FFC000000000001FFF0
7FFC000000000001FFF0
7FF8000000000000FFF0
7FF80000000000007FF8
FFF00000000000007FF8
FFF00000000000007FF8
FFF00000000000003FF8
FFE00000000000003FF8
FFE00000000000003FF8
FFE00000000000003FFC
FFE00000000000003FFC
FFE00000000000003FFC
FFE00000000000003FFC
FFE00000000000003FFC
FFE00000000000003FFC
FFE00000000000003FFC
FFE00000000000003FF8
FFE00000000000003FF8
FFF00000000000003FF8
FFF00000000000003FF8
7FF00000000000007FF8
7FF00000000000007FF8
7FF8000000000000FFF0
7FF8000000000000FFF0
3FFC000000000001FFF0
3FFE000000000001FFE0
1FFE000000000003FFE0
1FFF000000000007FFC0
1FFF80000000000FFFC0
0FFFC0000000001FFF80
07FFF0000000003FFF80
07FFF800000000FFFF00
03FFFE00000003FFFE00
01FFFFE000003FFFFE00
01FFFFFFFFFFFFFFFC00
00FFFFFFFFFFFFFFF800
007FFFFFFFFFFFFFF000
003FFFFFFFFFFFFFE000
000FFFFFFFFFFFFFC000
0007FFFFFFFFFFFF0000
0001FFFFFFFFFFFE0000
0000FFFFFFFFFFF80000
00003FFFFFFFFFE00000
000007FFFFFFFF000000
0000007FFFFFF0000000
ENDCHAR
STARTCHAR multiply
ENCODING 215
SWIDTH 690 0
DWIDTH 61 0
BBX 41 41 10 12
BITMAP
040000001000
0E0000003000
1F0000007800
3F800000FC00
7FC00001FE00
FFE00003FF00
7FF00007FE00
3FF8000FFC00
1FFC001FF800
0FFE003FF000
07FF007FE000
03FF80FFC000
01FFC1FF8000
00FFE3FF0000
007FF7FE0000
003FFFFC0000
001FFFF80000
000FFFF00000
0007FFE00000
0003FFC00000
0001FFC00000
0003FFE00000
0007FFF00000
000FFFF80000
001FFFFC0000
003FFFFE0000
007FE7FF0000
00FFE3FF8000
01FFC1FFC000
03FF80FFE000
07FF007FF000
0FFE003FF800
1FFC001FFC00
3FF8000FFE00
7FF00007FF00
FFE00003FF80
7FC00001FF00
3F800000FE00
1F0000007C00
0E0000003800
040000001000
ENDCHAR
STARTCHAR Oslash
ENCODING 216
SWIDTH 968 0
DWIDTH 85 0
BBX 78 72 4 -4
BITMAP
00000000000000003000
00000000000000003800
00000000000000007C00
0000000000000000FC00
0000007FFFFFF001F800
000007FFFFFFFF83F000
00003FFFFFFFFFF7E000
0000FFFFFFFFFFFFC000
0003FFFFFFFFFFFF8000
000FFFFFFFFFFFFF8000
001FFFFFFFFFFFFFC000
003FFFFFFFFFFFFFF000
007FFFFFFFFFFFFFF800
00FFFFFFFFFFFFFFFC00
01FFFFFFFFFFFFFFFE00
03FFFFE000003FFFFE00
07FFFE00000007FFFF00
07FFF80000000FFFFF80
0FFFF00000001FBFFF80
1FFFC00000003F1FFFC0
1FFF800000007E0FFFC0
3FFF000000007C07FFE0
3FFE00000000FC03FFE0
3FFC00000001F801FFF0
7FFC00000003F001FFF0
7FF800000007E000FFF0
7FF80000000FC0007FF8
FFF00000000F80007FF8
FFF00000001F80007FF8
FFF00000003F00003FF8
FFE00000007E00003FF8
FFE0000000FC00003FF8
FFE0000001F800003FFC
FFE0000003F000003FFC
FFE0000003E000003FFC
FFE0000007E000003FFC
FFE000000FC000003FFC
FFE000001F8000003FFC
FFE000003F0000003FFC
FFE000007E0000003FF8
FFE00000FC0000003FF8
FFE00000FC0000003FF8
FFF00001F80000003FF8
7FF00003F00000007FF8
7FF00007E00000007FF8
7FF8000FC0000000FFF0
7FF8001F80000000FFF0
3FFC001F00000001FFF0
3FFE003F00000001FFE0
3FFE007E00000003FFE0
1FFF00FC00000007FFC0
1FFF81F80000000FFFC0
0FFFC3F00000001FFF80
07FFF7E00000003FFF80
07FFFFE0000000FFFF00
03FFFFC0000003FFFE00
01FFFFE000003FFFFE00
01FFFFFFFFFFFFFFFC00
00FFFFFFFFFFFFFFF800
007FFFFFFFFFFFFFF000
003FFFFFFFFFFFFFE000
000FFFFFFFFFFFFFC000
0007FFFFFFFFFFFF0000
0007FFFFFFFFFFFE0000
000FFFFFFFFFFFF80000
001FBFFFFFFFFFE00000
003F07FFFFFFFF000000
003E007FFFFFF0000000
007E0000000000000000
00FC0000000000000000
00780000000000000000
00300000000000000000
ENDCHAR
STARTCHAR Ugrave
ENCODING 217
SWIDTH 889 0
DWIDTH 78 0
BBX 69 81 5 -1
BITMAP
000008000000000000
00000F000000000000
00000FF00000000000
00000FFE0000000000
00000FFFC000000000
00000FFFFC00000000
00000FFFFF80000000
000003FFFFE0000000
0000003FFFE0000000
00000001FFE0000000
000000000FE0000000
0000000000E0000000
000000000000000000
000000000000000000
000000000000000000
000000000000000000
FFE000000000003FF8
FFE000000000003FF8
FFE000000000003FF8
FFE000000000003FF8
FFE000000000003FF8
FFE000000000003FF8
FFE000000000003FF8
FFE000000000003FF8
FFE000000000003FF8
FFE000000000003FF8
FFE000000000003FF8
FFE000000000003FF8
FFE000000000003FF8
FFE000000000003FF8
FFE000000000003FF8
FFE000000000003FF8
FFE000000000003FF8
FFE000000000003FF8
FFE000000000003FF8
FFE000000000003FF8
FFE000000000003FF8
FFE000000000003FF8
FFE000000000003FF8
FFE000000000003FF8
FFE000000000003FF8
FFE000000000003FF8
FFE000000000003FF8
FFE000000000003FF8
FFE000000000003FF8
FFE000000000003FF8
FFE000000000003FF8
FFE000000000003FF8
FFE000000000003FF8
FFE000000000003FF8
FFE000000000003FF8
FFE000000000003FF8
FFE000000000003FF8
FFE000000000003FF8
FFE000000000003FF8
FFE000000000007FF8
FFE000000000007FF0
FFF000000000007FF0
FFF000000000007FF0
FFF000000000007FF0
FFF00000000000FFF0
7FF80000000000FFF0
7FF80000000001FFE0
7FFC0000000001FFE0
7FFE0000000003FFE0
3FFF0000000007FFC0
3FFF800000001FFFC0
1FFFE00000003FFFC0
1FFFFC000001FFFF80
0FFFFFF0007FFFFF00
0FFFFFFFFFFFFFFF00
07FFFFFFFFFFFFFE00
03FFFFFFFFFFFFFC00
01FFFFFFFFFFFFF800
00FFFFFFFFFFFFF000
003FFFFFFFFFFFC000
001FFFFFFFFFFF8000
0007FFFFFFFFFE0000
0000FFFFFFFFF00000
00001FFFFFFF800000
0000007FFFE0000000
ENDCHAR
STARTCHAR Uacute
ENCODING 218
SWIDTH 889 0
DWIDTH 78 0
BBX 69 81 5 -1
BITMAP
000000000001000000
00000000000F000000
0000000000FF000000
0000000007FF000000
000000003FFF000000
00000003FFFF000000
0000001FFFFF000000
0000007FFFFE000000
0000007FFFC0000000
0000007FF800000000
0000007F8000000000
000000700000000000
000000000000000000
000000000000000000
000000000000000000
000000000000000000
FFE000000000003FF8
FFE000000000003FF8
FFE000000000003FF8
FFE000000000003FF8
FFE000000000003FF8
FFE000000000003FF8
FFE000000000003FF8
FFE000000000003FF8
FFE000000000003FF8
FFE000000000003FF8
FFE000000000003FF8
FFE000000000003FF8
FFE000000000003FF8
FFE000000000003FF8
FFE000000000003FF8
FFE000000000003FF8
FFE000000000003FF8
FFE000000000003FF8
FFE000000000003FF8
FFE000000000003FF8
FFE000000000003FF8
FFE000000000003FF8
FFE000000000003FF8
FFE000000000003FF8
FFE000000000003FF8
FFE000000000003FF8
FFE000000000003FF8
FFE000000000003FF8
FFE000000000003FF8
FFE000000000003FF8
FFE000000000003FF8
FFE000000000003FF8
FFE000000000003FF8
FFE000000000003FF8
FFE000000000003FF8
FFE000000000003FF8
FFE000000000003FF8
FFE000000000003FF8
FFE000000000003FF8
FFE000000000007FF8
FFE000000000007FF0
FFF000000000007FF0
FFF000000000007FF0
FFF000000000007FF0
FFF00000000000FFF0
7FF80000000000FFF0
7FF80000000001FFE0
7FFC0000000001FFE0
7FFE0000000003FFE0
3FFF0000000007FFC0
3FFF800000001FFFC0
1FFFE00000003FFFC0
1FFFFC000001FFFF80
0FFFFFF0007FFFFF00
0FFFFFFFFFFFFFFF00
07FFFFFFFFFFFFFE00
03FFFFFFFFFFFFFC00
01FFFFFFFFFFFFF800
00FFFFFFFFFFFFF000
003FFFFFFFFFFFC000
001FFFFFFFFFFF8000
0007FFFFFFFFFE0000
0000FFFFFFFFF00000
00001FFFFFFF800000
0000007FFFE0000000
ENDCHAR
STARTCHAR Ucircumflex
ENCODING 219
SWIDTH 889 0
DWIDTH 78 0
BBX 69 81 5 -1
BITMAP
00000003FC00000000
00000007FE00000000
0000000FFF00000000
0000000F9F80000000
0000001F9F80000000
0000003F0FC0000000
0000003E07E0000000
0000007E07E0000000
000000FC03F0000000
000001F801F8000000
000001F801F8000000
000003F000FC000000
000000000000000000
000000000000000000
000000000000000000
000000000000000000
FFE000000000003FF8
FFE000000000003FF8
FFE000000000003FF8
FFE000000000003FF8
FFE000000000003FF8
FFE000000000003FF8
FFE000000000003FF8
FFE000000000003FF8
FFE000000000003FF8
FFE000000000003FF8
FFE000000000003FF8
FFE000000000003FF8
FFE000000000003FF8
FFE000000000003FF8
FFE000000000003FF8
FFE000000000003FF8
FFE000000000003FF8
FFE000000000003FF8
FFE000000000003FF8
FFE000000000003FF8
FFE000000000003FF8
FFE000000000003FF8
FFE000000000003FF8
FFE000000000003FF8
FFE000000000003FF8
FFE000000000003FF8
FFE000000000003FF8
FFE000000000003FF8
FFE000000000003FF8
FFE000000000003FF8
FFE000000000003FF8
FFE000000000003FF8
FFE000000000003FF8
FFE000000000003FF8
FFE000000000003FF8
FFE000000000003FF8
FFE000000000003FF8
FFE000000000003FF8
FFE000000000003FF8
FFE000000000007FF8
FFE000000000007FF0
FFF000000000007FF0
FFF000000000007FF0
FFF000000000007FF0
FFF00000000000FFF0
7FF80000000000FFF0
7FF80000000001FFE0
7FFC0000000001FFE0
7FFE0000000003FFE0
3FFF0000000007FFC0
3FFF800000001FFFC0
1FFFE00000003FFFC0
1FFFFC000001FFFF80
0FFFFFF0007FFFFF00
0FFFFFFFFFFFFFFF00
07FFFFFFFFFFFFFE00
03FFFFFFFFFFFFFC00
01FFFFFFFFFFFFF800
00FFFFFFFFFFFFF000
003FFFFFFFFFFFC000
001FFFFFFFFFFF8000
0007FFFFFFFFFE0000
0000FFFFFFFFF00000
00001FFFFFFF800000
0000007FFFE0000000
ENDCHAR
STARTCHAR Udieresis
ENCODING 220
SWIDTH 889 0
DWIDTH 78 0
BBX 69 80 5 -1
BITMAP
000000F000F8000000
000003FC01FC000000
000003FC03FC000000
000007FC03FE000000
000003FC03FE000000
000003FC03FC000000
000003FC01FC000000
000000F000F8000000
000000000000000000
000000000000000000
000000000000000000
000000000000000000
000000000000000000
000000000000000000
000000000000000000
FFE000000000003FF8
FFE000000000003FF8
FFE000000000003FF8
FFE000000000003FF8
FFE000000000003FF8
FFE000000000003FF8
FFE000000000003FF8
FFE000000000003FF8
FFE000000000003FF8
FFE000000000003FF8
FFE000000000003FF8
FFE000000000003FF8
FFE000000000003FF8
FFE000000000003FF8
FFE000000000003FF8
FFE000000000003FF8
FFE000000000003FF8
FFE000000000003FF8
FFE000000000003FF8
FFE000000000003FF8
FFE000000000003FF8
FFE000000000003FF8
FFE000000000003FF8
FFE000000000003FF8
FFE000000000003FF8
FFE000000000003FF8
FFE000000000003FF8
FFE000000000003FF8
FFE000000000003FF8
FFE000000000003FF8
FFE000000000003FF8
FFE000000000003FF8
FFE000000000003FF8
FFE000000000003FF8
FFE000000000003FF8
FFE000000000003FF8
FFE000000000003FF8
FFE000000000003FF8
FFE000000000003FF8
FFE000000000007FF8
FFE000000000007FF0
FFF000000000007FF0
FFF000000000007FF0
FFF000000000007FF0
FFF00000000000FFF0
7FF80000000000FFF0
7FF80000000001FFE0
7FFC0000000001FFE0
7FFE0000000003FFE0
3FFF0000000007FFC0
3FFF800000001FFFC0
1FFFE00000003FFFC0
1FFFFC000001FFFF80
0FFFFFF0007FFFFF00
0FFFFFFFFFFFFFFF00
07FFFFFFFFFFFFFE00
03FFFFFFFFFFFFFC00
01FFFFFFFFFFFFF800
00FFFFFFFFFFFFF000
003FFFFFFFFFFFC000
001FFFFFFFFFFF8000
0007FFFFFFFFFE0000
0000FFFFFFFFF00000
00001FFFFFFF800000
0000007FFFE0000000
ENDCHAR
STARTCHAR Yacute
ENCODING 221
SWIDTH 926 0
DWIDTH 81 0
BBX 79 80 1 0
BITMAP
00000000000004000000
0000000000003C000000
000000000003FC000000
00000000001FFC000000
0000000000FFFC000000
000000000FFFFC000000
000000007FFFFC000000
00000001FFFFF8000000
00000001FFFF00000000
00000001FFE000000000
00000001FE0000000000
00000001C00000000000
00000000000000000000
00000000000000000000
00000000000000000000
00000000000000000000
FFFF0000000000007FFE
7FFF000000000000FFFC
3FFF800000000001FFF8
1FFFC00000000003FFF0
0FFFE00000000007FFF0
07FFF0000000000FFFE0
03FFF8000000000FFFC0
01FFFC000000001FFF80
01FFFC000000003FFF00
00FFFE000000007FFE00
007FFF00000000FFFC00
003FFF80000001FFFC00
001FFFC0000003FFF800
000FFFE0000003FFF000
0007FFE0000007FFE000
0007FFF000000FFFC000
0003FFF800001FFF8000
0001FFFC00003FFF0000
0000FFFE00007FFF0000
00007FFF00007FFE0000
00003FFF8000FFFC0000
00001FFF8001FFF80000
00001FFFC003FFF00000
00000FFFE007FFE00000
000007FFF00FFFC00000
000003FFF81FFF800000
000001FFFC1FFF800000
000000FFFC3FFF000000
0000007FFE7FFE000000
0000007FFFFFFC000000
0000003FFFFFF8000000
0000001FFFFFF0000000
0000000FFFFFE0000000
00000007FFFFE0000000
00000003FFFFC0000000
00000003FFFF80000000
00000001FFFF00000000
00000000FFFE00000000
000000007FFC00000000
000000003FF800000000
000000003FF800000000
000000003FF800000000
000000003FF800000000
000000003FF800000000
000000003FF800000000
000000003FF800000000
000000003FF800000000
000000003FF800000000
000000003FF800000000
000000003FF800000000
000000003FF800000000
000000003FF800000000
000000003FF800000000
000000003FF800000000
000000003FF800000000
000000003FF800000000
000000003FF800000000
000000003FF800000000
000000003FF800000000
000000003FF800000000
000000003FF800000000
000000003FF800000000
000000003FF800000000
000000003FF800000000
ENDCHAR
STARTCHAR Thorn
ENCODING 222
SWIDTH 843 0
DWIDTH 74 0
BBX 66 64 6 0
BITMAP
FFE000000000000000
FFE000000000000000
FFE000000000000000
FFE000000000000000
FFE000000000000000
FFE000000000000000
FFE000000000000000
FFE000000000000000
FFE000000000000000
FFFFFFFFFFFF800000
FFFFFFFFFFFFF00000
FFFFFFFFFFFFFC0000
FFFFFFFFFFFFFF0000
FFFFFFFFFFFFFF8000
FFFFFFFFFFFFFFE000
FFFFFFFFFFFFFFF000
FFFFFFFFFFFFFFF800
FFFFFFFFFFFFFFF800
FFFFFFFFFFFFFFFC00
FFFFFFFFFFFFFFFE00
FFE000000003FFFE00
FFE0000000007FFF00
FFE0000000003FFF00
FFE0000000001FFF00
FFE0000000000FFF80
FFE00000000007FF80
FFE00000000007FF80
FFE00000000003FF80
FFE00000000003FF80
FFE00000000003FFC0
FFE00000000001FFC0
FFE00000000001FFC0
FFE00000000001FFC0
FFE00000000001FFC0
FFE00000000003FFC0
FFE00000000003FF80
FFE00000000003FF80
FFE00000000003FF80
FFE00000000007FF80
FFE00000000007FF80
FFE0000000000FFF00
FFE0000000001FFF00
FFE0000000003FFF00
FFE0000000007FFE00
FFE000000003FFFE00
FFE01FFFFFFFFFFC00
FFE01FFFFFFFFFFC00
FFE01FFFFFFFFFF800
FFE01FFFFFFFFFF000
FFE01FFFFFFFFFE000
FFE01FFFFFFFFFC000
FFE01FFFFFFFFF8000
FFE01FFFFFFFFF0000
FFE01FFFFFFFFC0000
FFE01FFFFFFFF00000
FFE01FFFFFFF000000
FFE000000000000000
FFE000000000000000
FFE000000000000000
FFE000000000000000
FFE000000000000000
FFE000000000000000
FFE000000000000000
FFE000000000000000
ENDCHAR
STARTCHAR germandbls
ENCODING 223
SWIDTH 1760 0
DWIDTH 155 0
BBX 146 64 5 0
BITMAP
0003FFFFFFFFFFFF8000001FFFFFFFFFFFFE00
003FFFFFFFFFFFFF800000FFFFFFFFFFFFFE00
00FFFFFFFFFFFFFF800003FFFFFFFFFFFFFE00
01FFFFFFFFFFFFFF80000FFFFFFFFFFFFFFE00
07FFFFFFFFFFFFFF80001FFFFFFFFFFFFFFE00
0FFFFFFFFFFFFFFF80003FFFFFFFFFFFFFFE00
1FFFFFFFFFFFFFFF80007FFFFFFFFFFFFFFE00
1FFFFFFFFFFFFFFF8000FFFFFFFFFFFFFFFE00
3FFFFFFFFFFFFFFF8001FFFFFFFFFFFFFFFE00
7FFFFFFFFFFFFFFF8001FFFFFFFFFFFFFFFE00
7FFFFFFFFFFFFFFF8003FFFFFFFFFFFFFFFE00
7FFF8000000000000003FFFC00000000000000
FFFC0000000000000003FFF000000000000000
FFF80000000000000007FFE000000000000000
FFF00000000000000007FFC000000000000000
FFF00000000000000007FF8000000000000000
FFE00000000000000007FF8000000000000000
FFE00000000000000007FF8000000000000000
FFE00000000000000007FF8000000000000000
FFE00000000000000007FF8000000000000000
FFE00000000000000007FF8000000000000000
FFE00000000000000007FF8000000000000000
FFF00000000000000003FF8000000000000000
FFF00000000000000003FFC000000000000000
7FF80000000000000003FFC000000000000000
7FFC0000000000000001FFE000000000000000
3FFF0000000000000001FFF800000000000000
3FFFFFFFFFFFFC000000FFFFFFFFFFFFF00000
1FFFFFFFFFFFFFC00000FFFFFFFFFFFFFF0000
0FFFFFFFFFFFFFF000007FFFFFFFFFFFFFC000
0FFFFFFFFFFFFFFC00003FFFFFFFFFFFFFE000
07FFFFFFFFFFFFFE00001FFFFFFFFFFFFFF800
01FFFFFFFFFFFFFF00000FFFFFFFFFFFFFFC00
00FFFFFFFFFFFFFF800003FFFFFFFFFFFFFE00
001FFFFFFFFFFFFFC00000FFFFFFFFFFFFFE00
0003FFFFFFFFFFFFC000001FFFFFFFFFFFFF00
0000000000000FFFE0000000000000003FFF00
00000000000001FFE0000000000000000FFF80
00000000000000FFF00000000000000007FF80
000000000000007FF00000000000000003FF80
000000000000007FF00000000000000001FF80
000000000000007FF00000000000000001FFC0
000000000000003FF00000000000000001FFC0
000000000000003FF00000000000000001FFC0
000000000000003FF00000000000000001FFC0
000000000000003FF00000000000000001FFC0
000000000000003FF00000000000000001FFC0
000000000000007FF00000000000000001FFC0
000000000000007FF00000000000000003FFC0
00000000000000FFF00000000000000003FF80
00000000000001FFF00000000000000007FF80
00000000000003FFF0000000000000000FFF80
0000000000001FFFE0000000000000007FFF80
7FFFFFFFFFFFFFFFE003FFFFFFFFFFFFFFFF00
7FFFFFFFFFFFFFFFC003FFFFFFFFFFFFFFFF00
7FFFFFFFFFFFFFFFC003FFFFFFFFFFFFFFFE00
7FFFFFFFFFFFFFFF8003FFFFFFFFFFFFFFFE00
7FFFFFFFFFFFFFFF8003FFFFFFFFFFFFFFFC00
7FFFFFFFFFFFFFFF0003FFFFFFFFFFFFFFF800
7FFFFFFFFFFFFFFE0003FFFFFFFFFFFFFFF000
7FFFFFFFFFFFFFF80003FFFFFFFFFFFFFFE000
7FFFFFFFFFFFFFF00003FFFFFFFFFFFFFF8000
7FFFFFFFFFFFFFC00003FFFFFFFFFFFFFE0000
7FFFFFFFFFFFFC000003FFFFFFFFFFFFE00000
ENDCHAR
STARTCHAR agrave
ENCODING 224
SWIDTH 989 0
DWIDTH 87 0
BBX 85 80 1 0
BITMAP
0000000800000000000000
0000000780000000000000
00000007F0000000000000
00000007FE000000000000
00000007FFE00000000000
00000007FFFC0000000000
00000007FFFF8000000000
00000003FFFFE000000000
000000001FFFE000000000
0000000001FFE000000000
00000000000FE000000000
0000000000006000000000
0000000000000000000000
0000000000000000000000
0000000000000000000000
0000000000F80000000000
0000000001FC0000000000
0000000003FE0000000000
0000000007FF0000000000
000000000FFF0000000000
000000000FFF8000000000
000000001FFFC000000000
000000001FFFC000000000
000000003FFFE000000000
000000007FFFE000000000
000000007FFFF000000000
00000000FFFFF800000000
00000000FFFFF800000000
00000001FFFFFC00000000
00000003FFFFFC00000000
00000003FFFFFE00000000
00000007FFFFFF00000000
00000007FF9FFF00000000
0000000FFF9FFF80000000
0000001FFF0FFF80000000
0000001FFE07FFC0000000
0000003FFE07FFE0000000
0000003FFC03FFE0000000
0000007FFC03FFF0000000
000000FFF801FFF0000000
000000FFF000FFF8000000
000001FFF000FFFC000000
000001FFE0007FFC000000
000003FFE0007FFE000000
000007FFC0003FFE000000
000007FF80001FFF000000
00000FFF80001FFF800000
00000FFF00000FFF800000
00001FFF00000FFFC00000
00003FFE000007FFC00000
00003FFE000003FFE00000
00007FFC000003FFF00000
00007FF8000001FFF00000
0000FFF8000001FFF80000
0001FFF0000000FFF80000
0001FFF00FFFFFFFFC0000
0003FFE00FFFFFFFFE0000
0003FFC01FFFFFFFFE0000
0007FFC01FFFFFFFFF0000
000FFF803FFFFFFFFF0000
000FFF807FFFFFFFFF8000
001FFF007FFFFFFFFFC000
001FFE00FFFFFFFFFFC000
003FFE01FFFFFFFFFFE000
003FFC0000000003FFE000
007FFC0000000001FFF000
00FFF80000000001FFF800
00FFF00000000000FFF800
01FFF00000000000FFFC00
01FFE000000000007FFC00
03FFE000000000003FFE00
07FFC000000000003FFF00
07FF8000000000001FFF00
0FFF8000000000001FFF80
0FFF0000000000000FFF80
1FFF00000000000007FFC0
3FFE00000000000007FFE0
3FFC00000000000003FFE0
7FFC00000000000003FFF0
FFF800000000000001FFF8
ENDCHAR
STARTCHAR aacute
ENCODING 225
SWIDTH 989 0
DWIDTH 87 0
BBX 85 80 1 0
BITMAP
0000000000000100000000
0000000000000F00000000
0000000000007F00000000
000000000003FF00000000
00000000003FFF00000000
0000000001FFFF00000000
000000000FFFFF00000000
000000003FFFFE00000000
000000003FFFC000000000
000000003FFC0000000000
000000003F800000000000
0000000030000000000000
0000000000000000000000
0000000000000000000000
0000000000000000000000
0000000000F80000000000
0000000001FC0000000000
0000000003FE0000000000
0000000007FF0000000000
000000000FFF0000000000
000000000FFF8000000000
000000001FFFC000000000
000000001FFFC000000000
000000003FFFE000000000
000000007FFFE000000000
000000007FFFF000000000
00000000FFFFF800000000
00000000FFFFF800000000
00000001FFFFFC00000000
00000003FFFFFC00000000
00000003FFFFFE00000000
00000007FFFFFF00000000
00000007FF9FFF00000000
0000000FFF9FFF80000000
0000001FFF0FFF80000000
0000001FFE07FFC0000000
0000003FFE07FFE0000000
0000003FFC03FFE0000000
0000007FFC03FFF0000000
000000FFF801FFF0000000
000000FFF000FFF8000000
000001FFF000FFFC000000
000001FFE0007FFC000000
000003FFE0007FFE000000
000007FFC0003FFE000000
000007FF80001FFF000000
00000FFF80001FFF800000
00000FFF00000FFF800000
00001FFF00000FFFC00000
00003FFE000007FFC00000
00003FFE000003FFE00000
00007FFC000003FFF00000
00007FF8000001FFF00000
0000FFF8000001FFF80000
0001FFF0000000FFF80000
0001FFF00FFFFFFFFC0000
0003FFE00FFFFFFFFE0000
0003FFC01FFFFFFFFE0000
0007FFC01FFFFFFFFF0000
000FFF803FFFFFFFFF0000
000FFF807FFFFFFFFF8000
001FFF007FFFFFFFFFC000
001FFE00FFFFFFFFFFC000
003FFE01FFFFFFFFFFE000
003FFC0000000003FFE000
007FFC0000000001FFF000
00FFF80000000001FFF800
00FFF00000000000FFF800
01FFF00000000000FFFC00
01FFE000000000007FFC00
03FFE000000000003FFE00
07FFC000000000003FFF00
07FF8000000000001FFF00
0FFF8000000000001FFF80
0FFF0000000000000FFF80
1FFF00000000000007FFC0
3FFE00000000000007FFE0
3FFC00000000000003FFE0
7FFC00000000000003FFF0
FFF800000000000001FFF8
ENDCHAR
STARTCHAR acircumflex
ENCODING 226
SWIDTH 989 0
DWIDTH 87 0
BBX 85 80 1 0
BITMAP
0000000003FE0000000000
0000000007FF0000000000
0000000007FF0000000000
000000000FDF8000000000
000000001F8FC000000000
000000001F8FC000000000
000000003F07E000000000
000000007E03F000000000
000000007E03F000000000
00000000FC01F800000000
00000001F800FC00000000
00000003F800FE00000000
0000000000000000000000
0000000000000000000000
0000000000000000000000
0000000000F80000000000
0000000001FC0000000000
0000000003FE0000000000
0000000007FF0000000000
000000000FFF0000000000
000000000FFF8000000000
000000001FFFC000000000
000000001FFFC000000000
000000003FFFE000000000
000000007FFFE000000000
000000007FFFF000000000
00000000FFFFF800000000
00000000FFFFF800000000
00000001FFFFFC00000000
00000003FFFFFC00000000
00000003FFFFFE00000000
00000007FFFFFF00000000
00000007FF9FFF00000000
0000000FFF9FFF80000000
0000001FFF0FFF80000000
0000001FFE07FFC0000000
0000003FFE07FFE0000000
0000003FFC03FFE0000000
0000007FFC03FFF0000000
000000FFF801FFF0000000
000000FFF000FFF8000000
000001FFF000FFFC000000
000001FFE0007FFC000000
000003FFE0007FFE000000
000007FFC0003FFE000000
000007FF80001FFF000000
00000FFF80001FFF800000
00000FFF00000FFF800000
00001FFF00000FFFC00000
00003FFE000007FFC00000
00003FFE000003FFE00000
00007FFC000003FFF00000
00007FF8000001FFF00000
0000FFF8000001FFF80000
0001FFF0000000FFF80000
0001FFF00FFFFFFFFC0000
0003FFE00FFFFFFFFE0000
0003FFC01FFFFFFFFE0000
0007FFC01FFFFFFFFF0000
000FFF803FFFFFFFFF0000
000FFF807FFFFFFFFF8000
001FFF007FFFFFFFFFC000
001FFE00FFFFFFFFFFC000
003FFE01FFFFFFFFFFE000
003FFC0000000003FFE000
007FFC0000000001FFF000
00FFF80000000001FFF800
00FFF00000000000FFF800
01FFF00000000000FFFC00
01FFE000000000007FFC00
03FFE000000000003FFE00
07FFC000000000003FFF00
07FF8000000000001FFF00
0FFF8000000000001FFF80
0FFF0000000000000FFF80
1FFF00000000000007FFC0
3FFE00000000000007FFE0
3FFC00000000000003FFE0
7FFC00000000000003FFF0
FFF800000000000001FFF8
ENDCHAR
STARTCHAR atilde
ENCODING 227
SWIDTH 989 0
DWIDTH 87 0
BBX 85 78 1 0
BITMAP
000000003F000400000000
00000000FFC00C00000000
00000001FFF81C00000000
00000001FFFFFC00000000
00000001FFFFFC00000000
00000001C0FFFC00000000
00000001003FF800000000
000000010007E000000000
0000000000000000000000
0000000000000000000000
0000000000000000000000
0000000000000000000000
0000000000000000000000
0000000000F80000000000
0000000001FC0000000000
0000000003FE0000000000
0000000007FF0000000000
000000000FFF0000000000
000000000FFF8000000000
000000001FFFC000000000
000000001FFFC000000000
000000003FFFE000000000
000000007FFFE000000000
000000007FFFF000000000
00000000FFFFF800000000
00000000FFFFF800000000
00000001FFFFFC00000000
00000003FFFFFC00000000
00000003FFFFFE00000000
00000007FFFFFF00000000
00000007FF9FFF00000000
0000000FFF9FFF80000000
0000001FFF0FFF80000000
0000001FFE07FFC0000000
0000003FFE07FFE0000000
0000003FFC03FFE0000000
0000007FFC03FFF0000000
000000FFF801FFF0000000
000000FFF000FFF8000000
000001FFF000FFFC000000
000001FFE0007FFC000000
000003FFE0007FFE000000
000007FFC0003FFE000000
000007FF80001FFF000000
00000FFF80001FFF800000
00000FFF00000FFF800000
00001FFF00000FFFC00000
00003FFE000007FFC00000
00003FFE000003FFE00000
00007FFC000003FFF00000
00007FF8000001FFF00000
0000FFF8000001FFF80000
0001FFF0000000FFF80000
0001FFF00FFFFFFFFC0000
0003FFE00FFFFFFFFE0000
0003FFC01FFFFFFFFE0000
0007FFC01FFFFFFFFF0000
000FFF803FFFFFFFFF0000
000FFF807FFFFFFFFF8000
001FFF007FFFFFFFFFC000
001FFE00FFFFFFFFFFC000
003FFE01FFFFFFFFFFE000
003FFC0000000003FFE000
007FFC0000000001FFF000
00FFF80000000001FFF800
00FFF00000000000FFF800
01FFF00000000000FFFC00
01FFE000000000007FFC00
03FFE000000000003FFE00
07FFC000000000003FFF00
07FF8000000000001FFF00
0FFF8000000000001FFF80
0FFF0000000000000FFF80
1FFF00000000000007FFC0
3FFE00000000000007FFE0
3FFC00000000000003FFE0
7FFC00000000000003FFF0
FFF800000000000001FFF8
ENDCHAR
STARTCHAR adieresis
ENCODING 228
SWIDTH 989 0
DWIDTH 87 0
BBX 85 79 1 0
BITMAP
00000000F800F800000000
00000001FC01FC00000000
00000003FE03FE00000000
00000003FE03FE00000000
00000003FE03FE00000000
00000003FE03FE00000000
00000001FC01FC00000000
00000000F800F800000000
0000000000000000000000
0000000000000000000000
0000000000000000000000
0000000000000000000000
0000000000000000000000
0000000000000000000000
0000000000F80000000000
0000000001FC0000000000
0000000003FE0000000000
0000000007FF0000000000
000000000FFF0000000000
000000000FFF8000000000
000000001FFFC000000000
000000001FFFC000000000
000000003FFFE000000000
000000007FFFE000000000
000000007FFFF000000000
00000000FFFFF800000000
00000000FFFFF800000000
00000001FFFFFC00000000
00000003FFFFFC00000000
00000003FFFFFE00000000
00000007FFFFFF00000000
00000007FF9FFF00000000
0000000FFF9FFF80000000
0000001FFF0FFF80000000
0000001FFE07FFC0000000
0000003FFE07FFE0000000
0000003FFC03FFE0000000
0000007FFC03FFF0000000
000000FFF801FFF0000000
000000FFF000FFF8000000
000001FFF000FFFC000000
000001FFE0007FFC000000
000003FFE0007FFE000000
000007FFC0003FFE000000
000007FF80001FFF000000
00000FFF80001FFF800000
00000FFF00000FFF800000
00001FFF00000FFFC00000
00003FFE000007FFC00000
00003FFE000003FFE00000
00007FFC000003FFF00000
00007FF8000001FFF00000
0000FFF8000001FFF80000
0001FFF0000000FFF80000
0001FFF00FFFFFFFFC0000
0003FFE00FFFFFFFFE0000
0003FFC01FFFFFFFFE0000
0007FFC01FFFFFFFFF0000
000FFF803FFFFFFFFF0000
000FFF807FFFFFFFFF8000
001FFF007FFFFFFFFFC000
001FFE00FFFFFFFFFFC000
003FFE01FFFFFFFFFFE000
003FFC0000000003FFE000
007FFC0000000001FFF000
00FFF80000000001FFF800
00FFF00000000000FFF800
01FFF00000000000FFFC00
01FFE000000000007FFC00
03FFE000000000003FFE00
07FFC000000000003FFF00
07FF8000000000001FFF00
0FFF8000000000001FFF80
0FFF0000000000000FFF80
1FFF00000000000007FFC0
3FFE00000000000007FFE0
3FFC00000000000003FFE0
7FFC00000000000003FFF0
FFF800000000000001FFF8
ENDCHAR
STARTCHAR aring
ENCODING 229
SWIDTH 989 0
DWIDTH 87 0
BBX 85 86 1 0
BITMAP
0000000007FF0000000000
000000001FFFC000000000
000000003FFFE000000000
000000007C01F000000000
00000000F0007800000000
00000000E0007800000000
00000001E0003800000000
00000001E0003C00000000
00000001E0003C00000000
00000001E0003C00000000
00000001E0003C00000000
00000000E0003800000000
00000000F0007800000000
00000000F0007800000000
000000007C01F000000000
000000003FFFE000000000
000000001FFFC000000000
0000000007FF0000000000
0000000000000000000000
0000000000000000000000
0000000000000000000000
0000000000F80000000000
0000000001FC0000000000
0000000003FE0000000000
0000000007FF0000000000
000000000FFF0000000000
000000000FFF8000000000
000000001FFFC000000000
000000001FFFC000000000
000000003FFFE000000000
000000007FFFE000000000
000000007FFFF000000000
00000000FFFFF800000000
00000000FFFFF800000000
00000001FFFFFC00000000
00000003FFFFFC00000000
00000003FFFFFE00000000
00000007FFFFFF00000000
00000007FF9FFF00000000
0000000FFF9FFF80000000
0000001FFF0FFF80000000
0000001FFE07FFC0000000
0000003FFE07FFE0000000
0000003FFC03FFE0000000
0000007FFC03FFF0000000
000000FFF801FFF0000000
000000FFF000FFF8000000
000001FFF000FFFC000000
000001FFE0007FFC000000
000003FFE0007FFE000000
000007FFC0003FFE000000
000007FF80001FFF000000
00000FFF80001FFF800000
00000FFF00000FFF800000
00001FFF00000FFFC00000
00003FFE000007FFC00000
00003FFE000003FFE00000
00007FFC000003FFF00000
00007FF8000001FFF00000
0000FFF8000001FFF80000
0001FFF0000000FFF80000
0001FFF00FFFFFFFFC0000
0003FFE00FFFFFFFFE0000
0003FFC01FFFFFFFFE0000
0007FFC01FFFFFFFFF0000
000FFF803FFFFFFFFF0000
000FFF807FFFFFFFFF8000
001FFF007FFFFFFFFFC000
001FFE00FFFFFFFFFFC000
003FFE01FFFFFFFFFFE000
003FFC0000000003FFE000
007FFC0000000001FFF000
00FFF80000000001FFF800
00FFF00000000000FFF800
01FFF00000000000FFFC00
01FFE000000000007FFC00
03FFE000000000003FFE00
07FFC000000000003FFF00
07FF8000000000001FFF00
0FFF8000000000001FFF80
0FFF0000000000000FFF80
1FFF00000000000007FFC0
3FFE00000000000007FFE0
3FFC00000000000003FFE0
7FFC00000000000003FFF0
FFF800000000000001FFF8
ENDCHAR
STARTCHAR ae
ENCODING 230
SWIDTH 1345 0
DWIDTH 118 0
BBX 113 64 1 0
BITMAP
0000000003FFFFFFFFFFFFFFFFFF80
0000000007FFFFFFFFFFFFFFFFFF80
000000000FFFFFFFFFFFFFFFFFFF80
000000001FFFFFFFFFFFFFFFFFFF80
000000001FFFFFFFFFFFFFFFFFFF80
000000003FFFFFFFFFFFFFFFFFFF80
000000003FFFFFFFFFFFFFFFFFFF80
000000007FFFFFFFFFFFFFFFFFFF80
00000000FFFFFFFFFFFFFFFFFFFF80
00000000FFFFFFFFFFFFFFFFFFFF80
00000001FFFFFFFFFFFFFFFFFFFF80
00000001FFE0000FFE000000000000
00000003FFC0000FFE000000000000
00000003FFC0000FFE000000000000
00000007FF80000FFE000000000000
0000000FFF00000FFE000000000000
0000000FFF00000FFE000000000000
0000001FFE00000FFE000000000000
0000001FFE00000FFE000000000000
0000003FFC00000FFE000000000000
0000003FFC00000FFE000000000000
0000007FF800000FFE000000000000
000000FFF000000FFE000000000000
000000FFF000000FFE000000000000
000001FFE000000FFE000000000000
000001FFE000000FFE000000000000
000003FFC000000FFE000000000000
000007FFC000000FFE01FFFFFFFE00
000007FF8000000FFE01FFFFFFFE00
00000FFF0000000FFE01FFFFFFFE00
00000FFF0000000FFE01FFFFFFFE00
00001FFE0000000FFE01FFFFFFFE00
00001FFE0000000FFE01FFFFFFFE00
00003FFC0000000FFE01FFFFFFFE00
00007FFC0000000FFE01FFFFFFFE00
00007FF80000000FFE01FFFFFFFE00
0000FFF00000000FFE000000000000
0000FFF00000000FFE000000000000
0001FFE00000000FFE000000000000
0003FFE00FFFFFFFFE000000000000
0003FFC01FFFFFFFFE000000000000
0007FFC01FFFFFFFFE000000000000
0007FF803FFFFFFFFE000000000000
000FFF807FFFFFFFFE000000000000
000FFF007FFFFFFFFE000000000000
001FFE00FFFFFFFFFE000000000000
003FFE00FFFFFFFFFE000000000000
003FFC01FFFFFFFFFE000000000000
007FFC000000000FFE000000000000
007FF8000000000FFE000000000000
00FFF8000000000FFE000000000000
01FFF0000000000FFE000000000000
01FFE0000000000FFE000000000000
03FFE0000000000FFFFFFFFFFFFF80
03FFC0000000000FFFFFFFFFFFFF80
07FFC0000000000FFFFFFFFFFFFF80
07FF80000000000FFFFFFFFFFFFF80
0FFF80000000000FFFFFFFFFFFFF80
1FFF00000000000FFFFFFFFFFFFF80
1FFE00000000000FFFFFFFFFFFFF80
3FFE00000000000FFFFFFFFFFFFF80
3FFC00000000000FFFFFFFFFFFFF80
7FFC00000000000FFFFFFFFFFFFF80
FFF800000000000FFFFFFFFFFFFF80
ENDCHAR
STARTCHAR ccedilla
ENCODING 231
SWIDTH 829 0
DWIDTH 73 0
BBX 65 82 4 -18
BITMAP
0000007FFFFFFFFF80
000007FFFFFFFFFF80
00003FFFFFFFFFFF80
0000FFFFFFFFFFFF80
0003FFFFFFFFFFFF80
000FFFFFFFFFFFFF80
001FFFFFFFFFFFFF80
003FFFFFFFFFFFFF80
007FFFFFFFFFFFFF80
00FFFFFFFFFFFFFF80
01FFFFFFFFFFFFFF80
03FFFFE00000000000
07FFFE000000000000
07FFF8000000000000
0FFFF0000000000000
1FFFC0000000000000
1FFF80000000000000
3FFF00000000000000
3FFE00000000000000
3FFC00000000000000
7FFC00000000000000
7FF800000000000000
7FF800000000000000
FFF000000000000000
FFF000000000000000
FFF000000000000000
FFE000000000000000
FFE000000000000000
FFE000000000000000
FFE000000000000000
FFE000000000000000
FFE000000000000000
FFE000000000000000
FFE000000000000000
FFE000000000000000
FFE000000000000000
FFE000000000000000
FFF000000000000000
FFF000000000000000
7FF000000000000000
7FF000000000000000
7FF800000000000000
7FF800000000000000
3FFC00000000000000
3FFE00000000000000
1FFE00000000000000
1FFF00000000000000
1FFF80000000000000
0FFFC0000000000000
07FFF0000000000000
07FFF8000000000000
03FFFE000000000000
01FFFFE00000000000
01FFFFFFFFFFFFFF80
00FFFFFFFFFFFFFF80
007FFFFFFFFFFFFF80
003FFFFFFFFFFFFF80
000FFFFFFFFFFFFF80
0007FFFFFFFFFFFF80
0001FFFFFFFFFFFF80
0000FFFFFFFFFFFF80
00003FFFFFFFFFFF80
000007FFFFFFFFFF80
0000007FFFFFFFFF80
000000000000000000
000000000000000000
000000000000000000
000000000000000000
0000000FFF00000000
00000007FE00000000
00000007FE00000000
00000003FE00000000
00000003FC00000000
00000001FC00000000
00000001F800000000
00000000F800000000
00000000F000000000
00000000F000000000
000000007000000000
000000006000000000
000000002000000000
000000002000000000
ENDCHAR
STARTCHAR egrave
ENCODING 232
SWIDTH 759 0
DWIDTH 67 0
BBX 57 80 6 0
BITMAP
0004000000000000
0007C00000000000
0007F80000000000
0007FF0000000000
0007FFF000000000
0007FFFE00000000
0007FFFFC0000000
0001FFFFF0000000
00001FFFF0000000
000000FFF0000000
00000007F0000000
0000000070000000
0000000000000000
0000000000000000
0000000000000000
0000000000000000
FFFFFFFFFFFFFF80
FFFFFFFFFFFFFF80
FFFFFFFFFFFFFF80
FFFFFFFFFFFFFF80
FFFFFFFFFFFFFF80
FFFFFFFFFFFFFF80
FFFFFFFFFFFFFF80
FFFFFFFFFFFFFF80
FFFFFFFFFFFFFF80
FFFFFFFFFFFFFF80
FFFFFFFFFFFFFF80
FFE0000000000000
FFE0000000000000
FFE0000000000000
FFE0000000000000
FFE0000000000000
FFE0000000000000
FFE0000000000000
FFE0000000000000
FFE0000000000000
FFE0000000000000
FFE0000000000000
FFE0000000000000
FFE0000000000000
FFE0000000000000
FFE0000000000000
FFE0000000000000
FFE01FFFFFFFFC00
FFE01FFFFFFFFC00
FFE01FFFFFFFFC00
FFE01FFFFFFFFC00
FFE01FFFFFFFFC00
FFE01FFFFFFFFC00
FFE01FFFFFFFFC00
FFE01FFFFFFFFC00
FFE01FFFFFFFFC00
FFE0000000000000
FFE0000000000000
FFE0000000000000
FFE0000000000000
FFE0000000000000
FFE0000000000000
FFE0000000000000
FFE0000000000000
FFE0000000000000
FFE0000000000000
FFE0000000000000
FFE0000000000000
FFE0000000000000
FFE0000000000000
FFE0000000000000
FFE0000000000000
FFE0000000000000
FFFFFFFFFFFFFF80
FFFFFFFFFFFFFF80
FFFFFFFFFFFFFF80
FFFFFFFFFFFFFF80
FFFFFFFFFFFFFF80
FFFFFFFFFFFFFF80
FFFFFFFFFFFFFF80
FFFFFFFFFFFFFF80
FFFFFFFFFFFFFF80
FFFFFFFFFFFFFF80
FFFFFFFFFFFFFF80
ENDCHAR
STARTCHAR eacute
ENCODING 233
SWIDTH 759 0
DWIDTH 67 0
BBX 57 80 6 0
BITMAP
0000000000800000
0000000007800000
000000003F800000
00000003FF800000
0000001FFF800000
000000FFFF800000
00000FFFFF800000
00001FFFFF000000
00001FFFE0000000
00001FFE00000000
00001FC000000000
0000180000000000
0000000000000000
0000000000000000
0000000000000000
0000000000000000
FFFFFFFFFFFFFF80
FFFFFFFFFFFFFF80
FFFFFFFFFFFFFF80
FFFFFFFFFFFFFF80
FFFFFFFFFFFFFF80
FFFFFFFFFFFFFF80
FFFFFFFFFFFFFF80
FFFFFFFFFFFFFF80
FFFFFFFFFFFFFF80
FFFFFFFFFFFFFF80
FFFFFFFFFFFFFF80
FFE0000000000000
FFE0000000000000
FFE0000000000000
FFE0000000000000
FFE0000000000000
FFE0000000000000
FFE0000000000000
FFE0000000000000
FFE0000000000000
FFE0000000000000
FFE0000000000000
FFE0000000000000
FFE0000000000000
FFE0000000000000
FFE0000000000000
FFE0000000000000
FFE01FFFFFFFFC00
FFE01FFFFFFFFC00
FFE01FFFFFFFFC00
FFE01FFFFFFFFC00
FFE01FFFFFFFFC00
FFE01FFFFFFFFC00
FFE01FFFFFFFFC00
FFE01FFFFFFFFC00
FFE01FFFFFFFFC00
FFE0000000000000
FFE0000000000000
FFE0000000000000
FFE0000000000000
FFE0000000000000
FFE0000000000000
FFE0000000000000
FFE0000000000000
FFE0000000000000
FFE0000000000000
FFE0000000000000
FFE0000000000000
FFE0000000000000
FFE0000000000000
FFE0000000000000
FFE0000000000000
FFE0000000000000
FFFFFFFFFFFFFF80
FFFFFFFFFFFFFF80
FFFFFFFFFFFFFF80
FFFFFFFFFFFFFF80
FFFFFFFFFFFFFF80
FFFFFFFFFFFFFF80
FFFFFFFFFFFFFF80
FFFFFFFFFFFFFF80
FFFFFFFFFFFFFF80
FFFFFFFFFFFFFF80
FFFFFFFFFFFFFF80
ENDCHAR
STARTCHAR ecircumflex
ENCODING 234
SWIDTH 759 0
DWIDTH 67 0
BBX 57 80 6 0
BITMAP
000001FF00000000
000003FF00000000
000003FF80000000
000007EFC0000000
00000FC7E0000000
00000F87E0000000
00001F83F0000000
00003F01F8000000
00007E01F8000000
00007E00FC000000
0000FC007E000000
0001F8007E000000
0000000000000000
0000000000000000
0000000000000000
0000000000000000
FFFFFFFFFFFFFF80
FFFFFFFFFFFFFF80
FFFFFFFFFFFFFF80
FFFFFFFFFFFFFF80
FFFFFFFFFFFFFF80
FFFFFFFFFFFFFF80
FFFFFFFFFFFFFF80
FFFFFFFFFFFFFF80
FFFFFFFFFFFFFF80
FFFFFFFFFFFFFF80
FFFFFFFFFFFFFF80
FFE0000000000000
FFE0000000000000
FFE0000000000000
FFE0000000000000
FFE0000000000000
FFE0000000000000
FFE0000000000000
FFE0000000000000
FFE0000000000000
FFE0000000000000
FFE0000000000000
FFE0000000000000
FFE0000000000000
FFE0000000000000
FFE0000000000000
FFE0000000000000
FFE01FFFFFFFFC00
FFE01FFFFFFFFC00
FFE01FFFFFFFFC00
FFE01FFFFFFFFC00
FFE01FFFFFFFFC00
FFE01FFFFFFFFC00
FFE01FFFFFFFFC00
FFE01FFFFFFFFC00
FFE01FFFFFFFFC00
FFE0000000000000
FFE0000000000000
FFE0000000000000
FFE0000000000000
FFE0000000000000
FFE0000000000000
FFE0000000000000
FFE0000000000000
FFE0000000000000
FFE0000000000000
FFE0000000000000
FFE0000000000000
FFE0000000000000
FFE0000000000000
FFE0000000000000
FFE0000000000000
FFE0000000000000
FFFFFFFFFFFFFF80
FFFFFFFFFFFFFF80
FFFFFFFFFFFFFF80
FFFFFFFFFFFFFF80
FFFFFFFFFFFFFF80
FFFFFFFFFFFFFF80
FFFFFFFFFFFFFF80
FFFFFFFFFFFFFF80
FFFFFFFFFFFFFF80
FFFFFFFFFFFFFF80
FFFFFFFFFFFFFF80
ENDCHAR
STARTCHAR edieresis
ENCODING 235
SWIDTH 759 0
DWIDTH 67 0
BBX 57 79 6 0
BITMAP
00007C007C000000
0000FE00FE000000
0001FE01FF000000
0001FF01FF000000
0001FF01FF000000
0001FE01FF000000
0000FE00FE000000
00007C007C000000
0000000000000000
0000000000000000
0000000000000000
0000000000000000
0000000000000000
0000000000000000
0000000000000000
FFFFFFFFFFFFFF80
FFFFFFFFFFFFFF80
FFFFFFFFFFFFFF80
FFFFFFFFFFFFFF80
FFFFFFFFFFFFFF80
FFFFFFFFFFFFFF80
FFFFFFFFFFFFFF80
FFFFFFFFFFFFFF80
FFFFFFFFFFFFFF80
FFFFFFFFFFFFFF80
FFFFFFFFFFFFFF80
FFE0000000000000
FFE0000000000000
FFE0000000000000
FFE0000000000000
FFE0000000000000
FFE0000000000000
FFE0000000000000
FFE0000000000000
FFE0000000000000
FFE0000000000000
FFE0000000000000
FFE0000000000000
FFE0000000000000
FFE0000000000000
FFE0000000000000
FFE0000000000000
FFE01FFFFFFFFC00
FFE01FFFFFFFFC00
FFE01FFFFFFFFC00
FFE01FFFFFFFFC00
FFE01FFFFFFFFC00
FFE01FFFFFFFFC00
FFE01FFFFFFFFC00
FFE01FFFFFFFFC00
FFE01FFFFFFFFC00
FFE0000000000000
FFE0000000000000
FFE0000000000000
FFE0000000000000
FFE0000000000000
FFE0000000000000
FFE0000000000000
FFE0000000000000
FFE0000000000000
FFE0000000000000
FFE0000000000000
FFE0000000000000
FFE0000000000000
FFE0000000000000
FFE0000000000000
FFE0000000000000
FFE0000000000000
FFFFFFFFFFFFFF80
FFFFFFFFFFFFFF80
FFFFFFFFFFFFFF80
FFFFFFFFFFFFFF80
FFFFFFFFFFFFFF80
FFFFFFFFFFFFFF80
FFFFFFFFFFFFFF80
FFFFFFFFFFFFFF80
FFFFFFFFFFFFFF80
FFFFFFFFFFFFFF80
FFFFFFFFFFFFFF80
ENDCHAR
STARTCHAR igrave
ENCODING 236
SWIDTH 267 0
DWIDTH 24 0
BBX 23 80 -2 0
BITMAP
800000
F00000
FE0000
FFE000
FFFC00
FFFFC0
FFFFF8
7FFFFE
03FFFE
001FFE
0001FE
00000E
000000
000000
000000
000000
00FFE0
00FFE0
00FFE0
00FFE0
00FFE0
00FFE0
00FFE0
00FFE0
00FFE0
00FFE0
00FFE0
00FFE0
00FFE0
00FFE0
00FFE0
00FFE0
00FFE0
00FFE0
00FFE0
00FFE0
00FFE0
00FFE0
00FFE0
00FFE0
00FFE0
00FFE0
00FFE0
00FFE0
00FFE0
00FFE0
00FFE0
00FFE0
00FFE0
00FFE0
00FFE0
00FFE0
00FFE0
00FFE0
00FFE0
00FFE0
00FFE0
00FFE0
00FFE0
00FFE0
00FFE0
00FFE0
00FFE0
00FFE0
00FFE0
00FFE0
00FFE0
00FFE0
00FFE0
00FFE0
00FFE0
00FFE0
00FFE0
00FFE0
00FFE0
00FFE0
00FFE0
00FFE0
00FFE0
00FFE0
ENDCHAR
STARTCHAR iacute
ENCODING 237
SWIDTH 267 0
DWIDTH 24 0
BBX 23 80 3 0
BITMAP
000002
00001E
0001FE
000FFE
007FFE
07FFFE
3FFFFE
FFFFF8
FFFF80
FFF000
FE0000
E00000
000000
000000
000000
000000
1FFC00
1FFC00
1FFC00
1FFC00
1FFC00
1FFC00
1FFC00
1FFC00
1FFC00
1FFC00
1FFC00
1FFC00
1FFC00
1FFC00
1FFC00
1FFC00
1FFC00
1FFC00
1FFC00
1FFC00
1FFC00
1FFC00
1FFC00
1FFC00
1FFC00
1FFC00
1FFC00
1FFC00
1FFC00
1FFC00
1FFC00
1FFC00
1FFC00
1FFC00
1FFC00
1FFC00
1FFC00
1FFC00
1FFC00
1FFC00
1FFC00
1FFC00
1FFC00
1FFC00
1FFC00
1FFC00
1FFC00
1FFC00
1FFC00
1FFC00
1FFC00
1FFC00
1FFC00
1FFC00
1FFC00
1FFC00
1FFC00
1FFC00
1FFC00
1FFC00
1FFC00
1FFC00
1FFC00
1FFC00
ENDCHAR
STARTCHAR icircumflex
ENCODING 238
SWIDTH 267 0
DWIDTH 24 0
BBX 24 80 0 0
BITMAP
01FF00
01FF80
03FFC0
07EFC0
07C7E0
0FC3F0
1F83F0
1F81F8
3F00FC
7E00FC
FE007E
FC003F
000000
000000
000000
000000
03FF80
03FF80
03FF80
03FF80
03FF80
03FF80
03FF80
03FF80
03FF80
03FF80
03FF80
03FF80
03FF80
03FF80
03FF80
03FF80
03FF80
03FF80
03FF80
03FF80
03FF80
03FF80
03FF80
03FF80
03FF80
03FF80
03FF80
03FF80
03FF80
03FF80
03FF80
03FF80
03FF80
03FF80
03FF80
03FF80
03FF80
03FF80
03FF80
03FF80
03FF80
03FF80
03FF80
03FF80
03FF80
03FF80
03FF80
03FF80
03FF80
03FF80
03FF80
03FF80
03FF80
03FF80
03FF80
03FF80
03FF80
03FF80
03FF80
03FF80
03FF80
03FF80
03FF80
03FF80
ENDCHAR
STARTCHAR idieresis
ENCODING 239
SWIDTH 267 0
DWIDTH 24 0
BBX 25 79 -1 0
BITMAP
3E001E00
7F007F80
FF807F80
FF80FF80
FF807F80
FF807F80
7F007F80
3E001E00
00000000
00000000
00000000
00000000
00000000
00000000
00000000
01FFC000
01FFC000
01FFC000
01FFC000
01FFC000
01FFC000
01FFC000
01FFC000
01FFC000
01FFC000
01FFC000
01FFC000
01FFC000
01FFC000
01FFC000
01FFC000
01FFC000
01FFC000
01FFC000
01FFC000
01FFC000
01FFC000
01FFC000
01FFC000
01FFC000
01FFC000
01FFC000
01FFC000
01FFC000
01FFC000
01FFC000
01FFC000
01FFC000
01FFC000
01FFC000
01FFC000
01FFC000
01FFC000
01FFC000
01FFC000
01FFC000
01FFC000
01FFC000
01FFC000
01FFC000
01FFC000
01FFC000
01FFC000
01FFC000
01FFC000
01FFC000
01FFC000
01FFC000
01FFC000
01FFC000
01FFC000
01FFC000
01FFC000
01FFC000
01FFC000
01FFC000
01FFC000
01FFC000
01FFC000
ENDCHAR
STARTCHAR eth
ENCODING 240
SWIDTH 877 0
DWIDTH 77 0
BBX 73 64 1 0
BITMAP
0FFFFFFFFFFF00000000
0FFFFFFFFFFFF0000000
0FFFFFFFFFFFFC000000
0FFFFFFFFFFFFF800000
0FFFFFFFFFFFFFC00000
0FFFFFFFFFFFFFF00000
0FFFFFFFFFFFFFF80000
0FFFFFFFFFFFFFFC0000
0FFFFFFFFFFFFFFF0000
0FFFFFFFFFFFFFFF8000
0FFFFFFFFFFFFFFF8000
0FFE00000007FFFFC000
0FFE000000007FFFE000
0FFE000000001FFFF000
0FFE0000000007FFF000
0FFE0000000003FFF800
0FFE0000000001FFF800
0FFE0000000000FFFC00
0FFE00000000007FFC00
0FFE00000000003FFE00
0FFE00000000003FFE00
0FFE00000000001FFE00
0FFE00000000001FFF00
0FFE00000000000FFF00
0FFE00000000000FFF00
0FFE000000000007FF00
0FFE000000000007FF00
FFFFFFFFFF800007FF00
FFFFFFFFFF800007FF80
FFFFFFFFFF800007FF80
FFFFFFFFFF800007FF80
FFFFFFFFFF800007FF80
FFFFFFFFFF800007FF80
FFFFFFFFFF800007FF80
FFFFFFFFFF800007FF80
FFFFFFFFFF800007FF00
0FFE000000000007FF00
0FFE000000000007FF00
0FFE00000000000FFF00
0FFE00000000000FFF00
0FFE00000000000FFF00
0FFE00000000001FFE00
0FFE00000000001FFE00
0FFE00000000003FFE00
0FFE00000000003FFC00
0FFE00000000007FFC00
0FFE0000000000FFF800
0FFE0000000001FFF800
0FFE0000000003FFF000
0FFE0000000007FFF000
0FFE000000001FFFE000
0FFE000000007FFFC000
0FFE00000007FFFFC000
0FFFFFFFFFFFFFFF8000
0FFFFFFFFFFFFFFF0000
0FFFFFFFFFFFFFFE0000
0FFFFFFFFFFFFFFC0000
0FFFFFFFFFFFFFF80000
0FFFFFFFFFFFFFE00000
0FFFFFFFFFFFFFC00000
0FFFFFFFFFFFFF000000
0FFFFFFFFFFFFC000000
0FFFFFFFFFFFE0000000
0FFFFFFFFFFE00000000
ENDCHAR
STARTCHAR ntilde
ENCODING 241
SWIDTH 873 0
DWIDTH 77 0
BBX 67 78 5 0
BITMAP
0000007E0008000000
000001FF8018000000
000003FFF078000000
000003FFFFF8000000
000003FFFFF8000000
00000381FFF8000000
000002007FF0000000
000002000FC0000000
000000000000000000
000000000000000000
000000000000000000
000000000000000000
000000000000000000
000000000000000000
0F000000000000FFE0
3FC00000000000FFE0
7FE00000000000FFE0
7FF00000000000FFE0
FFF80000000000FFE0
FFFC0000000000FFE0
FFFE0000000000FFE0
FFFF0000000000FFE0
FFFF8000000000FFE0
FFFFC000000000FFE0
FFFFE000000000FFE0
FFFFF000000000FFE0
FFFFF800000000FFE0
FFFFFC00000000FFE0
FFFFFE00000000FFE0
FFFFFF00000000FFE0
FFFFFF80000000FFE0
FFFFFFC0000000FFE0
FFEFFFE0000000FFE0
FFE7FFF0000000FFE0
FFE3FFF8000000FFE0
FFE1FFFC000000FFE0
FFE0FFFE000000FFE0
FFE07FFF000000FFE0
FFE03FFF800000FFE0
FFE01FFFC00000FFE0
FFE00FFFE00000FFE0
FFE007FFF00000FFE0
FFE003FFF80000FFE0
FFE001FFFE0000FFE0
FFE000FFFE0000FFE0
FFE0007FFF8000FFE0
FFE0003FFFC000FFE0
FFE0001FFFE000FFE0
FFE0000FFFF000FFE0
FFE00007FFF800FFE0
FFE00003FFFC00FFE0
FFE00001FFFE00FFE0
FFE00000FFFF00FFE0
FFE000007FFF80FFE0
FFE000003FFFC0FFE0
FFE000001FFFE0FFE0
FFE000000FFFF0FFE0
FFE0000007FFF8FFE0
FFE0000003FFFCFFE0
FFE0000001FFFEFFE0
FFE0000000FFFFFFE0
FFE00000007FFFFFE0
FFE00000003FFFFFE0
FFE00000001FFFFFE0
FFE00000000FFFFFE0
FFE000000007FFFFE0
FFE000000003FFFFE0
FFE000000001FFFFE0
FFE0000000007FFFE0
FFE0000000007FFFE0
FFE0000000001FFFE0
FFE0000000000FFFE0
FFE00000000007FFC0
FFE00000000003FFC0
FFE00000000001FFC0
FFE00000000000FFC0
FFE000000000007F80
FFE000000000003E00
ENDCHAR
STARTCHAR ograve
ENCODING 242
SWIDTH 968 0
DWIDTH 85 0
BBX 78 80 4 0
BITMAP
00000040000000000000
00000078000000000000
0000007F000000000000
0000007FF00000000000
0000007FFE0000000000
0000007FFFC000000000
0000007FFFFC00000000
0000003FFFFE00000000
00000001FFFE00000000
000000001FFE00000000
0000000000FE00000000
00000000000600000000
00000000000000000000
00000000000000000000
00000000000000000000
00000000000000000000
0000007FFFFFF8000000
000007FFFFFFFF800000
00003FFFFFFFFFF00000
0000FFFFFFFFFFFC0000
0003FFFFFFFFFFFF0000
000FFFFFFFFFFFFF8000
001FFFFFFFFFFFFFC000
003FFFFFFFFFFFFFF000
007FFFFFFFFFFFFFF800
00FFFFFFFFFFFFFFFC00
01FFFFFFFFFFFFFFFE00
03FFFFE000003FFFFE00
07FFFE00000003FFFF00
07FFF800000000FFFF80
0FFFF0000000003FFF80
1FFFC0000000001FFFC0
1FFF80000000000FFFC0
3FFF000000000007FFE0
3FFE000000000003FFE0
3FFC000000000001FFF0
7FFC000000000001FFF0
7FF8000000000000FFF0
7FF80000000000007FF8
FFF00000000000007FF8
FFF00000000000007FF8
FFF00000000000003FF8
FFE00000000000003FF8
FFE00000000000003FF8
FFE00000000000003FFC
FFE00000000000003FFC
FFE00000000000003FFC
FFE00000000000003FFC
FFE00000000000003FFC
FFE00000000000003FFC
FFE00000000000003FFC
FFE00000000000003FF8
FFE00000000000003FF8
FFF00000000000003FF8
FFF00000000000003FF8
7FF00000000000007FF8
7FF00000000000007FF8
7FF8000000000000FFF0
7FF8000000000000FFF0
3FFC000000000001FFF0
3FFE000000000001FFE0
1FFE000000000003FFE0
1FFF000000000007FFC0
1FFF80000000000FFFC0
0FFFC0000000001FFF80
07FFF0000000003FFF80
07FFF800000000FFFF00
03FFFE00000003FFFE00
01FFFFE000003FFFFE00
01FFFFFFFFFFFFFFFC00
00FFFFFFFFFFFFFFF800
007FFFFFFFFFFFFFF000
003FFFFFFFFFFFFFE000
000FFFFFFFFFFFFFC000
0007FFFFFFFFFFFF0000
0001FFFFFFFFFFFE0000
0000FFFFFFFFFFF80000
00003FFFFFFFFFE00000
000007FFFFFFFF000000
0000007FFFFFF0000000
ENDCHAR
ENDFONT
